<svg width="300" height="300" viewBox="0 0 300 300" fill="none" xmlns="http://www.w3.org/2000/svg">
<g clip-path="url(#clip0_1444_13322)">
<path fill-rule="evenodd" clip-rule="evenodd" d="M26.0416 50.9483C25.8698 52.4424 26.2655 54.4416 26.3384 56.0555C26.4737 59.1323 26.9162 62.1831 27.0985 65.1714C27.1245 65.64 27.2338 65.8326 27.3015 66.2959L27.8481 71.3615C28.1397 75.516 28.8165 79.6757 29.4204 83.7989L29.7484 86.3291C29.8213 87.5994 30.6334 91.9569 30.8573 93.5396C30.9562 94.232 31.2113 95.1587 31.3154 95.8251C31.5861 97.5119 31.9089 98.9331 32.164 100.594C32.6378 103.697 33.4603 106.852 34.0278 110.027C34.1371 110.647 34.4443 111.548 34.5536 112.282C34.6265 112.771 34.7306 112.948 34.8139 113.432C35.2512 115.947 37.0734 122.84 37.9168 125.703C38.578 127.947 38.9788 130.008 39.7389 132.19L41.0248 136.527C42.3107 140.915 46.3559 152.874 48.303 157.304C48.8861 158.637 49.3494 159.965 49.9221 161.287C54.566 172.022 58.7673 181.351 64.5461 191.43C67.4095 196.428 70.1635 200.926 72.9644 205.331C76.3328 210.631 80.1645 215.852 83.8556 220.975L86.922 224.916C88.5307 226.967 90.1758 229.154 91.9043 231.163C93.513 233.038 95.3507 235.219 97.0688 237.213C97.8341 238.098 98.8284 239.139 99.6822 240.217L107.799 248.807C109.72 250.655 111.386 252.587 113.406 254.424C114.379 255.309 115.29 256.236 116.259 257.178C117.206 258.105 118.216 258.949 119.179 259.87C121.085 261.703 123.146 263.353 125.072 265.196C126.129 266.206 127.004 266.836 128.004 267.763C129.539 269.189 131.075 270.298 132.595 271.589L148.318 283.912C150.348 285.463 149.562 285.583 153.029 282.803L155.981 280.502C161.646 276.347 170.272 268.674 176.014 263.473L184.11 255.674C188.52 251.197 192.83 246.761 196.959 242.112C197.833 241.128 198.51 240.269 199.421 239.311C201.092 237.562 202.816 235.412 204.315 233.563C215.112 220.246 221.776 210.61 230.486 196.272C231.892 193.96 233.001 191.842 234.313 189.567C235.531 187.458 236.89 184.97 238.04 182.684L241.554 175.661C243.397 172.105 244.876 168.414 246.589 164.791L249.723 157.44C251.326 153.618 252.638 149.802 254.117 145.918C255.106 143.31 255.897 140.624 256.855 138.021C257.839 135.35 258.542 132.716 259.37 129.993C260.02 127.858 261.863 121.892 262.316 119.768L263.394 115.561C264.201 112.802 265.351 107.711 265.971 104.842C267.236 98.98 268.407 93.019 269.412 87.1204C269.678 85.5794 269.782 84.1113 270.126 82.5703C270.646 80.2379 270.807 77.9472 271.12 75.5889C271.172 75.1776 271.276 74.9902 271.318 74.5216C271.359 74.0583 271.354 73.6522 271.427 73.1888C271.542 72.4444 271.64 71.6478 271.797 70.9242C271.963 70.1433 271.916 69.1229 272.041 68.4252C272.447 66.1606 272.375 63.7293 272.833 61.397L273.499 54.1188C273.567 53.2182 273.697 52.4841 273.728 51.6043C273.749 50.9483 273.791 50.9066 273.395 50.5943C273.208 50.4485 272.765 50.157 272.567 50.0216C269.397 47.835 266.414 45.6224 263.123 43.6909C262.082 43.0818 260.9 42.2228 259.823 41.6293C258.625 40.9681 257.553 40.3486 256.475 39.6978C255.345 39.0158 254.283 38.4484 253.117 37.7924C249.619 35.8245 246.183 34.1794 242.549 32.4665C238.925 30.7589 235.255 29.0565 231.408 27.7238L227.649 26.2608C226.982 26.0318 226.326 25.9068 225.644 25.6413C225.067 25.4175 224.358 25.1519 223.682 24.9437L217.627 23.0591C216.221 22.679 214.873 22.2105 213.488 21.9241C211.348 21.4764 209.276 20.8309 207.105 20.3623C206.34 20.1957 205.689 20.0916 204.986 19.8938C203.529 19.4825 197.063 18.3944 194.98 17.9987C193.117 17.6447 191.039 17.5094 189.097 17.1762C185.266 16.515 178.383 16.0204 174.567 15.7757C173.833 15.7289 173 15.5779 172.318 15.5414C164.681 15.1093 156.648 15 148.943 15C145.324 15 142.107 15.1562 138.541 15.2135C136.859 15.2395 134.943 15.1978 133.293 15.3124L128.384 15.6247C125.885 16.1089 119.413 16.1193 116.264 16.692C115.415 16.8482 114.645 16.8013 113.786 16.9367C112.328 17.1657 110.724 17.4 109.215 17.5979C106.112 18.0039 103.082 18.5506 100.078 19.0556C99.3594 19.1753 98.4952 19.2742 97.8341 19.446C97.1156 19.6282 96.2202 19.6543 95.5434 19.8573C94.3043 20.2269 92.6331 20.5758 91.316 20.8517C89.1554 21.3098 81.2526 23.2361 78.712 24.1576L72.8811 26.1099C72.1314 26.3546 71.5171 26.5368 70.7987 26.7658C68.3362 27.5468 61.7921 30.2852 59.4493 31.3108C56.9868 32.3885 54.6545 33.5026 52.2284 34.7052C43.1177 39.2189 34.0903 44.7686 26.0416 50.9483Z" fill="#050007"/>
<path fill-rule="evenodd" clip-rule="evenodd" d="M149.88 280.794C150.348 280.617 153.321 277.998 153.987 277.446C158.907 273.359 168.955 263.978 173.302 259.36C174.453 258.137 175.645 256.939 176.983 255.56C183.975 248.375 195.501 234.667 200.822 227.04C202.967 223.969 204.908 221.402 207.033 218.159C217.523 202.139 223.286 191.831 230.986 174.818C234.37 167.347 238.92 155.524 241.388 147.819C242.33 144.877 244.189 139.197 244.938 136.261C245.735 133.143 247.531 127.536 248.119 124.521L249.556 118.461C250.806 113.302 251.727 108.159 252.742 102.963C253.263 100.302 253.596 97.5745 254.117 94.9974L255.309 86.7822C255.366 86.1522 255.517 85.819 255.564 85.2464C255.626 84.5539 255.653 84.1531 255.757 83.5179C255.939 82.4194 256.038 81.3053 256.131 80.1183C256.303 77.9786 256.819 75.6359 256.907 73.4597L257.532 66.5772C257.808 64.3125 257.907 62.027 258.068 59.6635C258.146 58.5181 258.24 57.3676 258.292 56.1597C258.386 53.9992 258.854 54.1033 257.761 53.2339C253.034 49.4855 249.707 47.0386 244.626 43.7952C219.043 27.4688 187.838 19.1598 149.88 18.7798C140.373 18.6861 130.404 19.0817 121.538 20.3104C120.366 20.4718 119.278 20.503 118.143 20.6852C117.112 20.8518 115.957 21.0601 114.827 21.159C112.682 21.3464 104.529 23.1581 102.332 23.5954C99.5052 24.1577 93.5026 25.9278 90.5559 26.792L84.9749 28.687C80.7476 30.2228 73.4746 33.1747 69.2472 35.3977C67.5396 36.2984 66.0403 37.0585 64.3639 37.98C59.4806 40.6663 50.828 46.1588 46.2518 49.9176C45.4188 50.5996 41.3685 53.5567 41.2852 54.3012L42.2483 66.4314C42.5398 69.4093 42.7949 73.8293 43.2531 76.6719C43.4249 77.7235 43.5394 79.0042 43.6435 80.009C44.362 87.0321 45.903 95.82 47.0796 102.786C48.1364 109.023 50.2293 118.513 51.6714 124.355C53.077 130.05 54.8211 136.501 56.5235 142.066C58.2988 147.871 60.1209 153.124 62.1721 158.83C64.8064 166.15 67.701 173.235 70.8716 180.081L75.7393 190.171C77.8321 194.257 81.1745 200.661 83.6474 204.706C84.5585 206.195 85.6153 207.897 86.4483 209.376C87.3802 211.037 88.3641 212.406 89.3273 213.994C90.3268 215.644 91.3681 217.091 92.3312 218.586C94.2679 221.584 96.3764 224.484 98.4796 227.394C100.411 230.06 102.78 233.074 104.93 235.906C108.616 240.769 114.499 247.443 118.737 252.014C128.316 262.348 138.218 271.443 149.874 280.809" fill="white"/>
<path fill-rule="evenodd" clip-rule="evenodd" d="M66.0299 150.052C66.2173 150.802 66.5713 151.619 66.8108 152.311C67.0659 153.04 67.3783 153.858 67.6438 154.639C70.8716 164.067 76.4578 176.65 80.7893 185.323C86.4171 196.595 94.7365 210.709 101.999 220.231L114.525 235.875C118.19 240.139 122.688 244.71 126.744 248.677C127.441 249.359 127.686 249.453 128.108 250.457C129.982 254.929 132.195 258.152 136.141 261.135C138.02 262.556 139.15 263.025 141.144 263.952C141.467 264.103 142.024 264.196 142.425 264.347C143.976 264.93 145.788 265.097 146.215 265.227C148.125 265.805 154.164 265.388 156.143 264.748C156.903 264.498 157.731 264.3 158.543 264.009C164.358 261.926 168.674 257.22 171.298 251.748C172.776 248.672 171.319 250.431 173.823 248.078L178.607 243.393C180.487 241.56 182.694 239.092 184.599 236.88C186.557 234.605 188.291 232.507 190.269 230.044C196.006 222.906 202.165 213.733 206.923 206.013C214.587 193.575 221.427 180.206 227.243 166.837C228.497 163.947 229.7 161.027 230.892 157.965C231.236 157.08 234.063 149.844 234.297 148.787C233.943 148.954 233.813 149.297 233.558 149.662C233.334 149.984 233.126 150.229 232.855 150.593C231.642 152.239 230.33 153.488 229.054 154.982C228.737 155.352 228.508 155.57 227.841 155.472C227.076 154.618 226.53 153.629 225.702 152.634C225.311 152.16 224.973 151.65 224.598 151.161C221.974 147.725 219.496 144.398 216.804 141.066C216.034 140.114 215.258 139.187 214.498 138.239C213.754 137.313 212.874 136.329 212.14 135.454C208.85 131.539 204.695 127.187 200.822 123.735C200.077 123.069 200.207 123.095 200.202 121.85C200.176 113.219 199.89 105.998 198.802 97.7044C198.609 96.2207 198.219 94.7161 198.01 93.3313L196.886 89.3278C196.334 87.8492 195.865 87.0787 195.111 85.975C194.387 84.9078 193.851 83.8145 191.997 84.1164C187.603 84.8401 185.094 86.9902 181.939 89.5152C179.909 91.1447 178.076 92.1755 175.697 93.4562C174.125 94.3048 173.297 93.8207 171.662 93.2792C170.324 92.8367 168.945 92.5712 167.643 92.1339C165.436 91.3894 161.505 90.7855 159.277 90.3169C151.66 88.7291 139.608 89.8484 131.934 92.2068C130.539 92.6337 129.373 92.9408 128.056 93.3781C126.249 93.9821 125.9 94.2944 124.005 93.3573C118.076 90.4159 115.405 87.1724 111.651 85.2514C110.626 84.7256 109.048 84.2206 107.715 84.0436C106.549 83.8874 106.445 83.9394 105.846 84.5902C104.508 86.0531 103.707 87.3963 102.952 89.3017L101.765 93.2532C101.499 94.6693 101.192 96.1999 100.999 97.6263L100.042 106.779C99.8385 108.315 99.9218 110.121 99.8489 111.792C99.6979 115.051 99.6042 118.425 99.599 121.845C99.599 123.173 99.5574 123.089 97.553 124.813C95.4653 126.604 91.6805 130.55 89.8635 132.554C83.3299 139.744 81.4296 142.295 76.2131 149.526C75.5415 150.458 74.7814 151.442 74.1098 152.561C72.2929 155.597 71.9909 156.081 71.007 155.019C70.7987 154.795 70.5228 154.55 70.2989 154.326C69.1171 153.15 66.9514 150.989 66.259 149.714C65.9258 149.943 66.1757 149.656 66.0299 150.042" fill="#050007"/>
<path fill-rule="evenodd" clip-rule="evenodd" d="M66.0299 150.052C66.1757 149.667 65.931 149.953 66.259 149.724C66.9514 151 69.1172 153.16 70.299 154.337C70.5228 154.561 70.7987 154.805 71.007 155.029C71.9909 156.091 72.2929 155.607 74.1098 152.572C74.7814 151.453 75.5415 150.469 76.2131 149.537C81.4296 142.306 83.3299 139.76 89.8636 132.565C91.6805 130.566 95.4706 126.619 97.553 124.823C99.5574 123.1 99.5938 123.183 99.599 121.856C99.6094 118.435 99.7032 115.067 99.8489 111.803C99.927 110.132 99.8437 108.325 100.042 106.789L100.999 97.637C101.192 96.2105 101.494 94.6851 101.765 93.2638L102.952 89.3124C103.707 87.4017 104.508 86.0586 105.846 84.6008C106.445 83.9501 106.549 83.898 107.715 84.0542C109.048 84.2364 110.626 84.7362 111.651 85.262C115.405 87.1883 118.076 90.4265 124.005 93.368C125.9 94.3103 126.249 93.9927 128.056 93.3888C129.378 92.9515 130.539 92.6443 131.934 92.2174C139.598 89.859 152.165 88.8438 159.277 90.3276C161.505 90.7909 165.436 91.4 167.643 92.1445C168.945 92.5818 170.324 92.8474 171.662 93.2899C173.297 93.8261 174.125 94.3155 175.697 93.4669C178.076 92.181 179.903 91.1554 181.939 89.5258C185.089 86.9957 187.603 84.8507 191.997 84.1271C193.851 83.8199 194.387 84.9184 195.111 85.9857C195.86 87.0894 196.334 87.8599 196.886 89.3384L198.01 93.3419C198.219 94.732 198.604 96.2313 198.802 97.7151C199.885 106.008 200.176 113.235 200.202 121.861C200.202 123.105 200.077 123.079 200.822 123.746C204.695 127.197 208.85 131.544 212.14 135.465C212.874 136.339 213.754 137.323 214.498 138.25C215.258 139.197 216.034 140.124 216.805 141.077C219.496 144.409 221.974 147.736 224.598 151.172C224.968 151.656 225.306 152.171 225.702 152.645C226.524 153.639 227.076 154.628 227.841 155.482C228.508 155.581 228.737 155.362 229.055 154.993C230.33 153.493 231.642 152.249 232.855 150.604C233.126 150.24 233.329 149.995 233.558 149.672C233.813 149.308 233.943 148.964 234.297 148.798C234.839 147.709 237.223 139.978 237.645 138.698C244.819 112.188 249.358 87.9692 250.868 60.7256C251.082 56.8314 251.894 58.2214 248.812 55.7693L244.116 52.1615C217.679 31.993 182.569 25.1001 149.885 25.1834C115.072 25.2771 78.2071 32.5396 50.9686 55.7745C50.3022 56.342 49.287 57.2218 48.6623 57.6748C47.2514 75.7244 56.9921 122.616 62.6147 139.734C63.6924 143.019 64.8221 146.908 66.0403 150.057" fill="#E52E0E"/>
<path fill-rule="evenodd" clip-rule="evenodd" d="M84.3086 177.306L86.2817 172.569C86.9221 171.09 87.8696 169.388 88.6401 168.039C90.457 164.864 92.0813 162.729 94.3356 159.944C97.2718 156.315 101.629 152.811 105.586 150.625C106.471 150.135 109.532 148.605 110.527 148.579C110.391 148.975 108.012 151.937 107.507 152.546C103.696 157.179 99.6458 164.614 97.756 170.366C97.4957 171.158 97.1937 172.095 96.9074 172.897C96.6159 173.719 96.4024 174.781 96.1733 175.682C95.2414 179.311 94.6011 183.934 94.6167 188.02C94.6271 190.733 94.8197 193.591 95.3143 196.152C95.4184 196.709 95.5902 198.417 95.7673 198.755C95.9547 198.407 95.8818 197.735 95.8818 197.251C95.8818 191.368 97.4072 186.297 100.182 181.45C102.415 177.551 105.732 174.391 108.829 171.163C109.204 170.773 109.152 170.721 109.756 170.653C112.37 174.136 115.42 177.416 118.763 180.097C119.205 180.451 121.798 182.424 122.469 182.46C122.678 181.252 121.381 178.051 120.856 176.838C120.595 176.234 120.2 175.718 120.179 175.026C122.199 175.406 125.578 179.909 126.369 182.101C127.311 184.72 126.978 185.277 127.28 187.833C127.54 190.009 127.655 191.597 128.222 193.565C129.206 196.97 130.549 200.281 132.647 202.452C134.319 204.18 139.441 206.747 142.05 206.617L143.882 206.429C143.789 205.841 142.706 205.32 142.221 204.914C138.692 201.962 134.813 191.639 135.677 189.03L137.494 184.387C140.097 177.504 141.998 169.33 140.139 161.87C139.395 158.877 136.771 156.086 133.767 155.165C132.064 154.644 129.289 155.232 127.436 155.232C123.313 155.232 119.372 153.816 117.867 150.266C117.201 148.688 117.524 149.047 115.566 148.449C114.608 148.157 111.995 148.365 111.578 148.168C111.578 147.631 112.302 147.444 112.765 147.163C114.233 146.283 115.488 145.325 116.951 144.466C118.638 143.477 122.204 142.561 124.531 143.133C127.389 143.841 128.462 144.997 130.357 146.413C131.101 146.97 132.788 147.829 133.777 146.902C134.896 145.856 134.527 141.436 134.365 139.853L134.011 137.058C133.933 135.964 132.679 127.702 132.33 126.166C132.111 125.203 131.325 121.559 131.362 120.757C131.705 120.992 131.794 121.517 131.934 121.929L133.22 125.672C133.491 126.521 133.762 127.244 134.064 128.202C134.339 129.087 134.595 129.92 134.886 130.764L137.198 138.594C137.411 139.442 137.64 140.41 137.89 141.306C139.202 145.913 138.801 146.163 139.41 149.849C139.639 151.224 139.733 154.118 140.415 155.623C141.732 158.528 142.612 156.601 142.633 160.199C142.638 161.329 142.659 162.458 142.659 163.588C142.659 166.681 142.471 171.543 141.961 174.505C141.248 178.644 140.222 182.762 138.536 186.61C138.254 187.255 137.442 188.838 137.447 189.541C138.124 190.124 139.426 190.04 140.248 189.858C144.455 188.932 145.038 188.317 149.989 188.317C155.877 188.317 157.46 189.64 159.266 189.91C160.292 190.066 161.828 190.113 162.494 189.541C162.473 189.015 161.708 187.635 161.39 187.026C160.495 185.318 159.875 183.434 159.313 181.633L158.142 177.207C157.705 175.588 157.616 174.063 157.314 172.423C157.012 170.788 156.929 167.035 156.934 165.228C156.976 154.582 157.595 159.173 159.069 156.206C160.026 154.28 160.412 149.204 160.651 147.022C161.13 142.623 164.295 131.149 165.847 127.203C166.534 125.458 167.039 123.595 167.758 121.851L168.809 119.341C168.913 119.596 168.028 123.454 167.825 124.032C167.612 124.636 167.45 125.693 167.299 126.396L165.899 134.023C165.368 137.526 164.774 141.92 165.248 145.341C165.529 147.366 167.128 147.72 168.872 146.835C171.73 145.388 171.876 142.998 177.337 142.998C180.981 142.998 183.183 144.752 185.807 146.465C186.198 146.72 188.02 147.673 188.171 148.048C187.614 148.407 183.964 147.871 182.491 149.11C182.189 149.365 181.752 150.385 181.491 150.797C176.962 157.887 169.148 153.91 165.493 155.373C163.921 156.003 162.515 157.127 161.588 158.132C159.272 160.641 158.855 164.489 158.865 168.857C158.871 173.032 159.589 176.307 160.646 179.8C161.364 182.179 162.203 184.532 163.15 186.792C163.395 187.375 163.993 188.541 164.134 189.093C164.655 191.134 162.114 197.485 161.458 199.125C159.698 203.556 156.007 205.987 155.898 206.377C157.22 207.595 161.786 205.633 162.952 205.091C168.013 202.733 169.949 198.589 171.438 193.591C171.98 191.774 172.193 189.921 172.412 187.854C172.641 185.699 172.604 184.293 173.385 182.236C173.994 180.649 174.791 179.212 175.884 178.046C176.592 177.296 178.529 175.427 179.544 175.062C179.575 175.869 177.389 180.17 177.274 182.471C179.836 182.346 186.749 174.896 188.629 172.324C189.004 171.814 189.675 170.944 190.071 170.585C190.743 170.747 192.174 172.407 192.815 173.006C195.386 175.427 197.859 178.488 199.702 181.794C200.999 184.116 201.946 186.12 202.805 189.093C203.69 192.144 203.862 195.309 203.862 198.547C203.862 198.974 203.826 199.177 203.982 199.49C204.685 198.526 205.122 189.431 205.127 186.859C205.138 182.767 204.502 178.8 203.628 174.932C202.003 167.748 196.495 158.059 192.232 152.556C191.716 151.895 189.467 149.224 189.316 148.6C191.065 148.709 196.927 152.39 198.203 153.368C199.728 154.535 200.686 155.253 201.936 156.414C206.814 160.938 210.469 166.399 213.327 172.386C213.504 172.761 215.243 176.916 215.55 177.114C215.873 176.921 215.638 177.134 215.805 176.827C216.013 176.447 216.055 176.015 216.18 175.562L217.601 170.694C218.397 167.878 219.199 165.181 219.84 162.359C219.949 161.875 220.183 161.376 220.324 160.824C220.771 159.033 221.235 157.455 221.537 155.68C221.62 155.18 221.12 154.837 220.808 154.493C218.059 151.427 213.551 146.049 210.718 143.31C209.193 141.842 208.011 140.483 206.616 139L202.347 134.741C198.895 131.357 195.256 127.718 191.466 124.469C190.914 123.996 190.862 123.86 191.018 122.855C191.128 122.147 191.242 121.866 191.352 121.07L194.215 106.935C194.35 105.941 194.71 104.582 194.96 103.551C195.095 102.994 195.09 102.265 195.209 101.677C195.314 101.146 195.366 100.25 195.444 99.7402C195.761 97.5016 195.386 93.9927 194.986 91.9779C194.658 90.3275 193.642 86.8342 192.763 85.7201C191.211 85.5848 184.297 92.8785 183.11 94.2269C182.527 94.8933 181.96 95.5649 181.346 96.1011C180.174 97.1163 177.909 97.991 176.051 98.1992C174.88 98.3294 173.885 97.9701 172.99 97.5901C170.501 96.5384 166.956 95.6118 164.249 95.3254C162.125 95.1016 160.136 94.6538 157.814 94.5549C150.64 94.2373 143.299 94.0187 136.188 95.2629C134.98 95.4712 133.683 95.669 132.533 96.0022L128.826 96.9081C128.05 97.0851 127.353 97.387 126.561 97.663C124.458 98.3918 123.787 98.3918 121.574 97.7098C120.267 97.309 118.685 96.4291 117.774 95.44C113.874 91.1918 112.427 90.0829 108.6 86.6104C108.106 86.1626 107.393 85.288 106.882 86.0273C106.502 86.5739 106.159 87.3861 105.857 88.0473C103.717 92.764 103.988 98.4231 104.904 103.588C105.06 104.483 105.133 105.477 105.268 106.347C105.648 108.721 106.393 111.293 106.815 113.75C107.096 115.379 107.606 117.04 107.887 118.779C108.022 119.633 108.949 123.303 108.85 123.74C108.762 124.126 100.182 131.914 99.5365 132.565C93.513 138.646 87.3542 144.57 81.8773 151.015C80.8569 152.213 80.102 153.025 79.0816 154.181C78.6651 154.654 78.1289 155.316 78.3215 156.336C78.358 156.523 78.587 157.211 78.6756 157.445C78.8265 157.835 80.7684 166.327 81.3827 168.331L83.4652 175.245C83.6526 175.843 83.9233 176.905 84.3138 177.343" fill="white"/>
<path fill-rule="evenodd" clip-rule="evenodd" d="M146.647 221.444C146.662 222.016 146.954 221.818 148.011 222.5C148.521 222.828 149.099 223.162 149.422 223.667C148.719 224.557 146.298 226.192 144.601 228.206C143.908 229.029 144.299 228.909 142.982 228.982L138.65 229.3C135.271 229.742 136.531 229.18 136.344 226.676C135.011 226.915 131.908 231.549 131.309 232.782C130.18 235.125 128.795 238.973 129.045 241.695C129.644 241.649 129.711 241.43 130.096 241.045C130.706 240.435 132.049 238.738 132.809 238.759C133.194 239.509 133.34 240.493 134.261 241.732C134.772 242.414 135.927 243.877 135.933 244.689C135.933 245.293 135.719 246.053 135.605 246.646C135.48 247.282 135.396 247.854 135.282 248.536C135.079 249.728 135.037 251.535 134.772 252.607C134.048 252.691 133.918 252.269 132.835 251.592C132.335 251.28 131.429 250.587 130.789 250.504C130.888 251.931 133.84 255.997 135.053 257.194C136.479 258.605 139.697 261.562 141.789 261.609C141.758 260.802 141.477 259.365 141.826 258.735C141.951 258.589 142.57 258.485 142.773 258.459C144.294 258.24 146.225 257.303 147.391 256.897C148.177 256.627 148.49 257.21 149.057 257.558C151.015 258.761 151.941 259.266 154.138 259.844C154.846 260.031 155.643 260.047 156.325 260.234C156.294 260.745 156.018 260.896 155.721 261.171C154.872 261.968 153.316 262.916 153.222 263.165C154.362 263.748 160.245 261.156 161.963 259.932L164.696 257.756C165.3 257.178 165.758 256.83 165.738 256.304C164.957 256.132 163.463 256.606 162.905 256.116L162.843 255.908C162.801 255.648 162.702 255.971 162.864 255.127L163.598 250.15C163.796 247.896 164.368 248.807 166.576 246.188C166.935 245.767 167.305 245.288 167.617 244.897C167.82 244.642 167.924 244.486 168.096 244.215C168.653 243.325 169.012 243.34 169.913 244.777L170.517 245.923C170.689 246.193 170.532 246.11 170.808 246.214C171.246 245.751 171.324 242.455 171.272 241.664C171.173 240.097 170.793 238.785 170.532 237.359C170.355 236.38 168.606 231.101 167.299 230.513C167.107 230.794 167.133 231.174 167.138 231.502C167.154 232.356 167.263 234.037 166.935 234.636C166.336 234.672 165.092 233.683 163.504 233.095C162.801 232.835 162.265 232.694 161.536 232.491C159.324 231.871 160.667 232.918 158.355 228.066C158.074 227.477 157.824 226.884 157.491 226.353L156.726 225.218C156.554 224.812 156.689 224.744 156.726 224.661C157.793 224.244 159.443 224.572 160.714 224.437C160.672 223.958 160 223.776 159.589 223.562C157.819 222.636 156.715 222.375 154.8 221.813C153.285 221.371 147.636 221.168 146.657 221.444" fill="white"/>
<path fill-rule="evenodd" clip-rule="evenodd" d="M141.789 60.6211C142.591 60.6732 143.841 60.7044 144.684 60.6471C145.871 60.5691 145.579 60.1109 145.231 59.1738C144.882 58.2211 144.46 56.6853 144.096 55.7222C143.804 54.9673 143.867 55.1599 143.388 55.7742C143.107 56.3729 142.128 58.4293 141.602 59.6528C141.232 60.5118 141.003 60.5639 141.789 60.6159M201.28 60.5482C202.258 60.5847 203.237 60.5795 204.216 60.5899C205.023 60.6003 204.908 60.5795 204.664 59.6632C204.357 58.4918 203.68 56.7321 203.43 55.9564C202.961 54.5091 202.649 55.8367 202.342 56.5239C202.108 57.0497 201.93 57.4089 201.717 57.8931C201.53 58.32 201.353 58.6376 201.108 59.127C200.697 59.9495 200.15 60.517 201.28 60.5534V60.5482ZM189.514 70.4034C191.695 70.4086 193.877 70.4138 196.058 70.419C196.573 69.4819 196.99 68.3522 197.453 67.3839C198.281 65.6398 198.338 64.7808 199.322 64.7808C201.29 64.7808 204.117 64.7183 205.986 64.8225C206.449 66.1813 206.918 67.5401 207.381 68.8989C207.47 69.206 207.678 70.1223 207.808 70.3514C208.865 70.5284 212.936 70.4295 214.181 70.419C214.191 69.7422 213.613 68.6542 213.348 67.9826C213.165 67.514 213.118 67.2017 212.926 66.7487C212.213 65.088 211.374 62.4433 210.666 60.5899C210.057 58.9968 209.459 57.4193 208.896 55.6961C208.631 54.8892 208.329 54.0145 208.022 53.1764C206.824 49.9329 208.246 50.6149 202.597 50.6149C201.847 50.6149 200.988 50.5733 200.254 50.6097C199.484 50.6462 199.463 51.2345 199.171 51.8071C196.219 57.4662 193.273 63.1201 190.321 68.7791C190.092 69.1227 189.556 69.9245 189.519 70.3982L189.514 70.4034ZM215.945 70.3982C217.414 70.518 219.923 70.4971 221.427 70.4399C222.214 70.4086 221.979 70.3097 222 68.2064C222.037 64.8693 222.208 57.7525 222.526 54.8163C223.057 54.6653 228.273 54.0198 228.424 56.6332C228.487 57.7525 227.742 58.6428 226.962 59.028C225.879 59.5643 224.728 59.4497 223.395 59.4081C224.312 62.1257 225.228 64.8381 226.144 67.5557C226.457 68.5553 226.686 69.4039 227.055 70.3774C229.179 70.393 231.303 70.4034 233.422 70.419C233.391 69.3986 229.919 63.0576 229.882 61.5999C231.6 60.72 232.808 60.314 233.646 58.7157C234.438 57.2007 234.568 54.707 233.625 53.1816C231.746 50.136 227.029 50.5056 223.047 50.5993C221.412 50.6045 219.772 50.6097 218.137 50.6202C217.523 50.6202 216.966 50.4796 216.836 50.9586C216.705 51.4427 216.705 56.6697 216.7 57.5703C216.664 61.1782 216.445 63.8749 216.185 67.2745C216.117 68.1179 215.899 69.7214 215.951 70.3982H215.945ZM99.172 70.3253C99.4219 68.7999 99.6718 67.2745 99.9165 65.7439C99.297 65.7544 98.6879 65.9834 98.1412 66.1084C93.8097 67.1079 88.437 66.301 88.8483 60.4806C89.0253 58.0128 90.5819 56.1803 92.5134 55.3473C95.736 53.9573 98.3547 55.2796 100.177 55.3005C100.156 53.8375 100.13 52.3694 100.109 50.9065C99.1304 50.4848 95.1217 50.2609 93.7733 50.3234C91.8522 50.4119 89.6813 51.0002 88.2756 51.7186C85.1624 53.3117 82.981 55.9929 82.679 60.012C82.1636 66.9361 86.9585 70.5804 92.6071 70.7418C93.7473 70.7731 94.9551 70.7887 96.0952 70.7106C96.7772 70.6637 98.5161 70.4919 99.172 70.3201V70.3253ZM65.0459 70.4034C66.0559 70.4711 67.1596 70.4138 68.18 70.4138C68.7266 70.4138 69.2733 70.4138 69.8147 70.419C70.0854 70.419 71.1162 70.518 71.3141 70.2681C71.7826 69.3882 71.1995 63.8125 71.6889 62.7712C71.9648 62.4485 78.1497 62.7712 79.066 62.6151C79.066 62.6151 79.3888 58.7313 79.1597 58.5126C78.5662 58.169 73.1675 58.4554 71.9336 58.3877C71.793 57.6901 71.8503 55.7534 71.9336 55.0037C73.4121 54.8007 79.748 55.0766 80.4612 54.9725C81.112 54.8788 80.6799 55.0141 80.8569 54.8007C80.9402 53.421 81.0235 52.0466 81.1068 50.667C76.0568 50.6566 71.0069 50.641 65.9518 50.6306C65.7591 51.375 65.7695 59.1946 65.7071 60.7409C65.6758 61.5478 65.5561 62.1986 65.5353 63.0732C65.5145 63.901 65.5301 64.812 65.452 65.6294C65.3166 67.2225 65.1813 68.8208 65.0459 70.4138V70.4034ZM160.896 70.3826C161.682 70.4867 166.55 70.5388 167.076 70.3253C167.19 68.0867 167.242 65.8793 167.331 63.6198C167.372 62.5422 167.95 62.0007 168.46 61.2042C170.335 58.3981 172.214 55.5972 174.088 52.7911C174.317 52.4475 175.088 51.4896 175.265 50.8909C175.358 50.5629 175.28 50.6306 174.994 50.6202C173.698 50.5785 172.334 50.6202 171.037 50.6202C168.601 50.6202 169.08 50.2453 168.049 51.9998C167.128 53.6085 166.201 55.212 165.279 56.8206C165.071 57.1955 165.087 57.3308 164.665 57.5235C164.353 56.9508 164.186 56.425 163.905 55.8159C163.098 54.0978 162.291 52.3746 161.484 50.6566C159.287 50.6462 157.095 50.6358 154.898 50.6254C154.883 50.9377 155.752 52.359 155.945 52.6974C157.533 55.5504 159.115 58.4085 160.703 61.2615C161.416 62.537 161.328 62.3912 161.281 64.1196C161.234 65.973 160.776 68.6958 160.906 70.3826H160.896ZM175.124 65.3951C175.098 65.7283 175.437 69.7787 175.53 70.1223C179.633 70.9553 185.776 71.7778 188.348 67.6494C189.04 66.5353 189.326 64.3539 188.525 62.9691C187.129 60.5586 184.131 58.9864 182.829 57.5755C181.507 56.1491 182.048 54.7694 184.24 54.6809C186.505 54.5924 187.634 55.0766 188.316 55.3265C189.066 55.6076 188.988 55.4879 188.972 54.707C188.952 53.6657 188.749 52.1664 188.676 51.3594C188.603 50.5993 188.467 50.7867 187.759 50.7035C184.474 50.313 180.591 49.4696 177.524 52.1299C176.436 53.0722 175.588 54.9152 175.999 56.8415C176.53 59.3404 179.94 61.4333 182.012 63.422C184.605 65.9105 181.304 67.16 177.561 66.1448C176.79 65.9366 175.811 65.4524 175.129 65.3899L175.124 65.3951ZM110.167 70.3878C111.36 70.4711 115.363 70.4815 116.467 70.3514C116.628 68.4824 116.633 66.5249 116.67 64.583C116.836 61.7977 117.003 59.0176 117.164 56.2324C117.248 55.2796 117.149 54.1968 117.326 53.3221C117.399 52.9629 117.617 50.844 117.295 50.6618C115.342 50.6462 113.39 50.6306 111.438 50.6202C110.959 50.7087 111.099 51.1668 111.104 51.7239C111.125 54.3217 110.927 56.5551 110.849 59.0957C110.792 60.9803 110.626 62.8181 110.547 64.7235C110.49 66.098 110.074 69.331 110.157 70.3878H110.167ZM123.464 70.393C126.072 70.518 134.011 70.4867 136.786 70.4086C137.114 69.9765 138.843 65.8793 139.436 64.8016C141.628 64.7964 143.825 64.786 146.017 64.7808C146.923 64.7808 146.839 65.0047 147.074 65.7179C147.579 67.2745 148.084 68.826 148.589 70.3826C150.718 70.3826 152.852 70.393 154.982 70.3982C153.17 65.4524 151.363 60.5066 149.552 55.5608C149.234 54.6549 148.099 51.1668 147.771 50.6358C145.356 50.6358 142.94 50.6358 140.524 50.6306C139.67 51.979 138.869 53.9156 138.098 55.3629C136.422 58.5595 134.74 61.7561 133.064 64.9526C132.637 65.7544 132.231 66.5561 131.814 67.3266C131.471 67.967 130.94 69.3622 130.289 69.6694C129.201 68.0763 128.108 66.478 127.02 64.8849C126.254 63.7188 124.057 60.8606 123.859 59.9131C124.109 59.1322 126.666 56.1334 127.327 55.2588C127.774 54.6653 130.763 51.0835 130.747 50.6462C128.67 50.641 126.593 50.6358 124.51 50.6254C123.766 50.6254 123.74 50.9169 123.422 51.4688C122.704 52.713 117.42 59.6944 117.378 59.9495C117.352 60.1369 120.111 64.6142 120.397 65.0828C121.418 66.8528 122.438 68.6281 123.459 70.3982L123.464 70.393Z" fill="white"/>
<path fill-rule="evenodd" clip-rule="evenodd" d="M157.512 245.345C157.543 243.695 156.991 236.958 156.309 236.172C155.565 235.313 148.797 234.86 147.022 234.969C145.22 237.354 144.08 239.707 143.044 242.534C142.773 243.268 143.159 243.429 143.56 244.002C144.2 244.918 144.908 245.735 145.704 246.553C146.418 247.287 147.376 247.995 148.287 248.646C149.875 249.77 149.802 249.447 151.567 248.745C153.659 247.912 155.695 246.667 157.512 245.35" fill="#050007"/>
<path fill-rule="evenodd" clip-rule="evenodd" d="M145.319 214.66L152.681 214.634C154.956 214.634 155.107 214.895 156.7 213.775C158.168 212.739 159.808 211.115 161.12 209.777C161.448 209.444 161.583 209.465 161.604 208.934C161.146 208.751 158.23 208.496 156.049 207.674C154.909 207.242 150.187 207.252 148.474 207.252C143.414 207.252 143.075 208.241 139.103 208.772C138.53 208.85 137.921 208.699 138.202 209.251C138.39 209.616 141.029 212.193 141.264 212.406C142.216 213.265 143.768 214.655 145.319 214.655" fill="white"/>
<path fill-rule="evenodd" clip-rule="evenodd" d="M170.855 111.219L175.202 112.672C178.43 113.796 182.402 115.535 185.464 117.139C186.068 117.456 186.859 118.029 187.572 118.17C187.202 117.118 184.048 114.27 183.095 113.422C182.309 112.719 178.17 109.46 178.076 109.231C178.383 108.658 179.346 107.684 179.888 107.096C182.996 103.723 186.245 99.8753 189.373 96.6006C190.071 95.8717 193.002 92.8834 193.21 92.4253C191.935 92.4826 185.136 96.9338 183.511 98.1C178.883 101.427 175.343 105.102 171.808 109.538C171.303 110.173 170.782 110.642 170.855 111.219Z" fill="#050007"/>
<path fill-rule="evenodd" clip-rule="evenodd" d="M112.172 118.191C112.963 118.066 113.635 117.498 114.228 117.196C115.878 116.348 118.705 114.994 120.314 114.38L128.961 111.105C128.909 110.569 128.347 110.007 128.019 109.59C124.271 104.873 123.469 104.202 119.158 100.453C117.612 99.1101 115.316 97.439 113.223 96.1114C112.12 95.4138 107.533 92.566 106.658 92.4307C106.888 92.9044 109.215 95.2368 109.589 95.6428L115.66 102.187C116.899 103.593 118.804 105.581 120.049 107.159C120.559 107.804 121.126 108.273 121.512 108.856C121.996 109.585 120.819 110.012 120.325 110.428C119.7 110.959 119.169 111.313 118.554 111.803C117.201 112.88 112.64 116.738 112.172 118.196" fill="#050007"/>
<path fill-rule="evenodd" clip-rule="evenodd" d="M161.817 37.2248C162.458 37.2248 162.978 37.6777 162.978 38.24C162.978 38.8023 162.458 39.2552 161.817 39.2552C161.177 39.2552 160.656 38.8023 160.656 38.24C160.656 37.6777 161.177 37.2248 161.817 37.2248ZM161.682 41.1034C162.322 41.1034 162.843 41.5563 162.843 42.1186C162.843 42.6808 162.322 43.1338 161.682 43.1338C161.042 43.1338 160.521 42.6808 160.521 42.1186C160.521 41.5563 161.042 41.1034 161.682 41.1034ZM152.327 41.2023C152.55 41.3116 153.243 41.3637 153.435 41.9676C154.117 44.0813 150.182 44.4457 151.322 41.2387C152.327 38.4222 154.69 36.0222 154.727 35.8972L151.863 35.8816C151.551 35.7515 148.828 39.9997 148.516 40.8899C146.485 46.6739 156.518 47.46 156.424 41.8999C156.382 39.25 153.498 38.9324 152.946 39.5988C152.743 39.8435 152.301 40.614 152.196 40.9992C152.17 41.0877 152.248 41.1554 152.327 41.1971V41.2023ZM143.263 40.1194C142.492 40.083 142.018 40.0673 141.883 39.3281C141.487 37.1623 145.304 37.0374 144.038 40.2964C143.466 41.7698 141.706 43.9147 140.67 45.3776L144.038 45.3932C144.908 44.352 146.761 41.6656 147.063 40.0465C147.636 36.9697 145.986 35.6994 142.987 35.7879C138.275 35.9233 137.609 41.2075 141.196 42.0301C141.633 42.129 141.883 42.1186 142.065 42.0196C142.378 41.8478 143.304 40.4266 143.263 40.1142V40.1194ZM131.46 39.4062C131.924 39.1719 132.778 38.6461 132.929 38.6148L132.601 45.1641C132.59 45.362 132.689 45.4349 132.871 45.4297C135.36 45.3672 135.12 45.4973 135.36 45.3672C135.422 45.3359 135.521 45.3255 135.573 44.2947C135.854 38.4274 136 36.6625 136.016 36.1315C136.016 35.9701 136.042 35.892 135.797 35.8972C133.355 35.9181 135.797 35.8972 133.355 35.9181C133.236 35.9181 132.049 36.7302 131.617 37.0374C131.596 37.053 131.58 37.0634 131.565 37.0738C131.544 37.0894 131.533 37.0999 131.533 37.1311C131.533 37.1363 131.533 37.1467 131.533 37.1519C131.466 39.3697 131.533 37.1155 131.466 39.4062H131.46ZM159.256 40.5047C158.085 41.2908 156.996 42.3268 157.694 43.8834C158.34 45.3151 159.766 45.6743 161.448 45.6743C165.805 45.6743 166.857 42.1134 164.66 40.8118L164.202 40.5047C164.676 40.0673 165.04 39.8851 165.342 39.2656C165.576 38.7866 165.576 37.7142 165.311 37.2144C164.321 35.3766 161.703 35.1476 159.86 35.9962C158.059 36.8239 156.996 38.6877 159.115 40.3901C159.136 40.4057 159.173 40.437 159.183 40.4474C159.199 40.4578 159.23 40.4838 159.256 40.5047Z" fill="#FAE4E5"/>
<path fill-rule="evenodd" clip-rule="evenodd" d="M128.951 148.495C128.852 148.849 129.04 151.65 126.379 150.739C125.775 150.531 125.338 149.989 125.234 149.323C124.901 147.157 127.301 147.548 125.796 146.887C125.645 146.819 124.989 146.559 124.833 146.533C123.828 146.371 121.48 148.625 122.105 151.765C122.24 152.447 122.849 152.676 123.381 153.025C124.807 153.967 127.582 155.3 129.269 154.326C130.357 153.701 131.184 152.592 131.419 151.249C131.627 150.057 131.45 149.948 130.716 149.443C130.305 149.156 129.56 148.553 128.951 148.495Z" fill="white"/>
<path fill-rule="evenodd" clip-rule="evenodd" d="M173.489 147.225C173.666 147.855 174.479 147.491 174.484 148.86C174.494 151.432 171.844 150.927 171.376 150.5C170.787 149.964 170.866 149.401 170.793 148.496C170.215 148.532 168.544 149.688 168.382 149.938C167.877 150.719 168.892 156.456 174.463 154.035C175.374 153.639 176.082 153.15 176.92 152.64C177.909 152.036 177.821 150.463 177.581 149.568C177.233 148.251 177.035 147.985 176.16 147.121C175.832 146.798 175.489 146.392 174.817 146.543C174.328 146.653 173.692 146.929 173.489 147.22" fill="white"/>
<path fill-rule="evenodd" clip-rule="evenodd" d="M114.436 79.2017L117.086 81.8516C117.211 81.9766 117.201 82.0703 117.409 82.0703H119.361C119.596 82.0703 119.648 81.9141 119.497 81.7839C119.164 81.4872 116.404 79.0819 116.357 78.9778C116.29 78.8268 116.29 78.7227 116.41 78.603C117.393 77.7648 118.383 76.9214 119.367 76.0832C119.408 76.0468 119.46 75.9427 119.372 75.9427H117.388C117.357 75.9531 117.326 75.9635 117.295 75.9739C116.347 76.8277 115.394 77.6763 114.447 78.5301C114.296 78.6655 114.306 78.8581 114.343 79.0403C114.364 79.1392 114.369 79.1288 114.436 79.1965M119.726 76.1092C120.564 77.1296 121.407 78.1553 122.246 79.1809C122.48 79.4672 122.423 79.3995 122.397 79.7692C122.339 80.5501 122.266 80.9509 122.141 81.6954C122.11 81.8828 122.141 82.164 122.636 82.164H123.792C124.177 82.164 124.224 82.0026 124.24 81.7423C124.25 81.1384 124.26 80.5345 124.271 79.9305C124.271 79.6546 124.24 79.7015 124.422 79.5036C125.463 78.3947 126.509 77.291 127.551 76.1821C127.634 76.0936 127.65 75.9479 127.493 75.9479C126.874 75.9479 126.26 75.9479 125.64 75.9479C125.609 75.9739 125.578 75.9791 125.541 76.0051C125.484 76.0572 125.432 76.1093 125.374 76.1613C124.802 76.8641 124.224 77.5722 123.651 78.275C123.625 78.3062 123.594 78.3375 123.568 78.3739C123.49 78.3479 123.412 78.3166 123.334 78.2906C123.276 78.2177 123.214 78.1448 123.157 78.0772C122.693 77.39 122.23 76.7027 121.767 76.0207C121.715 75.9999 121.657 75.9791 121.605 75.9583C121.007 75.9479 120.397 75.9687 119.799 75.9583C119.7 75.9583 119.663 76.0468 119.731 76.1249L119.726 76.1092ZM128.233 75.9479C128.196 75.9687 128.155 75.9895 128.118 76.0103C128.092 76.0416 128.066 76.078 128.04 76.1092V76.9162C128.04 76.9162 128.05 76.9579 128.05 76.9787C128.092 76.9995 128.134 77.0151 128.17 77.0359C129.487 76.9891 130.804 76.937 132.122 76.8902C132.148 76.9422 132.174 76.9891 132.205 77.0411C132.179 77.0984 132.158 77.1557 132.132 77.2182C130.581 78.5301 129.029 79.8472 127.478 81.1592V82.0703C127.509 82.1015 127.54 82.1327 127.571 82.1588H134.251C134.287 82.1327 134.319 82.1067 134.355 82.0859C134.381 82.039 134.407 81.9974 134.438 81.9505V81.2113C134.397 81.1696 134.36 81.128 134.319 81.0915C134.225 81.0707 134.131 81.0499 134.032 81.029H130.029C130.07 80.9562 130.112 80.8781 130.149 80.8052C131.591 79.5974 133.033 78.3843 134.475 77.1765C134.537 77.1244 134.6 77.0724 134.662 77.0203V76.0155C132.517 75.9947 130.367 75.9739 128.222 75.9531L128.233 75.9479ZM143.893 75.8906H145.402C145.715 75.8906 145.658 76.0884 145.647 76.3279C145.559 77.7752 145.434 79.3058 145.33 80.7896C145.304 81.1748 145.366 81.0551 145.73 81.1019C146.746 81.0551 147.667 81.1175 148.667 81.0915C149.5 81.0707 149.474 82.0963 148.786 82.0963H143.518C143.138 81.987 143.143 81.7579 143.179 81.4143C143.341 79.7015 143.502 77.9887 143.658 76.2758C143.684 76.0207 143.632 75.9374 143.898 75.8958L143.893 75.8906ZM135.047 76.1092C135.886 77.1296 136.729 78.1553 137.567 79.1809C137.802 79.4672 137.744 79.3995 137.718 79.7692C137.661 80.5501 137.588 80.9509 137.463 81.6954C137.432 81.8828 137.463 82.164 137.958 82.164H139.113C139.499 82.164 139.546 82.0026 139.561 81.7423C139.572 81.1384 139.582 80.5345 139.592 79.9305C139.592 79.6546 139.561 79.7015 139.743 79.5036C140.785 78.3947 141.831 77.291 142.872 76.1821C142.956 76.0936 142.971 75.9479 142.815 75.9479C142.195 75.9479 141.581 75.9479 140.962 75.9479C140.93 75.9739 140.899 75.9791 140.863 76.0051C140.805 76.0572 140.753 76.1093 140.696 76.1613C140.123 76.8641 139.546 77.5722 138.973 78.275C138.947 78.3062 138.916 78.3375 138.89 78.3739C138.811 78.3479 138.733 78.3166 138.655 78.2906C138.598 78.2177 138.536 78.1448 138.478 78.0772C138.015 77.39 137.552 76.7027 137.088 76.0207C137.036 75.9999 136.979 75.9791 136.927 75.9583C136.328 75.9479 135.719 75.9687 135.12 75.9583C135.021 75.9583 134.985 76.0468 135.053 76.1249L135.047 76.1092ZM154.695 76.8069C156.32 76.8069 157.642 77.8481 157.642 79.134C157.642 80.4199 156.325 81.2477 154.695 81.2477C153.066 81.2477 151.749 80.4147 151.749 79.134C151.749 77.8533 153.066 76.8069 154.695 76.8069ZM154.753 75.8125C157.47 75.8125 159.672 77.3015 159.672 79.1392C159.672 80.977 157.47 82.4659 154.753 82.4659C152.035 82.4659 149.833 80.977 149.833 79.1392C149.833 77.3015 152.035 75.8125 154.753 75.8125ZM161.057 76.7548C160.958 78.4312 160.854 80.1076 160.755 81.7839C160.755 81.8308 160.76 81.8828 160.766 81.9297C160.797 81.9766 160.833 82.0182 160.865 82.0651C160.891 82.0859 160.917 82.1067 160.948 82.1275H162.614C162.624 82.0911 162.635 82.0546 162.645 82.0234C162.666 81.9401 162.687 81.862 162.708 81.7787C162.708 80.295 162.807 78.806 162.807 77.3275C162.801 76.8693 162.921 76.9474 163.515 76.9474C163.994 76.9474 165.056 76.937 165.243 77.0255C166.086 77.4368 165.993 78.275 165.014 78.5978C164.738 78.6863 163.947 78.655 163.509 78.6446C163.312 78.6446 163.358 78.6238 163.358 78.8321C163.358 78.9882 163.384 78.983 163.473 79.1132C164.092 80.0399 164.712 80.9718 165.331 81.8985C165.519 82.1119 165.571 82.0755 165.836 82.0755H167.128C167.482 82.0755 167.497 81.8776 167.299 81.6434C167.081 81.3883 165.545 79.4984 165.524 79.3162C165.514 79.2537 165.524 79.1965 165.587 79.1913C165.941 79.1757 166.227 79.1496 166.482 79.0611C168.086 78.4989 168.762 76.3071 165.805 75.927H161.396C161.094 75.927 161.094 76.255 161.068 76.7392L161.057 76.7548ZM170.897 77.3171C170.829 78.5665 170.725 79.6807 170.657 80.9353C170.746 81.206 170.923 81.1175 171.235 81.1384C171.745 81.1384 172.25 81.128 172.761 81.1227C175.426 81.1019 176.27 77.796 174.031 76.9891C173.635 76.8485 172.079 76.9266 171.391 76.9162C170.996 76.9162 170.954 76.9631 170.897 77.3119V77.3171ZM168.778 81.7631C168.799 82.2056 168.971 82.1588 169.361 82.1588H173.765C177.972 82.1588 178.8 75.9427 174.083 75.9427H169.845C169.153 75.9427 169.049 75.9895 169.023 76.734C168.971 78.3687 168.861 80.0034 168.783 81.6382C168.783 81.6798 168.783 81.7215 168.778 81.7631ZM181.45 78.577C181.819 78.0511 182.194 77.5253 182.564 76.9995C182.715 76.8225 182.819 76.9058 182.897 77.0776C183.1 77.5357 183.303 77.9991 183.506 78.4572C183.652 78.8529 183.47 78.931 183.074 78.9362C182.657 78.9362 182.251 78.9518 181.819 78.9518C181.59 78.9518 181.34 78.8581 181.444 78.577H181.45ZM177.634 81.5288C178.93 79.7379 180.231 77.9418 181.528 76.1509C181.684 75.9427 181.814 75.9322 182.116 75.9427C182.574 75.9531 183.032 75.9374 183.49 75.9427C184.027 75.9427 184.053 76.0988 184.313 76.5153C185.177 78.2177 186.036 79.9201 186.9 81.6225C187.083 81.9818 187.031 82.164 186.593 82.1588C186.229 82.1588 185.88 82.1588 185.531 82.1588C185.115 82.1588 185.068 82.1067 184.901 81.7527C184.615 81.1332 184.329 80.5136 184.037 79.8993C182.959 79.8993 181.877 79.9097 180.799 79.9097C180.398 80.5136 179.997 81.1175 179.601 81.7215C179.378 82.0599 179.44 82.1588 178.992 82.1588H177.696C177.04 82.1588 177.467 81.7735 177.639 81.5288H177.634ZM112.208 82.0807H113.728C113.947 82.0807 114.051 81.9974 114.056 81.7839C114.082 80.7791 114.103 79.7796 114.129 78.7748C114.192 77.947 114.249 77.1192 114.311 76.2915C114.311 76.2394 114.306 76.1925 114.301 76.1405C114.244 75.9739 114.213 75.9427 114.036 75.9427H112.708C112.396 75.9427 112.26 76.0676 112.245 76.3852C112.156 78.1813 112.068 79.9774 111.979 81.7735C111.99 81.9557 111.99 82.0755 112.213 82.0755L112.208 82.0807Z" fill="white"/>
</g>
<defs>
<clipPath id="clip0_1444_13322">
<rect width="247.728" height="270" fill="white" transform="translate(26 15)"/>
</clipPath>
</defs>
</svg>
