<svg width="225" height="225" viewBox="0 0 225 225" fill="none" xmlns="http://www.w3.org/2000/svg">
<path d="M182.344 37.9689C168.67 24.2552 151.239 14.9017 132.252 11.0899C113.265 7.27811 93.574 9.17904 75.6668 16.5526C57.7597 23.9261 42.4395 36.4414 31.6417 52.5176C20.8439 68.5937 15.0528 87.5094 15 106.875C14.7864 124.026 19.3295 140.9 28.125 155.625L14.0625 206.25L66.0938 192.656C80.4502 200.531 96.5957 204.567 112.969 204.375C132.282 204.454 151.183 198.795 167.275 188.116C183.367 177.437 195.926 162.22 203.358 144.394C210.789 126.568 212.759 106.936 209.018 87.9891C205.277 69.0418 195.993 51.6324 182.344 37.9689ZM112.969 187.969C97.1553 188.082 81.6616 183.516 68.4375 174.844L37.5 183.281L45.9375 153.281C36.6192 139.586 31.5631 123.439 31.4062 106.875C31.3134 90.724 36.018 74.9089 44.9236 61.4345C53.8291 47.9601 66.5348 37.4331 81.43 31.1879C96.3251 24.9426 112.739 23.2604 128.592 26.3544C144.444 29.4483 159.021 37.1792 170.474 48.567C181.928 59.9549 189.743 74.4869 192.928 90.3212C196.113 106.155 194.526 122.579 188.366 137.51C182.207 152.441 171.754 165.207 158.331 174.19C144.908 183.173 129.12 187.969 112.969 187.969Z" fill="white"/>
<path d="M157.5 127.5C152.063 124.463 146.425 121.801 140.625 119.532C138.75 118.594 136.875 118.125 135.469 120.469C134.063 122.813 128.907 128.438 127.5 130.313C126.866 131.039 125.976 131.492 125.016 131.58C124.056 131.667 123.099 131.381 122.344 130.782C115.161 127.82 108.511 123.703 102.657 118.594C97.2806 113.705 92.6949 108.013 89.0629 101.719C88.8032 101.354 88.6209 100.94 88.5273 100.502C88.4336 100.064 88.4306 99.6118 88.5185 99.1726C88.6063 98.7335 88.7831 98.317 89.0379 97.9488C89.2928 97.5806 89.6203 97.2684 90.0004 97.0315L93.7504 92.344C94.6973 91.2055 95.4857 89.9441 96.0941 88.594C96.4644 87.9527 96.6593 87.2252 96.6593 86.4846C96.6593 85.7441 96.4644 85.0166 96.0941 84.3753C95.1566 82.969 90.4691 71.2503 88.5941 66.094C86.7191 60.9378 84.3754 61.8753 82.9691 61.8753H78.2816C77.0049 61.8564 75.7423 62.1446 74.6003 62.7157C73.4582 63.2867 72.4701 64.1238 71.7191 65.1565C68.9225 67.6934 66.7173 70.8136 65.2593 74.2965C63.8014 77.7795 63.1262 81.5402 63.2816 85.3128C64.0988 94.5124 67.5126 103.291 73.1254 110.625C74.5316 112.032 90.4691 136.875 114.844 147.188C119.353 149.36 124.062 151.087 128.907 152.344C133.892 154.006 139.226 154.329 144.375 153.282C149.063 152.813 158.907 147.656 160.782 142.031C162.657 136.406 163.125 131.25 162.188 130.313C160.922 128.952 159.297 127.976 157.5 127.5Z" fill="white"/>
</svg>
