<svg width="300" height="300" viewBox="0 0 300 300" fill="none" xmlns="http://www.w3.org/2000/svg">
<g clip-path="url(#clip0_1444_13146)">
<path fill-rule="evenodd" clip-rule="evenodd" d="M149.997 15C229.523 15 293.995 75.4419 293.995 149.998C293.995 224.553 229.523 284.995 149.997 284.995C70.4714 284.995 6 224.558 6 149.998C6 75.437 70.4714 15 149.997 15Z" fill="#D8B477"/>
<path fill-rule="evenodd" clip-rule="evenodd" d="M149.997 20.7378C226.145 20.7378 287.88 78.6092 287.88 150.003C287.88 221.396 226.15 279.267 149.997 279.267C73.8444 279.267 12.1201 221.391 12.1201 149.998C12.1201 78.6043 73.8495 20.7378 149.997 20.7378Z" fill="#046748"/>
<path fill-rule="evenodd" clip-rule="evenodd" d="M139.345 163.316L91.3306 208.33L87.7764 204.998L135.791 159.984L139.345 163.316ZM132.242 156.657L84.2274 201.671L80.6785 198.343L128.693 153.33L132.242 156.657ZM212.218 94.9976L164.204 140.011L160.649 136.679L208.664 91.6656L212.218 94.9976ZM205.115 88.3384L157.1 133.352L153.551 130.025L201.566 85.0112L205.115 88.3384ZM219.321 101.657L171.307 146.67L167.758 143.343L215.772 98.3296L219.321 101.657ZM164.209 159.994L212.218 205.003L208.664 208.335L160.655 163.326L164.209 159.994ZM157.1 153.33L160.649 156.657L157.095 159.989L153.546 156.662L157.1 153.33ZM149.997 146.67L153.551 150.003L149.997 153.335L146.443 150.003L149.997 146.67ZM142.899 140.011L146.448 143.338L142.894 146.67L139.345 143.343L142.899 140.011ZM91.3306 91.6656L139.34 136.674L135.786 140.006L87.7764 94.9976L91.3306 91.6656ZM157.106 166.653L205.115 211.662L201.566 214.989L153.557 169.98L157.106 166.653ZM149.997 159.989L153.546 163.316L149.997 166.643L146.448 163.316L149.997 159.989ZM142.894 153.33L146.448 156.662L142.899 159.989L139.345 156.657L142.894 153.33ZM135.791 146.67L139.34 149.998L135.791 153.325L132.242 149.998L135.791 146.67ZM84.2274 98.3247L132.237 143.334L128.688 146.661L80.6785 101.652L84.2274 98.3247ZM171.312 153.335L219.321 198.343L215.772 201.671L167.763 156.662L171.312 153.335ZM164.204 146.67L167.753 149.998L164.204 153.325L160.655 149.998L164.204 146.67ZM157.1 140.011L160.655 143.343L157.106 146.67L153.551 143.338L157.1 140.011ZM149.997 133.352L153.546 136.679L149.997 140.006L146.448 136.679L149.997 133.352ZM98.4337 85.0112L146.443 130.02L142.894 133.347L94.8847 88.3384L98.4337 85.0112ZM146.448 169.975L98.4337 214.989L94.8847 211.662L142.899 166.648L146.448 169.975Z" fill="#D8B477"/>
<path fill-rule="evenodd" clip-rule="evenodd" d="M218.742 108.287C236.244 133.58 236.244 166.41 218.747 191.704L215.198 188.376C230.889 164.989 230.894 134.996 215.193 111.609L218.742 108.282V108.287ZM81.2477 191.699C63.7563 166.405 63.7615 133.585 81.2477 108.296L84.7967 111.624C69.1057 135.006 69.1057 164.989 84.7915 188.376L81.2425 191.704L81.2477 191.699ZM194.484 214.45C167.504 230.854 132.485 230.849 105.506 214.446L109.055 211.118C134.001 225.839 165.994 225.834 190.94 211.123L194.489 214.45H194.484ZM105.511 85.5495C132.485 69.1513 167.499 69.1464 194.474 85.5495L190.925 88.8766C165.983 74.1711 133.996 74.1711 109.055 88.8815L105.506 85.5543L105.511 85.5495Z" fill="#D8B477"/>
<path fill-rule="evenodd" clip-rule="evenodd" d="M202.27 163.088C202.27 190.146 178.865 212.093 149.997 212.093C121.13 212.093 97.7251 190.151 97.7251 163.088C97.7251 140.612 112.79 135.675 98.8839 111.89C97.3733 109.305 98.0976 106.051 100.591 104.251C127.048 85.1565 172.947 85.1565 199.399 104.251C201.892 106.051 202.617 109.3 201.106 111.89C187.2 135.67 202.265 140.608 202.265 163.088" fill="#046748"/>
<path fill-rule="evenodd" clip-rule="evenodd" d="M198.017 163.005C198.017 187.867 176.516 208.024 149.997 208.024C123.478 208.024 101.978 187.867 101.978 163.005C101.978 141.912 117.337 135.5 102.65 110.382C102.065 109.383 102.34 108.156 103.302 107.462C128.176 89.5118 171.819 89.507 196.693 107.462C197.655 108.156 197.929 109.383 197.345 110.382C182.652 135.505 198.017 141.912 198.017 163.005Z" fill="white"/>
<path fill-rule="evenodd" clip-rule="evenodd" d="M171.54 138.988C168.844 141.394 167.722 145.085 168.11 149.028C156.878 142.97 144.803 149.387 144.803 158.073C144.803 164.514 149.444 168.801 156.599 168.501C157.975 168.443 158.43 167.55 157.571 166.818C154.219 163.966 156.599 159.315 160.862 159.315C167.841 159.315 170.551 168.462 163.422 174.505C155.621 181.116 145.346 180.209 137.943 173.928C129.759 166.988 127.995 154.101 136.526 145.07C143.132 138.071 151.58 137.659 159.082 138.42C159.356 135.166 166.159 131.32 151.963 127.343C145.497 125.534 141.554 121.848 140.271 116.134C145.729 114.728 151.265 114.291 157.054 115.688C161.7 116.808 161.038 121.314 159.361 122.488C158.534 123.065 158.973 124.171 160.67 124.234C166.356 124.452 168.741 120.81 168.736 116.935C172.228 115.994 174.582 114.049 176.304 111.536C160.437 103.805 141.275 103.602 125.186 110.838C126.184 119.888 132.046 129.254 142.827 131.485V131.97C128.202 135.064 117.488 147.408 117.488 162.171C117.488 180.548 133.21 193.12 149.992 193.12C168.88 193.12 182.497 178.288 182.497 162.171C182.497 152.335 177.836 144.381 171.529 138.993" fill="#EA0A2A"/>
<path fill-rule="evenodd" clip-rule="evenodd" d="M69.2763 212.52L71.0766 216.817L75.5879 214.974L73.622 219.203L78.2056 220.891L73.622 222.579L75.5879 226.808L71.0766 224.965L69.2763 229.263L67.4759 224.965L62.9647 226.808L64.9306 222.579L60.3469 220.891L64.9306 219.203L62.9647 214.974L67.4759 216.817L69.2763 212.52ZM230.724 212.52L232.524 216.817L237.035 214.974L235.069 219.203L239.653 220.891L235.069 222.579L237.035 226.808L232.524 224.965L230.724 229.263L228.923 224.965L224.412 226.808L226.378 222.579L221.794 220.891L226.378 219.203L224.412 214.974L228.923 216.817L230.724 212.52Z" fill="#D8B477"/>
<path d="M241.774 189.676L240.283 192.354L256.469 200.274L257.96 197.595L241.774 189.676Z" fill="white"/>
<path d="M239.337 93.6539L233.569 97.015L231.867 94.4493L247.377 85.4185L249.074 87.9842L242.007 92.097L242.773 93.2562L253.523 94.6967L255.634 97.8832L244.49 96.37L240.31 107.191L238.215 104.028L241.065 96.2633L239.337 93.6539Z" fill="white"/>
<path d="M185.363 56.7932C185.989 58.2627 187.158 59.3395 188.871 60.0233C190.583 60.7072 192.218 60.746 193.775 60.1446C195.332 59.5432 196.486 58.4082 197.241 56.7398C197.997 55.0714 198.069 53.5048 197.448 52.0352C196.833 50.5656 195.663 49.4938 193.951 48.8099C192.238 48.126 190.599 48.0872 189.036 48.6838C187.474 49.2804 186.31 50.4153 185.554 52.0837C184.799 53.7522 184.732 55.3187 185.363 56.7932ZM187.65 45.8901C190.009 45.0414 192.502 45.1432 195.141 46.1957C197.774 47.2482 199.585 48.8584 200.563 51.0361C201.54 53.2138 201.473 55.5273 200.361 57.9863C199.249 60.4404 197.515 62.0943 195.167 62.9479C192.818 63.7967 190.324 63.6997 187.686 62.6472C185.047 61.5996 183.237 59.9845 182.254 57.802C181.266 55.6243 181.333 53.3059 182.445 50.8469C183.557 48.3928 185.296 46.7389 187.65 45.8901Z" fill="white"/>
<path d="M146.262 41.2827L146.873 55.5905L143.65 55.7117L143.044 41.3991L136.391 41.6513L136.272 38.8577L152.796 38.2417L152.915 41.0305L146.262 41.2827Z" fill="white"/>
<path d="M45.706 104.562L51.133 110.367L53.937 104.761L45.706 104.562ZM53.2282 112.589L55.9236 115.44L54.3716 118.54L41.2776 104.169L42.5554 101.618L62.706 101.884L61.1798 104.94L57.0928 104.867L53.2282 112.593V112.589Z" fill="white"/>
<path d="M40.8017 125.975L50.9312 132.416L50.4967 135.049L38.7633 138.314L49.581 140.574L49.0999 143.484L31.2205 139.895L31.6809 137.082L46.8908 133.177L33.652 125.17L34.1228 122.333L52.3229 123.982L51.8418 126.892L40.8017 125.975Z" fill="white"/>
<path d="M49.2494 150.718L30.9924 150.772L31.0026 153.794L49.2595 153.74L49.2494 150.718Z" fill="white"/>
<path d="M49.2188 194.876L45.5612 187.28L48.2566 186.141L51.909 193.736L56.1668 191.936L52.0487 183.376L54.7648 182.227L60.2072 193.537L43.5643 200.579L38.1218 189.264L40.8431 188.115L44.9611 196.675L49.2188 194.876Z" fill="white"/>
<path d="M256.317 178.875L255.179 182.13C254.811 183.182 254.211 183.953 253.373 184.433C252.535 184.918 251.614 185.006 250.61 184.7C249.591 184.385 248.908 183.813 248.572 182.974C248.231 182.134 248.251 181.184 248.624 180.117C249.048 178.904 249.462 177.832 249.86 176.896L256.317 178.875ZM245.897 178.933C245.199 180.927 245.184 182.707 245.841 184.278C246.498 185.85 247.755 186.917 249.607 187.489C251.428 188.047 253.12 187.877 254.687 186.98C256.255 186.082 257.382 184.647 258.071 182.668L259.1 179.724L264.511 181.383L265.515 178.511L248.163 173.186C247.196 175.466 246.446 177.381 245.903 178.929L245.897 178.933Z" fill="white"/>
<path d="M259.793 156.967L259.421 160.372C259.203 162.37 258.039 164.034 255.737 163.815C253.394 163.592 252.737 161.759 252.954 159.751C253.094 158.48 253.254 157.35 253.435 156.356L259.793 156.967ZM250.031 159.14C249.627 162.84 251.076 166.328 255.396 166.74C259.648 167.147 261.971 164 262.375 160.323L262.711 157.243L265.81 157.539L264.848 166.337L267.812 166.623L268.774 157.825L269.1 154.823L266.136 154.537L250.936 153.077C250.512 155.497 250.207 157.52 250.031 159.14Z" fill="white"/>
<path d="M163.795 47.646L167.401 48.1941C169.517 48.5142 171.219 49.6976 170.852 51.8413C170.474 54.019 168.487 54.5283 166.366 54.2082C165.021 54.0045 163.826 53.7911 162.781 53.5631L163.8 47.6508L163.795 47.646ZM165.544 56.9097C169.46 57.5014 173.257 56.3471 173.95 52.3312C174.633 48.3735 171.41 46.0164 167.525 45.4295L164.266 44.9348L164.762 42.0538L174.08 43.4652L174.556 40.7055L165.238 39.2941L162.057 38.814L161.581 41.5737L159.144 55.7117C161.7 56.2501 163.831 56.6526 165.544 56.9097Z" fill="white"/>
<path d="M250.243 115.46C247.092 116.474 243.678 114.946 242.597 111.992L245.67 111.003C246.166 112.366 247.749 113.093 249.203 112.623C253.057 111.381 256.912 110.144 260.766 108.903C262.256 112.977 263.751 117.051 265.241 121.125L247.972 126.683L246.937 123.851L261.387 119.2L258.986 112.642L250.243 115.455V115.46Z" fill="white"/>
<path d="M210.511 67.4972C208.566 70.0338 204.841 70.6352 202.135 68.8116L204.034 66.338C205.281 67.182 207.019 66.9152 207.919 65.7463C210.299 62.6471 212.684 59.5431 215.064 56.4438C218.794 58.961 222.524 61.4782 226.249 63.9954L215.581 77.8861L212.989 76.1352L221.913 64.5096L215.912 60.4597L210.511 67.4924V67.4972Z" fill="white"/>
<path d="M45.8199 172.051C49.0844 171.43 52.2557 173.355 52.9231 176.416L49.7414 177.022C49.4362 175.611 47.9669 174.699 46.4614 174.985C42.4675 175.747 38.4737 176.508 34.4798 177.27C33.5641 173.05 32.6484 168.825 31.7327 164.606L49.6224 161.196L50.2587 164.131L35.2868 166.982L36.7612 173.773L45.8199 172.046V172.051Z" fill="white"/>
<path d="M97.6371 63.8548L93.7519 57.215L93.7001 57.1229L93.2966 57.3266C91.2893 58.3596 90.2908 60.5325 91.4911 62.5889C92.6758 64.6114 95.2367 65.0867 97.2336 64.0585L97.6319 63.85L97.6371 63.8548ZM96.6956 55.5805L96.7473 55.6727L100.633 62.3125L101.031 62.1039C103.028 61.0757 103.975 58.7913 102.795 56.7737C101.59 54.7172 99.096 54.3438 97.0939 55.372L96.6956 55.5805ZM93.9847 50.9438L95.1746 52.9712L95.2522 52.9324C98.946 51.0311 103.499 51.4483 105.718 55.241C107.906 58.9756 105.884 62.9381 102.21 64.8248L102.133 64.8636L103.323 66.891L100.322 68.4333L99.1323 66.406L99.0546 66.4448C95.3867 68.3314 90.7358 67.8028 88.5474 64.0682C86.328 60.2754 88.3974 56.4536 92.0964 54.5523L92.174 54.5135L90.9841 52.4862L93.9847 50.9438Z" fill="white"/>
<path d="M53.7404 81.2522C54.6095 80.8884 55.3442 80.3549 55.9701 79.6128C56.5858 78.895 56.9945 78.0851 57.1807 77.2072C57.367 76.3342 57.3411 75.4612 57.098 74.593L54.744 75.0586C54.9303 75.6212 54.9768 76.1838 54.863 76.7222C54.7544 77.2606 54.5009 77.7601 54.1077 78.2209C53.7145 78.6816 53.2489 79.0211 52.7161 79.2394C52.178 79.4576 51.6089 79.5546 50.9778 79.511L50.9985 81.7857C51.9556 81.8148 52.8661 81.645 53.7352 81.2813V81.2473L53.7404 81.2522ZM51.8935 86.3884L66.1618 97.0683L68.0708 94.8276L64.3666 79.9766L74.3565 87.4506L76.3638 85.0886L62.0955 74.4087L60.2382 76.5912L63.9838 91.6023L53.8904 84.0507L51.8987 86.3933L51.8935 86.3884Z" fill="white"/>
<path d="M269.256 146.748L268.904 143.479L258.241 140.224L267.895 134.142L267.533 130.791L255.034 138.886L254.868 138.813C254.294 138.566 253.72 138.255 253.295 137.804C252.892 137.377 252.711 136.834 252.649 136.276C252.613 135.927 252.613 135.564 252.695 135.219L249.876 134.831C249.824 135.074 249.788 135.316 249.783 135.564C249.772 135.952 249.783 136.34 249.829 136.723C249.959 137.911 250.331 139.119 251.19 140.03C252.044 140.942 253.233 141.519 254.449 141.903L269.261 146.738L269.256 146.748Z" fill="white"/>
<path d="M127.41 40.1719L124.027 41.0255L122.314 51.4144L114.358 43.4602L110.886 44.3333L121.414 54.5961L121.368 54.761C121.197 55.3333 120.964 55.9153 120.561 56.3809C120.178 56.8223 119.629 57.0793 119.055 57.2248C118.693 57.317 118.315 57.3752 117.938 57.3509L117.979 60.0233C118.243 60.033 118.502 60.0233 118.765 59.9942C119.174 59.9409 119.583 59.8681 119.981 59.7663C121.212 59.4559 122.423 58.9175 123.246 57.9766C124.068 57.0405 124.487 55.8425 124.689 54.6591L127.4 40.1767L127.41 40.1719Z" fill="white"/>
<path d="M173.847 249.007L182.507 247.135L183.175 249.832L174.514 251.704L175.564 255.972L185.322 253.862L185.994 256.583L173.097 259.377L168.989 242.697L181.886 239.909L182.559 242.63L172.797 244.739L173.847 249.007Z" fill="white"/>
<path d="M156.097 251.074L150.706 261.375L147.861 261.336L142.781 250.899L141.901 261.259L138.761 261.215L140.064 244.114L143.101 244.157L149.34 257.733L155.957 244.327L159.02 244.366L159.806 261.497L156.666 261.453L156.097 251.074Z" fill="white"/>
<path d="M119.531 247.378L128.062 249.711L127.239 252.369L118.703 250.036L117.4 254.241L127.012 256.87L126.179 259.552L113.473 256.079L118.579 239.647L131.285 243.12L130.452 245.802L120.84 243.173L119.531 247.378Z" fill="white"/>
<path d="M109.567 236.974L107.632 239.234C105.899 237.852 104.445 236.872 103.276 236.295C101.264 235.306 99.4322 235.025 97.7871 235.456C96.1419 235.888 94.8744 236.892 93.9949 238.468C93.0792 240.103 92.893 241.689 93.4414 243.226C93.9846 244.764 95.1693 245.981 96.9904 246.878C98.3199 247.533 100.136 248.139 102.428 248.702L101.641 251.302C99.2822 250.86 97.2128 250.201 95.4383 249.328C92.7585 248.008 91.0099 246.223 90.1925 243.963C89.3751 241.703 89.6285 239.385 90.9633 237.008C92.2877 234.646 94.1708 233.143 96.623 232.503C99.0752 231.862 101.646 232.202 104.342 233.526C106.246 234.462 107.984 235.611 109.567 236.979" fill="white"/>
<path d="M193.511 233.089C194.463 233.084 195.363 232.871 196.258 232.43C197.128 232.003 197.847 231.416 198.395 230.684C198.938 229.951 199.29 229.141 199.44 228.259L197.086 227.803C197.014 228.39 196.817 228.918 196.486 229.369C196.155 229.82 195.71 230.184 195.156 230.461C194.603 230.732 194.029 230.873 193.444 230.873C192.859 230.873 192.296 230.747 191.737 230.47L190.78 232.561C191.644 232.944 192.549 233.133 193.501 233.128L193.511 233.094V233.089ZM189.621 237.1L198.121 252.252L200.832 250.918L203.796 235.922L209.746 246.524L212.596 245.118L204.096 229.971L201.458 231.271L198.462 246.427L192.451 235.713L189.621 237.105V237.1Z" fill="white"/>
</g>
<defs>
<clipPath id="clip0_1444_13146">
<rect width="288" height="270" fill="white" transform="translate(6 15)"/>
</clipPath>
</defs>
</svg>
