<svg width="300" height="300" viewBox="0 0 300 300" fill="none" xmlns="http://www.w3.org/2000/svg">
<g clip-path="url(#clip0_1444_12891)">
<path opacity="0.865" fill-rule="evenodd" clip-rule="evenodd" d="M166.301 50.9233C166.557 50.9233 166.811 50.9233 167.066 50.9233C167.074 51.3932 167.151 51.8526 167.296 52.3015C168.536 55.8315 169.632 59.4046 170.587 63.0208C174.825 63.0666 179.06 63.0156 183.291 62.8677C183.331 63.094 183.28 63.2981 183.138 63.4802C179.763 65.8827 176.446 68.3584 173.189 70.9071C174.436 75.0144 175.763 79.0724 177.168 83.0811C176.913 83.2852 176.659 83.2852 176.403 83.0811C173.186 80.6016 169.945 78.1515 166.684 75.7308C163.379 78.1622 160.088 80.6123 156.811 83.0811C156.629 83.2234 156.426 83.2744 156.199 83.2342C157.44 79.1135 158.767 75.0043 160.179 70.9071C156.876 68.3427 153.508 65.8671 150.077 63.4802C149.934 63.2981 149.883 63.094 149.924 62.8677C154.205 63.0156 158.49 63.0667 162.781 63.0208C162.788 62.5509 162.865 62.0916 163.01 61.6426C163.981 58.675 164.95 55.7144 165.918 52.7609C166.094 52.1565 166.223 51.544 166.301 50.9233Z" fill="#0497A8"/>
<path fill-rule="evenodd" clip-rule="evenodd" d="M169.668 64.2459C169.668 64.2969 169.668 64.3479 169.668 64.399C172.78 64.5011 175.893 64.6032 179.005 64.7052C176.501 66.6206 174.002 68.5348 171.505 70.4477C172.682 73.5607 173.653 76.6999 174.413 79.8653C171.848 77.9062 169.272 75.9666 166.684 74.0463C164.088 75.9032 161.51 77.7918 158.954 79.7122C158.845 79.3652 158.871 79.008 159.031 78.6403C159.957 75.9352 160.849 73.2044 161.709 70.4477C159.171 68.411 156.569 66.4459 153.903 64.5521C157.142 64.3994 160.407 64.3484 163.699 64.399C163.699 64.2459 163.699 64.0927 163.699 63.9396C164.676 60.9339 165.67 57.9223 166.684 54.9048C167.697 58.0223 168.692 61.1359 169.668 64.2459Z" fill="#F1F8F0"/>
<path fill-rule="evenodd" clip-rule="evenodd" d="M172.27 69.2991C172.042 69.4988 171.788 69.6774 171.505 69.8351C171.306 69.9582 171.204 70.1369 171.199 70.3711C172.05 73.1058 172.918 75.8368 173.801 78.5636C173.747 78.7561 173.645 78.8073 173.495 78.7168C172.904 78.2525 172.342 77.7676 171.811 77.262C172.182 77.0867 172.488 77.1888 172.73 77.5683C172.78 77.4661 172.832 77.3641 172.883 77.262C172.157 74.9938 171.442 72.7222 170.74 70.4476C170.9 69.8273 171.283 69.3935 171.888 69.146C171.99 69.2612 172.117 69.3123 172.27 69.2991Z" fill="#FFC525"/>
<path fill-rule="evenodd" clip-rule="evenodd" d="M169.362 64.7056C172.27 64.7056 175.179 64.7056 178.087 64.7056C178.124 64.9033 178.071 65.0564 177.934 65.165C175.105 64.9104 172.249 64.7572 169.362 64.7056Z" fill="#FFEEAF"/>
<path fill-rule="evenodd" clip-rule="evenodd" d="M163.852 64.7056C161.02 64.8329 158.164 64.9095 155.281 64.9353C155.366 64.9939 155.417 65.0704 155.434 65.165C155.196 65.1158 155.095 64.9626 155.128 64.7056C158.036 64.7056 160.944 64.7056 163.852 64.7056Z" fill="#FFEEB1"/>
<path fill-rule="evenodd" clip-rule="evenodd" d="M169.668 64.3993C172.909 64.3487 176.123 64.3997 179.311 64.5524C179.259 64.6808 179.157 64.7318 179.005 64.7055C175.893 64.6034 172.78 64.5014 169.668 64.3993Z" fill="#C0EDF6"/>
<path fill-rule="evenodd" clip-rule="evenodd" d="M169.668 64.3993C169.668 64.3483 169.668 64.2972 169.668 64.2462C172.987 64.1952 176.302 64.2462 179.617 64.3993C179.547 64.5214 179.446 64.5725 179.311 64.5524C176.123 64.3997 172.909 64.3487 169.668 64.3993Z" fill="#18BEC9"/>
<path fill-rule="evenodd" clip-rule="evenodd" d="M163.699 63.9395C163.699 64.0926 163.699 64.2457 163.699 64.3988C160.407 64.3482 157.142 64.3993 153.903 64.552C153.82 64.5428 153.768 64.4918 153.75 64.3988C157.101 64.344 160.416 64.1909 163.699 63.9395Z" fill="#10BBC7"/>
<path fill-rule="evenodd" clip-rule="evenodd" d="M167.526 58.7331C168.196 60.6969 168.808 62.6876 169.362 64.7052C172.249 64.7569 175.105 64.91 177.934 65.1646C176.004 66.4835 174.115 67.8617 172.27 69.2992C172.117 69.3124 171.99 69.2612 171.888 69.1461C171.283 69.3935 170.901 69.8273 170.74 70.4477C171.442 72.7223 172.157 74.9939 172.883 77.2621C172.832 77.3642 172.78 77.4662 172.73 77.5683C172.488 77.1889 172.182 77.0867 171.811 77.2621C170.128 76.0127 168.418 74.7876 166.684 73.5869C164.325 75.2142 162.003 76.8987 159.719 78.6403C159.669 78.5893 159.617 78.5381 159.566 78.4871C160.411 75.7493 161.279 73.0185 162.168 70.2945C159.961 68.5504 157.716 66.8403 155.434 65.1646C155.417 65.0701 155.366 64.9935 155.281 64.9349C158.164 64.9091 161.02 64.8326 163.852 64.7052C164.028 64.3562 164.181 63.9989 164.311 63.6333C164.513 63.6593 164.692 63.6083 164.847 63.4802C165.398 61.5201 166.01 59.5804 166.684 57.6611C166.739 57.9839 166.841 58.2902 166.99 58.5799C167.04 58.5289 167.092 58.4778 167.143 58.4268C167.252 58.5616 167.379 58.6637 167.526 58.7331Z" fill="#FFC306"/>
<path fill-rule="evenodd" clip-rule="evenodd" d="M167.526 58.733C167.379 58.6637 167.252 58.5616 167.143 58.4268C167.092 58.4778 167.04 58.5288 166.99 58.5799C166.841 58.2901 166.739 57.9839 166.684 57.6611C166.01 59.5803 165.398 61.52 164.847 63.4801C164.692 63.6082 164.513 63.6593 164.311 63.6333C165.002 61.2272 165.716 58.8281 166.454 56.436C166.607 56.436 166.76 56.436 166.913 56.436C167.091 57.1973 167.294 57.9629 167.526 58.733Z" fill="#FFC72B"/>
<path opacity="0.865" fill-rule="evenodd" clip-rule="evenodd" d="M202.73 50.9233C202.985 50.9233 203.239 50.9233 203.495 50.9233C203.503 51.3932 203.579 51.8526 203.724 52.3015C204.964 55.8315 206.06 59.4046 207.015 63.0208C211.254 63.0666 215.489 63.0156 219.719 62.8677C219.759 63.094 219.709 63.2981 219.566 63.4802C216.191 65.8827 212.874 68.3584 209.617 70.9071C210.865 75.0144 212.192 79.0724 213.597 83.0811C213.341 83.2852 213.087 83.2852 212.832 83.0811C209.614 80.6016 206.374 78.1515 203.112 75.7308C199.808 78.1622 196.517 80.6123 193.24 83.0811C193.058 83.2234 192.854 83.2744 192.628 83.2342C193.869 79.1135 195.196 75.0043 196.607 70.9071C193.304 68.3427 189.937 65.8671 186.505 63.4802C186.363 63.2981 186.312 63.094 186.352 62.8677C190.633 63.0156 194.919 63.0667 199.209 63.0208C199.217 62.5509 199.293 62.0916 199.439 61.6426C200.409 58.675 201.378 55.7144 202.347 52.7609C202.523 52.1565 202.651 51.544 202.73 50.9233Z" fill="#0497A8"/>
<path fill-rule="evenodd" clip-rule="evenodd" d="M206.097 64.2459C206.097 64.2969 206.097 64.3479 206.097 64.399C209.209 64.5011 212.322 64.6032 215.434 64.7052C212.93 66.6206 210.43 68.5348 207.934 70.4477C209.111 73.5607 210.081 76.6999 210.842 79.8653C208.277 77.9062 205.701 75.9666 203.112 74.0463C200.516 75.9032 197.939 77.7918 195.383 79.7122C195.274 79.3652 195.3 79.008 195.459 78.6403C196.385 75.9352 197.278 73.2044 198.138 70.4477C195.6 68.411 192.998 66.4459 190.332 64.5521C193.57 64.3994 196.835 64.3484 200.128 64.399C200.128 64.2459 200.128 64.0927 200.128 63.9396C201.104 60.9339 202.099 57.9223 203.112 54.9048C204.126 58.0223 205.12 61.1359 206.097 64.2459Z" fill="#F1F8F0"/>
<path fill-rule="evenodd" clip-rule="evenodd" d="M208.699 69.2991C208.471 69.4988 208.217 69.6774 207.934 69.8351C207.735 69.9582 207.632 70.1369 207.628 70.3711C208.479 73.1058 209.346 75.8368 210.23 78.5636C210.176 78.7561 210.073 78.8073 209.923 78.7168C209.333 78.2525 208.771 77.7676 208.24 77.262C208.61 77.0867 208.916 77.1888 209.158 77.5683C209.209 77.4661 209.261 77.3641 209.311 77.262C208.586 74.9938 207.871 72.7222 207.168 70.4476C207.329 69.8273 207.712 69.3935 208.316 69.146C208.419 69.2612 208.546 69.3123 208.699 69.2991Z" fill="#FFC525"/>
<path fill-rule="evenodd" clip-rule="evenodd" d="M205.791 64.7056C208.699 64.7056 211.607 64.7056 214.515 64.7056C214.552 64.9033 214.5 65.0564 214.362 65.165C211.534 64.9104 208.678 64.7572 205.791 64.7056Z" fill="#FFEEAF"/>
<path fill-rule="evenodd" clip-rule="evenodd" d="M200.281 64.7056C197.449 64.8329 194.593 64.9095 191.709 64.9353C191.795 64.9939 191.845 65.0704 191.862 65.165C191.625 65.1158 191.524 64.9626 191.556 64.7056C194.464 64.7056 197.372 64.7056 200.281 64.7056Z" fill="#FFEEB1"/>
<path fill-rule="evenodd" clip-rule="evenodd" d="M206.097 64.3993C209.337 64.3487 212.552 64.3997 215.74 64.5524C215.688 64.6808 215.585 64.7318 215.434 64.7055C212.322 64.6034 209.209 64.5014 206.097 64.3993Z" fill="#C0EDF6"/>
<path fill-rule="evenodd" clip-rule="evenodd" d="M206.097 64.3993C206.097 64.3483 206.097 64.2972 206.097 64.2462C209.415 64.1952 212.731 64.2462 216.046 64.3993C215.975 64.5214 215.874 64.5725 215.74 64.5524C212.552 64.3997 209.337 64.3487 206.097 64.3993Z" fill="#18BEC9"/>
<path fill-rule="evenodd" clip-rule="evenodd" d="M200.128 63.9395C200.128 64.0926 200.128 64.2457 200.128 64.3988C196.835 64.3482 193.57 64.3993 190.332 64.552C190.249 64.5428 190.197 64.4918 190.179 64.3988C193.529 64.344 196.844 64.1909 200.128 63.9395Z" fill="#10BBC7"/>
<path fill-rule="evenodd" clip-rule="evenodd" d="M203.954 58.7331C204.625 60.6969 205.237 62.6876 205.791 64.7052C208.678 64.7569 211.534 64.91 214.362 65.1646C212.432 66.4835 210.543 67.8617 208.699 69.2992C208.546 69.3124 208.419 69.2612 208.316 69.1461C207.712 69.3935 207.329 69.8273 207.168 70.4477C207.871 72.7223 208.586 74.9939 209.311 77.2621C209.261 77.3642 209.209 77.4662 209.158 77.5683C208.916 77.1889 208.61 77.0867 208.24 77.2621C206.556 76.0127 204.846 74.7876 203.112 73.5869C200.754 75.2142 198.432 76.8987 196.148 78.6403C196.097 78.5893 196.045 78.5381 195.995 78.4871C196.84 75.7493 197.708 73.0185 198.597 70.2945C196.39 68.5504 194.144 66.8403 191.862 65.1646C191.845 65.0701 191.795 64.9935 191.709 64.9349C194.593 64.9091 197.449 64.8326 200.281 64.7052C200.457 64.3562 200.61 63.9989 200.74 63.6333C200.942 63.6593 201.121 63.6083 201.276 63.4802C201.827 61.5201 202.439 59.5804 203.112 57.6611C203.167 57.9839 203.27 58.2902 203.418 58.5799C203.469 58.5289 203.521 58.4778 203.571 58.4268C203.68 58.5616 203.807 58.6637 203.954 58.7331Z" fill="#FFC306"/>
<path fill-rule="evenodd" clip-rule="evenodd" d="M203.954 58.733C203.807 58.6637 203.68 58.5616 203.571 58.4268C203.521 58.4778 203.469 58.5288 203.418 58.5799C203.27 58.2901 203.167 57.9839 203.112 57.6611C202.439 59.5803 201.826 61.52 201.275 63.4801C201.121 63.6082 200.942 63.6593 200.74 63.6333C201.43 61.2272 202.145 58.8281 202.883 56.436C203.036 56.436 203.189 56.436 203.342 56.436C203.519 57.1973 203.723 57.9629 203.954 58.733Z" fill="#FFC72B"/>
<path opacity="0.969" fill-rule="evenodd" clip-rule="evenodd" d="M181.76 87.3691C197.574 87.1815 210.56 93.0515 220.714 104.979C227.232 113.512 230.522 123.185 230.587 133.998C230.487 138.789 229.593 143.408 227.908 147.856C225.305 154.551 221.454 160.574 216.352 165.926C212.487 169.352 207.972 171.445 202.806 172.204C200.382 172.425 197.957 172.603 195.536 172.74C195.407 172.586 195.357 172.407 195.383 172.204C195.592 172.228 195.797 172.203 195.995 172.128C202.198 168.507 206.995 163.633 210.383 157.504C212.455 157.088 214.521 156.628 216.582 156.125C218.166 155.606 219.62 154.84 220.944 153.828C222.17 152.678 223.37 151.504 224.541 150.306C225.571 148.918 226.541 147.489 227.449 146.019C228.024 144.094 228.534 142.154 228.98 140.2C229.183 138.98 229.234 137.755 229.133 136.525C228.021 133.645 226.821 130.812 225.536 128.026C224.904 127.04 224.291 126.045 223.699 125.04C222.928 124.008 222.086 123.038 221.173 122.13C220.247 116.867 219.788 111.558 219.796 106.204C216.199 101.738 211.939 98.0372 207.015 95.1023C201.519 95.4098 196.188 96.5073 191.02 98.3946C185.81 96.397 180.427 95.0954 174.872 94.4898C173.495 94.3876 172.117 94.3876 170.74 94.4898C168.372 95.4969 166.102 96.6454 163.929 97.9352C163.924 97.4496 164.154 97.0924 164.617 96.8633C166.154 95.811 167.709 94.79 169.286 93.8007C169.304 92.9096 169.431 92.0418 169.668 91.1974C161.524 93.6347 154.636 97.9989 149.005 104.29C150.117 104.347 151.214 104.474 152.296 104.673C153.337 104.573 154.179 104.088 154.821 103.218C155.838 102.418 156.885 101.678 157.959 100.998C158.1 101.082 158.229 101.184 158.342 101.304C157.433 102.088 156.565 102.905 155.74 103.754C155.498 104.188 155.216 104.596 154.898 104.979C154.592 105.847 154.592 106.715 154.898 107.583C157.01 111.541 158.515 115.726 159.413 120.139C156.171 123.512 152.931 126.932 149.694 130.399C148.933 131.365 148.168 132.335 147.398 133.309C147.018 136.679 147.553 139.87 149.005 142.88C148.954 143.007 148.903 143.135 148.852 143.262C148.574 143.061 148.319 142.831 148.087 142.573C148.138 142.522 148.189 142.471 148.24 142.42C148.011 142.095 147.756 141.788 147.474 141.501C146.163 139.049 145.117 136.471 144.337 133.768C142.262 131.301 140.374 128.698 138.673 125.958C137.123 134.491 138.016 142.734 141.352 150.689C142.789 154.696 144.778 158.346 147.321 161.638C147.502 161.898 147.502 162.154 147.321 162.404C138.848 152.149 135.455 140.205 137.143 126.571C139.85 111.581 147.911 100.351 161.326 92.8819C165.37 90.834 169.606 89.3027 174.031 88.2879C176.608 87.8 179.186 87.4938 181.76 87.3691Z" fill="#0097A8"/>
<path opacity="0.982" fill-rule="evenodd" clip-rule="evenodd" d="M205.944 150C205.148 148.641 204.23 147.365 203.189 146.172C201.926 145.94 200.649 145.812 199.362 145.789C194.336 145.502 189.386 145.859 184.515 146.861C181.42 150.505 177.848 153.44 173.801 155.666C173.677 155.619 173.576 155.542 173.495 155.436C175.162 153.745 176.819 152.035 178.469 150.306C179.7 148.829 180.592 147.17 181.148 145.329C180.944 144.87 180.944 144.411 181.148 143.951C180.367 141.424 179.576 138.897 178.775 136.371C177.834 133.68 176.891 131.051 175.944 128.485C175.099 127.079 173.951 125.981 172.5 125.192C171.297 124.656 170.098 124.12 168.903 123.585C166.691 122.812 164.446 122.148 162.168 121.594C161.862 121.417 161.812 121.188 162.015 120.905C165.491 121.36 168.96 121.845 172.423 122.36C174.011 122.676 175.592 123.059 177.168 123.508C177.505 123.421 177.836 123.319 178.163 123.202C181.232 120.964 184.318 118.744 187.423 116.54C188.594 115.751 189.819 115.062 191.097 114.473C191.398 110.75 191.245 107.05 190.638 103.371C190.688 103.244 190.74 103.116 190.791 102.988C191.115 103.226 191.371 103.532 191.556 103.907C191.524 103.997 191.473 104.073 191.403 104.137C192.977 107.634 194.124 111.232 194.847 114.933C198.504 117.725 202.151 120.507 205.791 123.278C207.167 123.548 208.544 123.522 209.923 123.202C211.107 122.92 212.281 122.639 213.444 122.36C214.927 122.232 216.407 122.104 217.883 121.977C218.013 122.216 217.961 122.445 217.73 122.666C214.877 123.175 212.224 124.196 209.77 125.728C208.24 126.793 207.297 128.248 206.939 130.093C205.936 134.714 204.992 139.333 204.107 143.951C206.04 147.096 207.621 150.414 208.852 153.905C208.802 153.956 208.749 154.007 208.699 154.058C208.99 154.498 209.143 154.983 209.158 155.513C208.955 155.513 208.749 155.513 208.546 155.513C208.405 154.821 208.175 154.157 207.857 153.522C207.21 152.328 206.573 151.154 205.944 150Z" fill="#0097A8"/>
<path opacity="0.943" fill-rule="evenodd" clip-rule="evenodd" d="M232.117 127.796C232.373 127.834 232.602 127.936 232.806 128.102C235.84 134.642 236.706 141.584 235.408 148.928C234.611 152.528 233.437 155.999 231.888 159.341C230.623 161.516 229.322 163.66 227.985 165.773C222.608 172.629 216.231 178.448 208.852 183.23C195.409 191.574 180.765 197.062 164.923 199.691C164.974 199.742 165.026 199.794 165.076 199.845C141.723 203.768 118.407 202.645 95.1275 196.476C84.3514 193.495 74.0963 189.258 64.3622 183.766C62.2516 182.446 60.1597 181.093 58.0867 179.708C56.0879 178.249 54.149 176.718 52.2704 175.114C50.4292 173.374 48.6436 171.587 46.9132 169.754C46.9642 169.397 47.1172 169.346 47.3724 169.601C51.3339 172.945 55.5685 175.956 60.0765 178.636C70.4321 184.499 81.4016 188.914 92.9846 191.882C117.837 197.883 142.786 198.24 167.832 192.954C180.947 189.891 193.295 184.939 204.872 178.1C211.817 173.807 217.964 168.575 223.316 162.404C227.884 156.811 230.945 150.481 232.5 143.415C232.76 141.844 232.913 140.261 232.959 138.668C233.01 138.719 233.062 138.77 233.112 138.821C233.21 135.718 233.031 132.63 232.576 129.557C232.315 128.997 232.162 128.41 232.117 127.796Z" fill="#FFC300"/>
<path opacity="0.01" fill-rule="evenodd" clip-rule="evenodd" d="M205.944 150C205.841 150.104 205.841 150.104 205.944 150V150Z" fill="#00899A"/>
<path opacity="0.981" fill-rule="evenodd" clip-rule="evenodd" d="M193.699 205.281C195.954 205.12 198.147 205.4 200.281 206.123C201.139 206.687 202.108 207.249 203.189 207.807C208.757 212.686 214.267 217.639 219.719 222.661C219.989 222.9 220.295 223.079 220.638 223.197C220.837 223.107 220.964 222.954 221.02 222.738C221.097 217.072 221.123 211.406 221.097 205.74C224.77 205.74 228.444 205.74 232.117 205.74C232.091 213.703 232.117 221.666 232.194 229.629C237.543 222.262 242.977 214.962 248.495 207.731C249.842 206.634 251.372 205.919 253.087 205.587C255.943 205.186 258.698 205.518 261.352 206.582C262.237 207.085 263.053 207.673 263.801 208.343C272.091 219.459 280.381 230.485 288.673 241.42C288.748 241.618 288.774 241.823 288.75 242.033C284.196 240.924 279.605 239.928 274.974 239.046C271.961 234.947 268.952 230.813 265.944 226.643C259.312 226.54 252.678 226.54 246.046 226.643C244.299 229.096 242.616 231.572 240.995 234.07C233.106 233.35 225.199 232.609 217.27 231.849C215.38 230.315 213.543 228.733 211.76 227.102C207.698 223.329 203.616 219.551 199.515 215.77C199.251 215.521 198.944 215.342 198.597 215.234C198.369 215.267 198.19 215.369 198.061 215.541C197.985 220.594 197.959 225.647 197.985 230.701C194.398 230.656 190.828 230.503 187.27 230.241C187.244 223.3 187.27 216.357 187.347 209.415C188.056 207.781 189.254 206.633 190.944 205.97C191.887 205.759 192.805 205.529 193.699 205.281ZM261.505 220.594C257.894 220.442 254.271 220.392 250.638 220.441C252.429 217.874 254.213 215.323 255.995 212.784C257.949 215.388 259.786 217.991 261.505 220.594Z" fill="#0097A8"/>
<path opacity="0.974" fill-rule="evenodd" clip-rule="evenodd" d="M33.903 227.944C31.1876 231.699 28.5346 235.451 25.9439 239.2C21.317 240.039 16.7251 240.984 12.1684 242.033C12.167 241.755 12.2436 241.5 12.3979 241.267C16.6136 235.803 20.7972 230.189 24.949 224.422C28.8431 219.378 32.7208 214.172 36.5816 208.803C38.2172 207.043 40.2326 205.971 42.6275 205.587C44.9812 205.308 47.3026 205.461 49.5918 206.046C50.8394 206.621 51.962 207.386 52.9592 208.343C57.3428 214.388 61.7562 220.412 66.199 226.413C74.5151 226.534 82.8314 226.637 91.1479 226.719C92.5559 226.716 93.9591 226.666 95.3571 226.566C96.4532 225.871 96.4788 225.131 95.4337 224.346C88.099 222.88 80.752 221.476 73.3928 220.135C67.8522 218.542 66.0408 215.02 67.9592 209.568C69.8224 207.245 72.3479 205.994 75.5357 205.817C100.179 205.74 124.821 205.714 149.464 205.74C149.464 207.884 149.464 210.028 149.464 212.172C143.75 212.172 138.036 212.172 132.321 212.172C132.321 217.991 132.321 223.81 132.321 229.629C131.351 229.603 130.381 229.629 129.413 229.705C129.515 229.756 129.617 229.808 129.719 229.859C126.965 229.935 124.21 229.961 121.454 229.935C121.404 224.029 121.455 218.133 121.607 212.248C107.372 212.146 93.1377 212.146 78.903 212.248C78.1708 212.536 77.9668 213.046 78.2908 213.78C78.514 214.104 78.8201 214.308 79.2092 214.392C86.2596 215.651 93.3004 216.902 100.332 218.144C102.125 218.631 103.783 219.397 105.306 220.441C105.805 221.115 106.29 221.804 106.76 222.508C106.97 223.557 107.174 224.603 107.372 225.647C107.32 227.525 106.657 229.133 105.383 230.471C97.1735 230.944 88.9593 231.456 80.7398 232.002C80.7907 232.053 80.8419 232.105 80.8928 232.155C73.8629 232.598 66.873 233.211 59.9235 233.993C58.1507 231.569 56.4159 229.119 54.7194 226.643C48.0862 226.516 41.4534 226.54 34.8214 226.719C34.5415 227.168 34.2353 227.577 33.903 227.944ZM44.6173 212.784C44.7698 212.77 44.8973 212.823 45 212.937C45.3603 213.576 45.7939 214.138 46.301 214.622C47.4897 216.704 48.8672 218.72 50.4337 220.671C46.6572 220.798 42.8816 220.773 39.1071 220.594C41.0683 217.986 42.905 215.383 44.6173 212.784Z" fill="#0097A8"/>
<path opacity="0.977" fill-rule="evenodd" clip-rule="evenodd" d="M160.485 205.434C162.863 205.321 165.21 205.526 167.526 206.047C168.84 206.576 170.014 207.318 171.046 208.267C176.389 215.434 181.694 222.554 186.964 229.629C187.107 229.811 187.157 230.015 187.117 230.241C183.236 230.173 179.359 230.019 175.485 229.782C174.706 228.764 173.94 227.718 173.189 226.643C166.557 226.54 159.923 226.54 153.291 226.643C152.623 227.664 151.909 228.635 151.148 229.552C147.373 229.629 143.597 229.655 139.821 229.629C139.781 229.402 139.832 229.199 139.975 229.016C145.265 221.959 150.469 214.914 155.587 207.884C156.932 206.661 158.513 205.919 160.332 205.664C160.417 205.606 160.468 205.529 160.485 205.434ZM157.73 220.441C159.502 217.986 161.236 215.484 162.934 212.938C163.059 212.801 163.212 212.751 163.393 212.784C164.959 215.403 166.694 217.93 168.597 220.364C164.976 220.441 161.353 220.467 157.73 220.441Z" fill="#0097A8"/>
<path opacity="0.557" fill-rule="evenodd" clip-rule="evenodd" d="M46.3011 214.622C45.794 214.138 45.3604 213.576 45.0001 212.937C44.8974 212.823 44.7699 212.771 44.6174 212.784C44.5974 212.65 44.6483 212.548 44.7705 212.478C45.0691 212.803 45.4263 213.032 45.8419 213.167C45.7719 213.23 45.7208 213.306 45.6888 213.397C45.897 213.813 46.101 214.222 46.3011 214.622Z" fill="#4BC0CA"/>
<path opacity="0.01" fill-rule="evenodd" clip-rule="evenodd" d="M33.9031 227.944C34.1071 228.048 34.1071 228.048 33.9031 227.944V227.944Z" fill="#0091AF"/>
<path opacity="0.869" fill-rule="evenodd" clip-rule="evenodd" d="M299.923 246.933C299.923 247.086 299.923 247.239 299.923 247.392C270.487 241.699 240.742 238.1 210.689 236.596C202.581 236.171 194.469 235.814 186.352 235.524C161.199 235.016 136.046 235.016 110.893 235.524C86.689 236.365 62.6074 238.305 38.648 241.343C26.7435 242.959 14.9067 244.847 3.13775 247.009C3.18876 247.06 3.23979 247.112 3.29081 247.162C2.27165 247.23 1.30227 247.46 0.382646 247.852C0.242314 247.755 0.0892529 247.705 -0.0765381 247.698C-0.0765381 247.545 -0.0765381 247.392 -0.0765381 247.239C19.1377 242.008 38.6786 238.359 58.5459 236.29C58.4949 236.24 58.4438 236.187 58.3928 236.137C64.6722 235.575 70.9477 234.962 77.2194 234.299C78.9548 234.209 80.6894 234.106 82.4235 233.993C82.3725 233.943 82.3214 233.89 82.2704 233.84C88.8099 233.431 95.3405 233.022 101.862 232.615C114.187 232.093 126.509 231.71 138.827 231.466C164.372 231.301 189.934 232.067 215.51 233.763C222.266 234.384 229.027 234.97 235.791 235.524C242.167 236.289 248.544 237.054 254.923 237.821C270.135 239.889 285.135 242.925 299.923 246.933Z" fill="#FFC300"/>
<path opacity="0.884" fill-rule="evenodd" clip-rule="evenodd" d="M87.4745 248.923C86.3009 248.923 85.1276 248.923 83.954 248.923C83.267 248.739 82.5526 248.586 81.8112 248.464C80.7427 248.003 79.9008 247.288 79.2857 246.32C79.1836 245.758 79.1836 245.197 79.2857 244.635C80.0418 243.605 81.0367 242.89 82.2704 242.492C85.0659 241.821 87.821 241.948 90.5357 242.874C92.9693 244.348 93.1224 246.006 90.9949 247.851C89.8734 248.421 88.6999 248.779 87.4745 248.923ZM84.1071 243.41C85.2307 243.384 86.3531 243.41 87.4745 243.487C89.0779 244.104 89.5115 245.202 88.7755 246.779C88.4397 247.19 88.006 247.419 87.4745 247.468C86.0784 247.623 84.7008 247.547 83.3418 247.239C82.6177 246.517 82.3881 245.651 82.653 244.635C83.0146 244.063 83.4991 243.654 84.1071 243.41Z" fill="#0097A8"/>
<path opacity="0.888" fill-rule="evenodd" clip-rule="evenodd" d="M102.321 248.924C101.097 248.924 99.8724 248.924 98.6479 248.924C97.0229 248.838 95.6198 248.225 94.4387 247.086C94.0056 246.48 93.8016 245.815 93.8265 245.095C94.217 244.089 94.9057 243.35 95.8928 242.875C98.6065 241.935 101.362 241.806 104.158 242.492C104.931 242.733 105.646 243.091 106.301 243.564C107.016 244.353 107.246 245.271 106.99 246.32C106.908 246.683 106.729 246.99 106.454 247.239C105.914 247.738 105.302 248.121 104.617 248.388C103.83 248.559 103.064 248.738 102.321 248.924ZM98.801 243.411C99.9246 243.385 101.047 243.411 102.168 243.487C103.836 244.088 104.27 245.184 103.469 246.78C103.134 247.19 102.7 247.42 102.168 247.469C100.995 247.572 99.8215 247.572 98.6479 247.469C97.2956 246.895 96.8619 245.899 97.3469 244.483C97.7793 244.026 98.2641 243.67 98.801 243.411Z" fill="#0097A8"/>
<path opacity="0.859" fill-rule="evenodd" clip-rule="evenodd" d="M182.679 248.923C181.454 248.923 180.23 248.923 179.005 248.923C178.39 248.764 177.751 248.611 177.092 248.464C176.764 248.159 176.382 247.956 175.944 247.852C174.024 246.066 174.153 244.434 176.326 242.951C179.395 241.728 182.457 241.728 185.51 242.951C185.723 243.241 186.005 243.444 186.352 243.564C186.572 243.887 186.675 244.244 186.658 244.636C185.683 244.686 184.714 244.636 183.75 244.483C183.478 244.005 183.07 243.673 182.525 243.487C181.505 243.385 180.485 243.385 179.464 243.487C177.857 244.158 177.499 245.256 178.393 246.78C178.688 247.208 179.097 247.438 179.617 247.469C180.586 247.571 181.557 247.571 182.525 247.469C183.199 247.377 183.658 247.02 183.903 246.397C184.87 246.32 185.841 246.294 186.811 246.32C186.782 246.636 186.706 246.942 186.582 247.239C185.466 248.244 184.165 248.806 182.679 248.923Z" fill="#0097A7"/>
<path opacity="0.834" fill-rule="evenodd" clip-rule="evenodd" d="M71.7092 248.923C70.6887 248.923 69.6684 248.923 68.648 248.923C68.4451 246.703 68.4451 244.483 68.648 242.262C71.9639 242.186 75.2802 242.16 78.5969 242.186C78.5969 242.594 78.5969 243.002 78.5969 243.411C76.301 243.411 74.0051 243.411 71.7092 243.411C71.7092 243.921 71.7092 244.432 71.7092 244.942C73.4949 244.942 75.2806 244.942 77.0663 244.942C77.0663 245.351 77.0663 245.758 77.0663 246.167C75.2806 246.167 73.4949 246.167 71.7092 246.167C71.7092 247.086 71.7092 248.005 71.7092 248.923Z" fill="#0096A8"/>
<path opacity="0.866" fill-rule="evenodd" clip-rule="evenodd" d="M115.179 248.923C114.107 248.923 113.036 248.923 111.964 248.923C111.964 247.086 111.964 245.248 111.964 243.411C110.536 243.411 109.107 243.411 107.679 243.411C107.679 243.002 107.679 242.594 107.679 242.186C111.505 242.186 115.332 242.186 119.158 242.186C119.158 242.594 119.158 243.002 119.158 243.411C117.832 243.411 116.505 243.411 115.179 243.411C115.179 245.248 115.179 247.086 115.179 248.923Z" fill="#0096A7"/>
<path opacity="0.861" fill-rule="evenodd" clip-rule="evenodd" d="M128.189 248.923C125.485 248.923 122.781 248.923 120.077 248.923C120.077 246.677 120.077 244.432 120.077 242.186C122.985 242.16 125.893 242.186 128.801 242.262C129.704 242.443 130.495 242.826 131.173 243.411C131.384 244.091 131.206 244.626 130.638 245.019C130.24 245.159 129.831 245.262 129.413 245.325C130.245 245.44 130.96 245.77 131.556 246.32C131.732 246.72 131.758 247.127 131.633 247.545C131.259 247.887 130.851 248.193 130.408 248.464C129.647 248.611 128.907 248.764 128.189 248.923ZM122.985 243.564C123.178 243.899 123.178 244.257 122.985 244.636C124.727 244.827 126.462 244.777 128.189 244.483C128.232 243.836 127.926 243.506 127.27 243.487C125.815 243.362 124.386 243.386 122.985 243.564ZM122.985 246.32C124.539 246.143 126.121 246.116 127.73 246.244C128.527 246.291 128.731 246.623 128.342 247.239C128.044 247.345 127.738 247.421 127.423 247.469C125.944 247.571 124.464 247.571 122.985 247.469C123.186 247.07 123.186 246.688 122.985 246.32Z" fill="#0097A8"/>
<path opacity="0.942" fill-rule="evenodd" clip-rule="evenodd" d="M146.097 248.923C145.026 248.923 143.954 248.923 142.883 248.923C142.675 248.383 142.369 247.897 141.964 247.469C139.975 247.366 137.985 247.366 135.995 247.469C135.59 247.897 135.284 248.383 135.077 248.923C134.158 248.923 133.24 248.923 132.321 248.923C132.299 248.762 132.324 248.609 132.398 248.464C134.056 246.397 135.714 244.329 137.372 242.262C138.597 242.159 139.821 242.159 141.046 242.262C142.544 244.06 144.023 245.871 145.485 247.698C145.829 248.041 146.033 248.449 146.097 248.923ZM138.903 243.564C138.437 244.499 137.824 245.317 137.066 246.014C138.339 246.193 139.614 246.217 140.893 246.09C140.17 245.273 139.506 244.43 138.903 243.564Z" fill="#0097A8"/>
<path opacity="0.835" fill-rule="evenodd" clip-rule="evenodd" d="M156.964 248.923C153.699 248.923 150.434 248.923 147.168 248.923C147.168 246.677 147.168 244.432 147.168 242.186C148.24 242.186 149.311 242.186 150.383 242.186C150.383 243.921 150.383 245.657 150.383 247.392C152.526 247.366 154.668 247.392 156.811 247.469C156.957 247.937 157.007 248.421 156.964 248.923Z" fill="#0096A7"/>
<path opacity="0.796" fill-rule="evenodd" clip-rule="evenodd" d="M168.597 248.923C165.332 248.923 162.066 248.923 158.801 248.923C158.801 246.677 158.801 244.432 158.801 242.186C159.923 242.186 161.046 242.186 162.168 242.186C162.217 243.908 162.167 245.617 162.015 247.315C164.209 247.392 166.402 247.418 168.597 247.392C168.597 247.902 168.597 248.413 168.597 248.923Z" fill="#0097A7"/>
<path opacity="0.802" fill-rule="evenodd" clip-rule="evenodd" d="M198.138 248.923C194.873 248.923 191.607 248.923 188.342 248.923C188.342 246.677 188.342 244.432 188.342 242.186C189.464 242.186 190.587 242.186 191.709 242.186C191.709 243.921 191.709 245.657 191.709 247.392C193.852 247.392 195.995 247.392 198.138 247.392C198.138 247.902 198.138 248.413 198.138 248.923Z" fill="#0096A7"/>
<path opacity="0.851" fill-rule="evenodd" clip-rule="evenodd" d="M207.321 248.923C206.046 248.923 204.77 248.923 203.495 248.923C202.737 248.761 201.972 248.556 201.199 248.311C200.685 248.026 200.302 247.617 200.051 247.086C199.975 245.453 199.948 243.819 199.975 242.186C201.046 242.186 202.117 242.186 203.189 242.186C203.143 243.8 203.193 245.407 203.342 247.009C203.405 247.155 203.506 247.256 203.648 247.315C204.97 247.58 206.297 247.605 207.628 247.392C207.949 247.372 208.179 247.219 208.316 246.933C208.393 245.351 208.419 243.769 208.393 242.186C209.261 242.186 210.127 242.186 210.995 242.186C211.021 243.718 210.995 245.25 210.918 246.78C210.854 247.064 210.778 247.345 210.689 247.622C210.312 247.939 209.904 248.219 209.464 248.464C208.73 248.619 208.015 248.772 207.321 248.923Z" fill="#0097A8"/>
<path opacity="0.881" fill-rule="evenodd" clip-rule="evenodd" d="M221.403 248.923C218.801 248.923 216.199 248.923 213.597 248.923C213.597 246.677 213.597 244.432 213.597 242.186C216.455 242.16 219.312 242.186 222.168 242.262C223.183 242.379 224.025 242.812 224.694 243.564C224.803 244.129 224.625 244.588 224.158 244.942C223.719 245.136 223.26 245.265 222.781 245.325C223.58 245.455 224.293 245.761 224.923 246.244C225.354 246.847 225.303 247.407 224.77 247.928C223.713 248.522 222.589 248.853 221.403 248.923ZM216.505 243.411C216.479 243.924 216.505 244.434 216.582 244.942C218.129 244.809 219.684 244.682 221.25 244.559C221.507 244.506 221.66 244.352 221.709 244.1C221.486 243.775 221.18 243.571 220.791 243.487C219.363 243.411 217.935 243.385 216.505 243.411ZM216.505 246.167C218.088 246.141 219.669 246.167 221.25 246.244C222.432 246.818 222.329 247.225 220.944 247.469C219.465 247.545 217.985 247.571 216.505 247.545C216.505 247.086 216.505 246.626 216.505 246.167Z" fill="#0097A8"/>
<path opacity="0.01" fill-rule="evenodd" clip-rule="evenodd" d="M184.209 244.789C184.413 244.892 184.413 244.892 184.209 244.789V244.789Z" fill="#0096A8"/>
</g>
<defs>
<clipPath id="clip0_1444_12891">
<rect width="300" height="198" fill="white" transform="translate(0 51)"/>
</clipPath>
</defs>
</svg>
