<svg width="300" height="300" viewBox="0 0 300 300" fill="none" xmlns="http://www.w3.org/2000/svg">
<g clip-path="url(#clip0_1444_13042)">
<path fill-rule="evenodd" clip-rule="evenodd" d="M52.7827 26.4003C52.7827 26.4003 45.7498 84.5243 54.0463 141.534C58.5899 172.758 68.3311 203.14 84.8687 227.239C84.8687 227.239 112.298 270.976 150.481 294C188.666 270.976 216.162 227.239 216.162 227.239C262.893 159.139 248.964 25.9738 248.964 25.9738C192.942 0.388925 108.149 -1.8333 52.7827 26.4003Z" fill="#FDFDFD"/>
<path fill-rule="evenodd" clip-rule="evenodd" d="M150.466 286.02C102.817 253.372 78.9669 216.891 63.6739 161.056C55.8261 132.404 58.9114 96.7818 58.9114 96.7818C58.9114 96.7818 104.096 79.6921 150.929 79.8869C197.762 79.6921 242.02 96.7818 242.02 96.7818C242.02 96.7818 245.105 132.404 237.258 161.056C221.963 216.891 198.118 253.372 150.468 286.02" fill="#077C35"/>
<path fill-rule="evenodd" clip-rule="evenodd" d="M58.8168 31.1355C91.1623 20.557 116.492 14.1738 151.331 14.3727C182.459 14.5512 214.563 20.4916 242.651 31.1368V69.1409C175.657 49.9733 125.848 49.7022 58.8168 69.1409V31.1355Z" fill="#077C35"/>
<path fill-rule="evenodd" clip-rule="evenodd" d="M150.466 273.977C192.552 243.62 213.768 209.682 227.807 158.428C228.677 155.25 229.388 152.029 229.984 148.789C232.486 135.165 233.403 118.535 232.679 103.918C225.745 101.583 218.44 99.5925 211.552 97.8758C191.909 92.979 171.185 89.7676 150.929 89.7676C130.672 89.7676 109.827 92.9803 90.1203 97.8063C82.9901 99.553 75.4274 101.576 68.2499 103.955C67.5296 118.563 68.4472 135.175 70.946 148.789C71.5407 152.029 72.2529 155.252 73.1232 158.428C87.162 209.682 108.38 243.62 150.466 273.977Z" fill="#FDFDFD"/>
<path fill-rule="evenodd" clip-rule="evenodd" d="M70.5081 71.4857L74.6152 70.209L75.5112 73.092C75.5112 73.092 76.122 72.002 77.2451 71.5184C78.3709 71.0333 79.921 70.7921 80.5224 71.6383C81.1224 72.4871 83.0009 79.4086 83.0009 79.4086C83.0009 79.4086 83.732 81.7629 82.8049 82.9183C81.8765 84.0751 79.6155 83.8435 79.6155 83.8435L78.5898 83.3707L79.375 86.1434L75.5869 87.3219L74.6801 84.571C74.6801 84.571 73.4232 87.3437 70.2662 86.3859C70.2662 86.3859 69.5135 86.3859 68.3769 82.6009C67.2403 78.8145 66.6281 77.2531 66.6281 77.2531C66.6281 77.2531 66.1038 75.4696 67.589 74.6112C69.0743 73.7528 70.2216 73.9395 70.7352 74.0921C71.2487 74.2474 71.4879 74.4218 71.4879 74.4218L70.5068 71.4843L70.5081 71.4857ZM73.6097 83.883L73.7908 83.8298C73.9314 83.789 74.0395 83.7004 74.1084 83.5723C74.1773 83.4402 74.1922 83.3039 74.1489 83.1622L71.9231 75.8511C71.8393 75.5759 71.5542 75.4192 71.2798 75.4941L71.1677 75.5241C71.0244 75.5636 70.9149 75.6481 70.8433 75.7775C70.7717 75.9069 70.7555 76.0459 70.7974 76.1903L72.9556 83.526C73.0381 83.8053 73.3313 83.9675 73.6097 83.8857V83.883ZM78.8074 82.233L78.9885 82.1785C79.129 82.1376 79.2371 82.0504 79.3061 81.921C79.3763 81.7916 79.3898 81.6539 79.3466 81.5122L77.1194 74.1984C77.0356 73.9259 76.7518 73.7665 76.4775 73.8414L76.3653 73.8714C76.2221 73.9109 76.1126 73.9967 76.041 74.1262C75.9693 74.2556 75.9531 74.3932 75.995 74.5363L78.1533 81.8719C78.2357 82.1526 78.529 82.3134 78.8074 82.233ZM84.9173 69.4174L88.6094 68.4705L91.8637 76.3062L90.6406 67.9854L94.376 67.1488C94.376 67.1488 95.5761 78.572 95.3801 80.0258C95.1828 81.4768 93.7638 82.2276 92.3232 82.5791C90.8812 82.9306 89.4838 83.2385 89.4838 83.2385L88.9378 81.2575L90.0298 80.9945C90.0298 80.9945 90.5541 80.7956 89.9865 79.7614C89.4189 78.7259 84.9186 69.4174 84.9186 69.4174H84.9173ZM98.3452 66.4444L107.257 64.8149L107.738 67.4568L105.421 67.9418L107.146 77.824L103.193 78.6169L101.228 68.6898L98.9344 69.1967L98.3439 66.4458L98.3452 66.4444ZM120.679 60.1483C120.679 60.1483 120.045 60.5435 118.79 60.5217C118.79 60.5217 115.676 60.6225 114.356 61.0612C113.034 61.5013 111.964 62.8447 111.92 64.0437C111.877 65.2413 113.218 73.4735 113.218 73.4735C113.218 73.4735 113.568 75.8497 115.184 76.4002C116.801 76.952 120.426 76.204 121.344 75.257C122.26 74.3101 122.566 73.1629 122.327 70.9856C122.087 68.8083 121.606 64.7795 121.606 64.7795C121.606 64.7795 121.082 63.293 119.226 63.3379C117.37 63.3815 116.724 64.0641 116.724 64.0641L116.167 64.7454C116.167 64.7454 115.915 63.5573 116.156 63.1485C116.395 62.7425 116.919 62.6444 117.368 62.6322C117.815 62.6226 119.956 62.4455 120.306 62.391C120.656 62.3365 120.908 62.1716 120.908 62.1716L120.681 60.147L120.679 60.1483ZM118.07 74.276L118.257 74.2502C118.403 74.2284 118.521 74.1575 118.609 74.0403C118.697 73.9232 118.73 73.7896 118.709 73.6411L117.559 66.0806C117.515 65.7972 117.259 65.597 116.975 65.6324L116.86 65.646C116.713 65.6637 116.592 65.7305 116.502 65.8504C116.411 65.9675 116.376 66.1024 116.398 66.2509L117.475 73.8237C117.515 74.1125 117.783 74.3142 118.07 74.276ZM134.905 62.6008C136.237 63.7004 136.476 64.7359 136.607 67.1134C136.902 72.4435 136.79 75.6699 130.339 74.9478C127.323 74.6099 127.431 71.1382 127.134 68.8342C126.696 65.4662 126.462 62.2834 131.116 61.831C132.442 61.7029 134.025 61.8746 134.905 62.6008ZM132.138 72.7718L132.327 72.7596C132.475 72.75 132.596 72.6874 132.692 72.5756C132.788 72.4639 132.831 72.3318 132.819 72.1846L132.202 64.5615C132.179 64.2767 131.935 64.0601 131.652 64.075L131.535 64.0791C131.387 64.0873 131.262 64.1459 131.165 64.2576C131.066 64.368 131.022 64.5015 131.033 64.65L131.577 72.28C131.598 72.5729 131.85 72.7923 132.138 72.7732V72.7718ZM142.067 61.38L151.984 61.2056L152.05 73.9926H147.932L147.823 63.9892H146.361L146.492 70.878C146.492 70.878 146.885 74.2243 143.871 74.1575L141.206 74.2679L141.118 72.1546C141.118 72.1546 142.494 72.3318 142.473 71.3181C142.451 70.3071 142.069 61.3814 142.069 61.3814L142.067 61.38ZM160.905 61.4577L160.467 74.2011L164.377 74.4L164.705 68.8955C164.705 68.8955 165.797 68.9623 165.905 69.7553C166.015 70.5469 165.731 73.3427 165.731 73.3427C165.731 73.3427 165.709 74.4641 166.43 74.509C167.151 74.5526 169.969 74.708 169.969 74.708C169.969 74.708 169.565 74.0676 169.729 72.1315C169.873 70.4324 170.092 69.3724 168.773 68.6176C168.485 68.4527 168.082 68.2497 167.622 68.1203C167.161 67.9909 166.496 67.8573 166.823 67.8233C167.151 67.7906 169.412 67.5031 169.935 66.4035C170.46 65.304 170.054 63.3992 170.504 62.5518L170.919 61.9564L166.835 61.7125C166.835 61.7125 166.431 61.7247 166.332 62.8025C166.234 63.8829 166.157 65.6542 166.038 65.9621C165.917 66.27 165.426 66.5452 165.377 66.5452H164.788L165.049 61.5871L160.905 61.455V61.4577ZM176.313 62.2548L186.178 63.2739L184.727 75.9778L180.639 75.4805L181.717 65.537L180.264 65.3599L179.578 72.2159C179.578 72.2159 179.571 75.584 176.587 75.1562L173.927 74.9437L174.092 72.8359C174.092 72.8359 175.437 73.1751 175.536 72.1683C175.633 71.1614 176.314 62.252 176.314 62.252L176.313 62.2548ZM190.394 64.1922L194.159 64.7699L194.128 73.2637L196.217 65.1201L199.981 65.8177C199.981 65.8177 196.67 76.8089 195.928 78.0706C195.184 79.3309 193.588 79.4631 192.125 79.2233C190.66 78.9794 189.254 78.7164 189.254 78.7164L189.516 76.6754L190.625 76.8621C190.625 76.8621 191.184 76.8852 191.061 75.7094C190.938 74.5349 190.394 64.1936 190.394 64.1936V64.1922ZM214.133 65.6433C214.133 65.6433 213.406 65.8068 212.227 65.3626C212.227 65.3626 209.261 64.4089 207.869 64.3789C206.477 64.3516 205.024 65.2563 204.585 66.3722C204.147 67.4881 202.686 75.7012 202.686 75.7012C202.686 75.7012 202.228 78.0597 203.571 79.1197C204.912 80.1825 208.579 80.6961 209.757 80.1116C210.935 79.5285 211.602 78.5529 212.096 76.4179C212.591 74.2829 213.471 70.3234 213.471 70.3234C213.471 70.3234 213.468 68.747 211.703 68.1639C209.938 67.5821 209.106 68.0086 209.106 68.0086L208.354 68.4636C208.354 68.4636 208.511 67.2592 208.872 66.9554C209.233 66.6529 209.76 66.736 210.185 66.875C210.611 67.0167 212.687 67.5698 213.036 67.6352C213.383 67.702 213.675 67.6312 213.675 67.6312L214.13 65.6433H214.133ZM206.996 78.0842L207.181 78.1237C207.324 78.1551 207.46 78.1278 207.581 78.0447C207.703 77.9616 207.779 77.8458 207.806 77.7027L209.225 70.1872C209.279 69.9065 209.1 69.634 208.823 69.5686L208.711 69.5427C208.566 69.51 208.43 69.5332 208.307 69.6149C208.183 69.6953 208.104 69.8111 208.076 69.9583L206.584 77.4588C206.526 77.7449 206.711 78.027 206.995 78.0828L206.996 78.0842ZM219.074 70.1831L223.117 71.2772L221.958 75.3565L225.189 76.4342C225.189 76.4342 226.674 77.1182 226.674 78.5039C226.674 79.8895 225.516 82.9933 225.516 82.9933C225.516 82.9933 224.949 84.9076 222.546 84.3367C220.143 83.7658 215.905 82.5982 215.905 82.5982L219.075 70.1831H219.074ZM221.366 77.7777L220.427 80.9904L221.324 81.2343C221.606 81.3106 221.897 81.1403 221.971 80.8569L222.546 78.6973C222.617 78.4248 222.467 78.1414 222.2 78.0529L221.366 77.7777ZM230.079 73.31L234.098 74.6317L230.167 86.6489L226.41 85.5044L230.08 73.3114L230.079 73.31Z" fill="#00832E"/>
<path fill-rule="evenodd" clip-rule="evenodd" d="M146.609 17.2842L155.975 17.3782L156.097 50.2361L147.605 50.3206L146.609 17.2842ZM121.389 19.4492L124.425 51.6408L139.298 50.5645C139.298 50.5645 144.547 50.435 144.521 45.5859C144.496 40.7368 144.188 34.9557 144.188 34.9557C144.188 34.9557 144.316 31.871 141.074 30.5467C141.074 30.5467 140.34 30.2224 138.307 30.1856C136.275 30.1461 131.823 30.1856 131.823 30.1856L130.819 18.4123L121.387 19.4492H121.389ZM132.211 35.2909L132.803 45.5328C132.803 45.5328 135.145 45.4306 135.351 44.1853C135.557 42.94 135.017 36.5103 135.017 36.5103C135.017 36.5103 134.914 35.5498 134.013 35.3413C133.113 35.1356 132.212 35.2909 132.212 35.2909H132.211ZM97.4101 23.6443C97.4101 23.6443 104.1 22.3581 109.992 21.3117C115.886 20.2653 118.433 19.9111 118.433 19.9111L119.13 26.0818L113.491 27.0165L116.76 52.4774L107.882 53.9816L103.816 29.0384L98.5669 29.8668L97.4087 23.6429L97.4101 23.6443ZM78.5655 28.7577L92.5638 24.7588L104.092 54.6806L94.8801 56.4723L93.2584 50.8179L90.4069 51.5877L91.3285 57.456L82.5023 59.5828L78.5655 28.7577ZM87.9067 33.9638L89.0122 46.0219L91.8921 45.2439L87.9053 33.9638H87.9067ZM185.522 19.8647L177.118 51.7008L186.431 52.6968L187.777 46.9089L190.796 47.2863L190.253 53.2649L199.371 54.8359L199.273 22.3159L185.523 19.8647H185.522ZM191.483 29.6093L188.377 41.1387L191.268 41.5448L191.483 29.6079V29.6093ZM160.206 17.5008L159.727 50.2347L168.693 50.2402L169.173 37.5608C169.173 37.5608 175.493 38.9438 178.756 35.9463C178.756 35.9463 180.347 32.2703 180.071 22.136C180.071 22.136 179.344 19.0704 173.763 18.317C168.183 17.5635 160.206 17.4995 160.206 17.4995V17.5008ZM169.646 24.6825L169.385 32.1081C169.385 32.1081 171.915 33.3098 172.213 30.0603C172.511 26.808 172.473 25.436 171.661 24.9128C170.849 24.391 169.648 24.6825 169.648 24.6825H169.646ZM206.374 24.3487L214.63 26.3543L212.961 44.9088L218.748 27.5955L227.131 29.9322L217.336 53.4298C217.336 53.4298 215.759 57.3224 213.128 57.7489C210.495 58.1754 201.446 55.8578 201.446 55.8578L202.488 51.6218L205.259 52.13C205.259 52.13 205.855 51.8548 205.838 51.3098C205.82 50.7634 206.373 24.3501 206.373 24.3501L206.374 24.3487ZM61.8251 33.0646C61.8251 33.0646 62.7266 34.2963 64.528 34.7813C66.3295 35.2677 68.0823 36.355 68.131 38.0241C68.1796 39.6931 66.6998 41.0543 66.6998 41.0543C66.6998 41.0543 64.4159 43.4209 64.1915 44.5872C63.9658 45.7535 65.0916 47.4226 66.6039 47.601C68.1161 47.7795 70.5758 47.567 70.6717 44.8951C70.6717 44.8951 70.4474 43.6634 68.581 43.955C66.716 44.2479 67.6485 46.0137 67.6485 46.0137C67.6485 46.0137 65.7997 46.304 65.7349 44.6839C65.67 43.0639 67.2296 42.1565 68.2121 42.1402C69.1932 42.1238 70.0771 42.9822 70.0771 42.9822C70.0771 42.9822 70.4244 43.2165 70.3609 42.617C70.296 42.0175 70.5055 41.1592 71.4393 40.7382C72.3718 40.3185 73.0638 40.2518 73.0638 40.2518C73.0638 40.2518 72.4853 41.5502 72.6448 42.117C72.8056 42.6824 73.3368 44.0926 72.2421 45.5519C72.1705 45.6486 69.5933 48.0466 69.9825 48.0139C70.3744 47.9839 70.9001 48.2414 71.9704 47.7387C73.0394 47.2359 73.2246 46.6855 73.3057 46.3775C73.3854 46.0696 73.4503 45.8748 73.6598 45.9552C73.8692 46.0383 74.6733 46.4102 74.6085 47.0097C74.5449 47.6092 74.0057 47.9321 74.0057 47.9321C74.0057 47.9321 73.8125 48.3695 74.2314 48.1828C74.649 47.9962 75.1977 47.2754 76.1451 47.5016C77.0938 47.7291 77.7208 48.1828 77.6735 48.3777C77.6249 48.5725 76.6843 49.3178 76.1126 49.326C75.5423 49.3341 74.5923 48.9131 74.4639 48.8314C74.3341 48.751 73.8854 48.6624 74.1179 48.9377C74.3503 49.2129 74.849 49.4568 74.6801 49.9173C74.5112 50.3792 73.98 51.213 73.7881 50.995C73.5949 50.777 73.1516 49.7797 72.1313 49.3723C71.1109 48.9676 69.969 49.0657 69.969 49.0657C69.969 49.0657 72.261 50.183 72.8719 52.3398C72.8719 52.3398 73.2746 53.2963 73.0084 55.0457C73.0084 55.0457 72.9678 55.7433 73.2097 56.2924C73.4516 56.8442 73.3232 56.9164 72.3813 56.6494C71.4407 56.3823 70.9109 56.1057 70.6528 55.1411C70.6528 55.1411 70.6055 54.2909 70.6204 54.0075C70.6366 53.7227 69.7838 54.6479 69.7838 54.6479C68.4797 56.0935 65.3943 54.1233 65.9011 52.2417C66.2701 50.8629 68.0404 51.1394 68.0404 51.1394C68.0404 51.1394 67.1242 51.8193 67.7837 52.581C68.4432 53.3426 70.865 53.6805 70.8163 51.307C70.8163 51.307 70.6163 49.3219 67.4309 49.484C64.2469 49.6448 64.3267 52.3998 64.3267 52.3998C64.3267 52.3998 64.8091 54.3277 67.1079 56.2897C69.4081 58.2503 68.1215 60.5352 68.1215 60.5352C68.1215 60.5352 67.389 61.7015 64.9848 62.4877C62.5806 63.2738 62.4279 64.5219 62.4279 64.5219C62.4279 64.5219 61.7441 64.1826 61.9211 63.0081C62.1549 61.4508 64.4442 61.0189 64.2132 60.9658C63.9821 60.9113 62.236 60.82 61.7846 59.5869C61.3346 58.3579 63.0225 57.1889 64.0375 57.1739C65.051 57.1576 65.4849 57.8538 65.4849 57.8538C65.4849 57.8538 63.0887 57.9369 63.6509 59.2327C64.2145 60.5284 65.4997 60.7069 66.7863 59.8322C68.0729 58.9588 66.2552 56.8183 66.2552 56.8183C66.2552 56.8183 65.2105 56.3496 63.6509 52.9775C62.0914 49.608 61.3021 49.6393 61.3021 49.6393C61.3021 49.6393 62.7009 49.4295 63.1833 49.7374C63.6658 50.0454 63.6969 51.2934 64.0361 50.743C64.3726 50.1912 65.1456 49.4622 66.0619 49.0562C66.9796 48.6515 67.3323 48.5861 66.8498 48.4417C66.3674 48.2959 65.6687 48.0997 64.6875 47.379C63.7064 46.6582 63.7861 46.4715 63.7861 46.4715C63.7861 46.4715 63.5861 47.443 62.6928 47.7182C61.7995 47.9948 61.2048 47.7278 61.2048 47.7278C61.2048 47.7278 62.8779 46.3339 63.6969 43.7411C64.5159 41.1469 66.5593 40.076 66.689 38.9274C66.8174 37.7761 66.4633 37.2584 65.3051 36.9177C64.1469 36.5757 62.5063 37.8892 63.3117 38.6835C64.1158 39.4765 65.0956 39.4302 65.0956 39.4302C65.0956 39.4302 63.7766 41.1469 61.9603 39.4138C60.1426 37.6794 62.8293 36.6561 62.8293 36.6561C62.8293 36.6561 64.4051 36.3496 63.5199 36.1874C62.636 36.0267 61.5589 35.7501 61.317 34.8753C61.0764 33.9993 61.8224 33.0605 61.8224 33.0605L61.8251 33.0646ZM239.2 33.0646C239.2 33.0646 238.3 34.2963 236.498 34.7813C234.697 35.2677 232.944 36.355 232.895 38.0241C232.846 39.6931 234.326 41.0543 234.326 41.0543C234.326 41.0543 236.609 43.4209 236.835 44.5872C237.059 45.7535 235.933 47.4226 234.422 47.601C232.91 47.7795 230.449 47.567 230.353 44.8951C230.353 44.8951 230.579 43.6634 232.444 43.955C234.309 44.2479 233.376 46.0137 233.376 46.0137C233.376 46.0137 235.226 46.304 235.29 44.6839C235.353 43.0639 233.794 42.1565 232.813 42.1402C231.832 42.1238 230.948 42.9822 230.948 42.9822C230.948 42.9822 230.6 43.2165 230.665 42.617C230.729 42.0175 230.521 41.1592 229.588 40.7382C228.656 40.3185 227.964 40.2518 227.964 40.2518C227.964 40.2518 228.542 41.5502 228.381 42.117C228.221 42.6824 227.689 44.0926 228.783 45.5519C228.856 45.6486 231.434 48.0466 231.042 48.0139C230.65 47.9839 230.126 48.2414 229.056 47.7387C227.985 47.2359 227.802 46.6855 227.72 46.3775C227.639 46.0696 227.576 45.8748 227.366 45.9552C227.157 46.0383 226.353 46.4102 226.418 47.0097C226.483 47.6092 227.02 47.9321 227.02 47.9321C227.02 47.9321 227.214 48.3695 226.796 48.1828C226.377 47.9962 225.83 47.2754 224.882 47.5016C223.934 47.7291 223.305 48.1828 223.354 48.3777C223.403 48.5725 224.343 49.3178 224.914 49.326C225.485 49.3341 226.434 48.9131 226.562 48.8314C226.691 48.751 227.141 48.6624 226.908 48.9377C226.674 49.2129 226.177 49.4568 226.345 49.9173C226.514 50.3792 227.045 51.213 227.237 50.995C227.43 50.777 227.872 49.7797 228.894 49.3723C229.915 48.9676 231.057 49.0657 231.057 49.0657C231.057 49.0657 228.764 50.183 228.153 52.3398C228.153 52.3398 227.75 53.2963 228.016 55.0457C228.016 55.0457 228.057 55.7433 227.815 56.2924C227.575 56.8442 227.703 56.9164 228.643 56.6494C229.584 56.3823 230.115 56.1057 230.372 55.1411C230.372 55.1411 230.421 54.2909 230.404 54.0075C230.388 53.7227 231.24 54.6479 231.24 54.6479C232.544 56.0935 235.629 54.1233 235.124 52.2417C234.753 50.8629 232.986 51.1394 232.986 51.1394C232.986 51.1394 233.902 51.8193 233.242 52.581C232.584 53.3426 230.163 53.6805 230.211 51.307C230.211 51.307 230.413 49.3219 233.597 49.484C236.781 49.6448 236.701 52.3998 236.701 52.3998C236.701 52.3998 236.218 54.3277 233.918 56.2897C231.618 58.2503 232.906 60.5352 232.906 60.5352C232.906 60.5352 233.638 61.7015 236.041 62.4877C238.446 63.2738 238.598 64.5219 238.598 64.5219C238.598 64.5219 239.281 64.1826 239.104 63.0081C238.87 61.4508 236.581 61.0189 236.812 60.9658C237.043 60.9113 238.789 60.82 239.24 59.5869C239.69 58.3579 238.001 57.1889 236.989 57.1739C235.975 57.1576 235.541 57.8538 235.541 57.8538C235.541 57.8538 237.937 57.9369 237.375 59.2327C236.812 60.5284 235.525 60.7069 234.238 59.8322C232.952 58.9588 234.77 56.8183 234.77 56.8183C234.77 56.8183 235.814 56.3496 237.374 52.9775C238.935 49.608 239.723 49.6393 239.723 49.6393C239.723 49.6393 238.323 49.4295 237.84 49.7374C237.358 50.0454 237.327 51.2934 236.987 50.743C236.651 50.1912 235.878 49.4622 234.962 49.0562C234.045 48.6515 233.691 48.5861 234.174 48.4417C234.655 48.2959 235.355 48.0997 236.336 47.379C237.317 46.6582 237.236 46.4715 237.236 46.4715C237.236 46.4715 237.437 47.443 238.329 47.7182C239.221 47.9948 239.817 47.7278 239.817 47.7278C239.817 47.7278 238.144 46.3339 237.324 43.7411C236.503 41.1469 234.461 40.076 234.333 38.9274C234.203 37.7761 234.557 37.2584 235.716 36.9177C236.874 36.5757 238.514 37.8892 237.71 38.6835C236.906 39.4765 235.924 39.4302 235.924 39.4302C235.924 39.4302 237.243 41.1469 239.06 39.4138C240.878 37.6794 238.193 36.6561 238.193 36.6561C238.193 36.6561 236.616 36.3496 237.501 36.1874C238.385 36.0267 239.462 35.7501 239.702 34.8753C239.944 33.9993 239.197 33.0605 239.197 33.0605L239.2 33.0646Z" fill="#FDFDFD"/>
<path d="M121.64 244.408C129.095 252.011 137.575 259.225 147.278 266.224L150.149 268.296L153.021 266.224C162.724 259.226 171.203 252.011 178.659 244.408C186.115 236.805 192.553 228.81 198.172 220.251C203.79 211.694 208.591 202.574 212.775 192.719C216.962 182.854 220.532 172.253 223.685 160.745C223.882 160.023 224.076 159.278 224.265 158.515C224.455 157.745 224.632 156.997 224.796 156.271C224.965 155.517 225.126 154.765 225.277 154.017C225.428 153.268 225.576 152.513 225.715 151.753C226.291 148.615 226.773 145.376 227.162 142.079C227.564 138.689 227.865 135.257 228.072 131.825C228.285 128.285 228.399 124.745 228.418 121.253C228.437 117.69 228.358 114.153 228.187 110.697L228.019 107.307L224.826 106.23C223.24 105.696 221.655 105.188 220.077 104.702C218.52 104.224 216.925 103.755 215.298 103.294C213.676 102.835 212.075 102.399 210.491 101.982C208.893 101.561 207.28 101.15 205.658 100.745C201.19 99.6333 196.662 98.6141 192.088 97.7121C187.518 96.8129 182.921 96.0308 178.322 95.3918C173.713 94.7514 169.081 94.2514 164.44 93.9094C159.817 93.5702 155.184 93.3889 150.56 93.3889C145.935 93.3889 141.283 93.5702 136.648 93.9094C131.996 94.2487 127.353 94.7474 122.732 95.3836C118.117 96.0186 113.51 96.7911 108.93 97.6835C104.342 98.576 99.8007 99.5815 95.318 100.68C93.6422 101.09 91.9745 101.508 90.323 101.936C88.6837 102.36 87.0269 102.804 85.3511 103.27C83.7131 103.725 82.059 104.203 80.3872 104.709C78.7358 105.206 77.1032 105.722 75.4923 106.255L72.2772 107.323L72.1083 110.731C71.938 114.186 71.8596 117.719 71.8799 121.279C71.9001 124.769 72.0137 128.306 72.2272 131.844C72.434 135.272 72.7353 138.7 73.1367 142.087C73.5259 145.38 74.007 148.618 74.5828 151.753C74.722 152.513 74.8679 153.268 75.0193 154.017C75.1706 154.764 75.3315 155.516 75.5017 156.271C75.6639 156.997 75.841 157.745 76.0329 158.515C76.2207 159.276 76.4153 160.022 76.6126 160.745C79.7656 172.254 83.3361 182.854 87.5229 192.72C91.7069 202.577 96.5086 211.696 102.127 220.252C107.747 228.811 114.186 236.807 121.643 244.409M146.653 267.103C136.907 260.074 128.382 252.817 120.875 245.164C113.371 237.511 106.889 229.463 101.232 220.846C95.5775 212.235 90.7461 203.057 86.5363 193.143C82.332 183.236 78.7466 172.589 75.5801 161.033C75.3707 160.267 75.1733 159.515 74.9909 158.778C74.8098 158.047 74.6314 157.29 74.4557 156.509C74.2868 155.757 74.1246 154.998 73.9692 154.234C73.8151 153.47 73.6665 152.707 73.5286 151.949C72.9435 148.763 72.4583 145.506 72.0704 142.215C71.669 138.824 71.3663 135.373 71.1569 131.908C70.9447 128.374 70.8298 124.816 70.8095 121.283C70.7893 117.689 70.8676 114.138 71.0379 110.68L71.2433 106.527L75.1558 105.23C76.7937 104.688 78.4357 104.17 80.0791 103.674C81.7035 103.184 83.3699 102.703 85.0646 102.232C86.6998 101.776 88.3689 101.331 90.0582 100.894C91.7367 100.458 93.4057 100.039 95.0666 99.6333C99.5886 98.5242 104.15 97.5146 108.727 96.6262C113.314 95.7324 117.938 94.9545 122.589 94.3168C127.247 93.6764 131.914 93.1737 136.571 92.8317C141.246 92.4897 145.913 92.3071 150.558 92.3071C155.203 92.3071 159.854 92.4897 164.516 92.833C169.164 93.175 173.818 93.6778 178.463 94.3236C183.109 94.9681 187.724 95.7515 192.292 96.6521C196.86 97.5514 201.406 98.5746 205.912 99.6973C207.519 100.098 209.135 100.509 210.757 100.939C212.392 101.37 214.005 101.809 215.586 102.255C217.158 102.7 218.758 103.172 220.386 103.672C221.993 104.165 223.588 104.677 225.165 105.209L229.052 106.518L229.257 110.645C229.429 114.106 229.507 117.66 229.487 121.257C229.468 124.79 229.354 128.352 229.142 131.888C228.934 135.357 228.63 138.81 228.227 142.204C227.838 145.499 227.353 148.758 226.768 151.946C226.628 152.705 226.481 153.467 226.326 154.231C226.17 154.995 226.008 155.756 225.839 156.507C225.664 157.287 225.485 158.045 225.304 158.775C225.122 159.512 224.924 160.264 224.716 161.03C221.55 172.588 217.964 183.233 213.76 193.14C209.552 203.055 204.72 212.231 199.066 220.845C193.409 229.463 186.927 237.511 179.422 245.163C171.918 252.816 163.392 260.072 153.645 267.102L150.149 269.622L146.654 267.102L146.653 267.103Z" fill="#00832E"/>
<path fill-rule="evenodd" clip-rule="evenodd" d="M165.25 217.508V250.808C160.579 254.88 155.559 258.85 150.149 262.751C144.688 258.812 139.624 254.804 134.914 250.691V217.229C139.128 219.168 144.138 220.509 149.941 220.509C155.744 220.509 160.99 219.275 165.25 217.508Z" fill="#00832E"/>
<path fill-rule="evenodd" clip-rule="evenodd" d="M150.985 107.539C150.985 107.539 140.501 132.171 122.939 155.573C105.375 178.974 119.531 201.533 119.531 201.533C119.531 201.533 129.76 218.386 149.96 218.386C170.16 218.386 180.26 203.607 180.26 203.607C180.26 203.607 190.49 186.687 185.343 170.935C180.197 155.184 167.461 143.386 158.777 125.949C150.091 108.51 150.987 107.539 150.987 107.539" fill="#272C2E"/>
<path fill-rule="evenodd" clip-rule="evenodd" d="M223.342 113.34V127.55C223.036 135.825 222.207 144.108 220.865 151.418C220.335 154.299 219.702 157.165 218.929 159.991C212.519 183.39 204.427 202.731 193.006 219.666V103.536C196.864 104.325 200.69 105.195 204.472 106.139C210.598 107.667 217.094 109.437 223.261 111.513C223.29 112.118 223.317 112.728 223.34 113.34" fill="#077C35"/>
<path fill-rule="evenodd" clip-rule="evenodd" d="M165.25 99.5285V135.302C163.086 131.91 160.996 128.352 159.094 124.532C150.076 106.427 151.006 105.417 151.006 105.417C151.006 105.417 145.178 119.102 134.913 135.96V99.6021C140.141 99.1633 145.369 98.9263 150.558 98.9263C155.433 98.9263 160.34 99.1361 165.25 99.5285Z" fill="#077C35"/>
<path fill-rule="evenodd" clip-rule="evenodd" d="M107.289 103.649V219.665C95.8681 202.729 87.7756 183.39 81.3657 159.991C80.5913 157.166 79.9589 154.301 79.4304 151.418C78.0885 144.107 77.2587 135.824 76.9532 127.548V113.343C76.9762 112.741 77.0019 112.141 77.033 111.546C83.4159 109.43 90.1407 107.63 96.4816 106.077C100.047 105.203 103.654 104.39 107.289 103.647" fill="#077C35"/>
<path fill-rule="evenodd" clip-rule="evenodd" d="M150.465 145.228C169.245 145.228 184.467 161.191 184.467 180.882C184.467 200.573 169.245 216.534 150.465 216.534C131.685 216.534 116.463 200.573 116.463 180.882C116.463 161.191 131.685 145.228 150.465 145.228Z" fill="#FDFDFD"/>
<path fill-rule="evenodd" clip-rule="evenodd" d="M128.987 201.741C133.78 206.402 136.617 207.216 138.827 208.799C140.462 209.971 139.789 211.663 135.63 210.36C132.944 209.518 126.778 204.716 125.473 202.203C124.257 199.867 124.446 199.36 125.101 199.045C126.363 198.44 128.385 200.883 128.988 201.741M124.019 167.315C120.959 173.279 121 176.249 120.125 178.836C119.479 180.749 117.678 180.585 117.725 176.197C117.756 173.362 120.556 166.034 122.571 164.053C124.444 162.211 124.982 162.248 125.467 162.79C126.403 163.835 124.659 166.487 124.017 167.315H124.019ZM155.411 150.787C148.8 149.96 146.049 151.024 143.338 151.095C141.332 151.145 140.863 149.386 144.963 147.912C147.614 146.96 155.406 147.071 157.948 148.289C160.312 149.424 160.463 149.943 160.125 150.592C159.477 151.837 156.405 151.108 155.411 150.787ZM177.198 167.315C180.256 173.279 180.219 176.249 181.092 178.836C181.738 180.749 183.539 180.585 183.49 176.197C183.459 173.362 180.659 166.034 178.644 164.053C176.77 162.211 176.235 162.248 175.748 162.79C174.811 163.835 176.553 166.487 177.198 167.315ZM164.972 162.338C166.792 162.589 169.512 163.048 171.884 164.166C174.111 165.218 175.06 165.806 175.06 165.806C175.06 165.806 177.879 168.804 179.51 177.301C179.51 177.301 179.021 179.426 177.921 181.646C176.752 184.007 174.901 186.069 173.63 187.404C172.395 187.234 163.949 185.175 163.747 184.643C162.962 182.557 162.125 180.11 161.266 177.697C160.46 175.432 159.617 173.2 159.194 171.227C159.194 171.227 159.512 170.337 160.61 168.119C161.781 165.758 163.698 163.672 164.97 162.337L164.972 162.338ZM137.333 161.439C138.167 159.79 139.49 157.351 141.319 155.461C143.036 153.686 143.9 152.976 143.9 152.976C143.9 152.976 147.637 151.28 156.137 152.521C156.137 152.521 157.968 153.686 159.686 155.461C161.516 157.351 162.839 159.79 163.671 161.439C163.105 162.559 158.401 169.919 157.836 169.935C155.624 169.998 153.055 169.99 150.51 170.013C148.12 170.036 145.751 170.103 143.765 169.859C143.765 169.859 143.034 169.264 141.317 167.488C139.489 165.598 138.164 163.087 137.332 161.439H137.333ZM136.084 162.338C134.265 162.589 131.545 163.048 129.173 164.166C126.945 165.218 125.996 165.806 125.996 165.806C125.996 165.806 123.177 168.804 121.546 177.301C121.546 177.301 122.036 179.426 123.135 181.646C124.305 184.007 126.154 186.069 127.426 187.404C128.661 187.234 137.107 185.175 137.309 184.643C138.095 182.557 138.932 180.11 139.79 177.697C140.596 175.432 141.439 173.2 141.863 171.227C141.863 171.227 141.546 170.337 140.446 168.119C139.277 165.758 137.359 163.672 136.086 162.337L136.084 162.338ZM128.265 188.648C128 190.479 127.684 193.239 128.093 195.846C128.477 198.296 128.776 199.376 128.776 199.376C128.776 199.376 130.854 202.935 138.504 206.87C138.504 206.87 140.666 206.986 143.086 206.536C145.662 206.056 148.141 204.837 149.765 203.976C149.945 202.733 150.325 193.985 149.873 193.644C148.103 192.305 146 190.815 143.938 189.315C142.001 187.907 140.105 186.473 138.343 185.517C134.709 185.754 131.457 186.954 128.265 188.645V188.648ZM151.384 204.173C152.987 205.075 155.433 206.36 157.997 206.905C160.405 207.418 161.513 207.522 161.513 207.522C161.513 207.522 165.554 206.837 171.933 201.041C171.933 201.041 172.813 199.046 173.259 196.607C173.734 194.011 173.488 191.245 173.271 189.407C172.183 188.792 164.208 185.314 163.732 185.618C161.859 186.806 159.728 188.254 157.601 189.659C155.605 190.98 153.598 192.252 152.081 193.569C151.003 197.075 150.956 200.564 151.384 204.172V204.173ZM171.334 203.489C166.176 207.738 163.284 208.313 160.952 209.708C159.227 210.741 159.759 212.483 164.011 211.53C166.757 210.912 173.294 206.637 174.801 204.242C176.202 202.012 176.056 201.492 175.428 201.124C174.22 200.418 172.004 202.684 171.336 203.489H171.334Z" fill="#272C2E"/>
<path fill-rule="evenodd" clip-rule="evenodd" d="M140.871 231.611V243.001H138.056V236.887C138.056 236.004 138.034 235.47 137.994 235.293C137.951 235.116 137.836 234.978 137.648 234.887C137.46 234.796 137.041 234.751 136.391 234.751H136.111V233.429C137.474 233.136 138.507 232.528 139.213 231.611H140.87H140.871ZM141.971 239.977H144.786C144.786 240.51 144.793 240.846 144.808 240.984C144.823 241.123 144.88 241.24 144.982 241.334C145.082 241.428 145.22 241.476 145.393 241.476C145.539 241.476 145.658 241.43 145.754 241.341C145.847 241.252 145.901 241.141 145.913 240.999C145.926 240.856 145.93 240.574 145.93 240.149V238.337C145.789 238.639 145.58 238.865 145.301 239.015C145.02 239.168 144.671 239.243 144.258 239.243C143.742 239.243 143.283 239.101 142.887 238.82C142.49 238.54 142.239 238.202 142.133 237.808C142.027 237.414 141.971 236.882 141.971 236.21V235.302C141.971 234.503 142.002 233.91 142.066 233.522C142.128 233.131 142.29 232.77 142.551 232.443C142.812 232.111 143.173 231.854 143.635 231.67C144.094 231.487 144.629 231.396 145.24 231.396C145.994 231.396 146.615 231.502 147.097 231.714C147.581 231.925 147.958 232.227 148.222 232.625C148.489 233.022 148.641 233.436 148.684 233.873C148.724 234.309 148.746 235.154 148.746 236.406V237.991C148.746 239.345 148.727 240.251 148.691 240.709C148.653 241.165 148.491 241.6 148.204 242.007C147.918 242.415 147.531 242.72 147.042 242.924C146.551 243.129 145.986 243.231 145.343 243.231C144.548 243.231 143.898 243.101 143.394 242.844C142.889 242.585 142.524 242.22 142.302 241.751C142.081 241.281 141.973 240.688 141.973 239.976L141.971 239.977ZM144.785 236.431C144.785 236.912 144.847 237.206 144.973 237.319C145.096 237.432 145.225 237.487 145.357 237.487C145.554 237.487 145.7 237.414 145.789 237.273C145.882 237.128 145.927 236.848 145.927 236.431V234.369C145.927 233.866 145.885 233.538 145.796 233.384C145.711 233.227 145.565 233.151 145.362 233.151C145.24 233.151 145.112 233.211 144.981 233.331C144.85 233.451 144.782 233.772 144.782 234.298V236.429L144.785 236.431ZM155.09 236.542C155.505 236.71 155.824 236.962 156.045 237.299C156.268 237.635 156.38 238.431 156.38 239.694C156.38 240.612 156.292 241.289 156.117 241.727C155.938 242.161 155.595 242.518 155.083 242.799C154.571 243.077 153.884 243.216 153.022 243.216C152.16 243.216 151.522 243.081 151.034 242.814C150.542 242.548 150.193 242.193 149.981 241.751C149.769 241.312 149.664 240.578 149.664 239.551C149.664 238.863 149.716 238.265 149.82 237.758C149.926 237.252 150.254 236.846 150.806 236.541C150.458 236.373 150.199 236.104 150.024 235.734C149.85 235.368 149.764 234.899 149.764 234.332C149.764 233.354 150.033 232.617 150.573 232.126C151.112 231.637 151.919 231.392 152.994 231.392C154.237 231.392 155.094 231.652 155.568 232.173C156.041 232.693 156.279 233.439 156.279 234.403C156.279 235.018 156.201 235.462 156.045 235.732C155.89 236.003 155.572 236.274 155.088 236.541L155.09 236.542ZM153.508 234.102C153.508 233.717 153.475 233.462 153.406 233.339C153.338 233.214 153.207 233.152 153.015 233.152C152.823 233.152 152.7 233.219 152.634 233.354C152.569 233.486 152.535 233.736 152.535 234.102V234.966C152.535 235.309 152.575 235.544 152.649 235.676C152.725 235.808 152.852 235.873 153.03 235.873C153.218 235.873 153.345 235.808 153.411 235.68C153.476 235.552 153.508 235.286 153.508 234.883V234.102ZM153.565 238.827C153.565 238.39 153.521 238.102 153.431 237.958C153.341 237.816 153.2 237.745 153.008 237.745C152.817 237.745 152.684 237.815 152.604 237.95C152.521 238.09 152.48 238.38 152.48 238.826V240.299C152.48 240.791 152.526 241.108 152.619 241.247C152.71 241.389 152.854 241.458 153.052 241.458C153.249 241.458 153.39 241.386 153.461 241.244C153.53 241.1 153.567 240.778 153.567 240.277V238.826L153.565 238.827ZM163.993 235.467V239.263C163.993 240.127 163.944 240.754 163.851 241.148C163.759 241.543 163.566 241.911 163.273 242.254C162.981 242.596 162.628 242.841 162.213 242.991C161.801 243.141 161.339 243.217 160.827 243.217C160.152 243.217 159.594 243.138 159.145 242.981C158.699 242.823 158.345 242.577 158.078 242.247C157.813 241.912 157.625 241.563 157.513 241.195C157.401 240.826 157.345 240.24 157.345 239.439V235.467C157.345 234.421 157.436 233.639 157.616 233.118C157.794 232.598 158.149 232.18 158.682 231.865C159.214 231.551 159.859 231.395 160.616 231.395C161.236 231.395 161.789 231.502 162.277 231.722C162.765 231.94 163.129 232.207 163.37 232.52C163.613 232.835 163.778 233.188 163.863 233.582C163.95 233.975 163.992 234.603 163.992 235.467H163.993ZM161.178 234.515C161.178 233.91 161.15 233.534 161.09 233.38C161.033 233.229 160.897 233.152 160.681 233.152C160.464 233.152 160.333 233.234 160.266 233.395C160.197 233.556 160.164 233.93 160.164 234.516V240.064C160.164 240.724 160.194 241.123 160.259 241.257C160.321 241.393 160.456 241.461 160.668 241.461C160.881 241.461 161.014 241.382 161.081 241.22C161.146 241.062 161.178 240.705 161.178 240.147V234.515Z" fill="#FDFDFD"/>
</g>
<defs>
<clipPath id="clip0_1444_13042">
<rect width="200.907" height="288" fill="white" transform="translate(50 6)"/>
</clipPath>
</defs>
</svg>
