<svg width="300" height="300" viewBox="0 0 300 300" fill="none" xmlns="http://www.w3.org/2000/svg">
<g clip-path="url(#clip0_1444_13730)">
<path d="M149.208 283.603C222.087 283.603 281.167 224.523 281.167 151.644C281.167 78.7643 222.087 19.6841 149.208 19.6841C76.3286 19.6841 17.2483 78.7643 17.2483 151.644C17.2483 224.523 76.3286 283.603 149.208 283.603Z" fill="white"/>
<path d="M141.038 17.7101C126.065 18.7039 111.265 22.2622 97.4942 28.2217C83.4174 34.2924 70.4213 42.8406 59.2529 53.3418C46.0657 65.709 35.4255 80.7935 28.2568 97.3966C22.1931 111.369 18.6035 126.409 17.6687 141.608C16.3309 162.582 20.0143 183.88 28.4826 203.124C39.1193 227.525 57.3278 248.531 79.9321 262.573C97.3865 273.505 117.447 280.222 137.959 282.05C158.903 283.957 180.305 280.865 199.788 272.924C215.502 266.562 229.958 257.124 242.137 245.337C254.633 233.265 264.741 218.726 271.656 202.784C280.476 182.58 284.027 160.143 282.064 138.199C280.281 117.652 273.571 97.553 262.649 80.0568C248.625 57.4352 227.636 39.1989 203.242 28.5344C183.793 19.9514 162.242 16.2715 141.038 17.7101ZM142.39 15.2151C163.528 14.0163 184.947 17.8144 204.32 26.3765C229.047 37.2182 250.331 55.6908 264.588 78.6148C275.732 96.4063 282.595 116.849 284.448 137.761C286.39 159.128 283.21 180.961 275.093 200.831C268.147 217.938 257.614 233.571 244.417 246.48C231.834 258.806 216.826 268.654 200.487 275.239C180.621 283.287 158.809 286.414 137.476 284.416C116.714 282.536 96.4205 275.711 78.7402 264.665C56.6155 250.935 38.6085 230.67 27.6243 207.058C18.5687 187.761 14.2842 166.287 15.0973 144.996C15.5074 133.383 17.4325 121.822 20.8135 110.706C26.1406 93.1364 35.1336 76.6966 47.0282 62.7101C63.044 43.7858 84.3591 29.3823 107.936 21.6958C119.066 18.0333 130.69 15.8754 142.39 15.2151Z" fill="#EC1C24"/>
<path d="M147.324 54.1933C136.441 54.4887 125.606 56.6466 115.456 60.5802C101.973 65.7717 89.7243 74.0941 79.8834 84.6613C70.9008 94.2833 63.9197 105.768 59.5622 118.191C52.105 139.255 52.3656 162.947 60.3023 183.838C66.2896 199.764 76.6482 214.001 89.905 224.662C99.4367 232.345 110.449 238.193 122.169 241.734C133.932 245.31 146.39 246.557 158.632 245.459C176.447 243.92 193.752 237.178 207.961 226.333C221.576 215.999 232.362 201.971 238.794 186.128C247.558 164.747 248.163 140.173 240.5 118.378C236.178 105.99 229.256 94.5196 220.335 84.901C209.153 72.7945 194.809 63.6277 179.092 58.6516C168.855 55.3783 158.058 53.9014 147.317 54.1898M147.126 51.257C157.846 50.9547 168.622 52.3551 178.88 55.5034C195.316 60.4968 210.363 69.9207 222.087 82.4651C230.399 91.3261 237.067 101.73 241.616 112.996C250.286 134.307 251.109 158.68 243.965 180.548C238.349 197.915 227.758 213.618 213.82 225.402C200.859 236.414 185.003 243.999 168.274 247.099C156.484 249.302 144.294 249.347 132.486 247.235C122.381 245.424 112.561 242.022 103.509 237.175C89.7903 229.857 77.8506 219.248 68.9583 206.495C63.3324 198.454 58.9193 189.565 55.9239 180.221C49.1235 159.139 49.6934 135.756 57.578 115.049C62.3351 102.442 69.7401 90.8431 79.1363 81.1898C88.6158 71.4149 100.139 63.6207 112.756 58.4918C123.65 54.0369 135.36 51.5941 147.126 51.2605V51.257Z" fill="#EC1C24"/>
<path d="M144.374 157.152C148.728 158.782 153.659 157.788 158.416 155.053C164.682 151.262 168.622 145.354 169.453 138.095C169.494 137.633 169.477 136.247 169.453 135.799C169.063 128.654 165.126 123.984 160.185 121.378C156.554 119.463 151.3 118.021 148.832 117.5C148.527 117.434 148.325 117.138 148.381 116.832C148.961 113.587 151.856 104.177 166.29 90.5414C180.11 77.4862 193.468 75.8738 197.721 75.7105C198.051 75.6966 198.326 75.9641 198.326 76.2943V112.788C198.326 136.139 195.695 143.753 183.515 155.654C175.131 163.844 159.4 167.705 149.632 166.583C145.66 166.127 141.792 164.671 138.436 162.51C134.676 160.092 131.489 156.69 129.717 152.554C128.758 150.324 128.091 147.943 128.053 145.511C128.011 142.783 128.615 140.024 129.981 137.647C131.937 134.238 135.531 131.715 139.447 131.438C143.366 131.16 147.453 133.335 149.065 136.917C150.539 140.187 149.826 144.201 147.689 147.082C146.41 148.805 144.673 150.146 142.751 151.078C141.771 151.554 140.743 151.926 139.687 152.2C139.374 152.28 138.613 152.28 138.536 152.673C138.474 152.996 139.009 153.454 139.169 153.698C139.169 153.698 140.461 155.682 144.381 157.148L144.374 157.152Z" fill="#EC1C24"/>
<path d="M136.225 89.1546C139.27 92.0875 141.74 95.4442 143.631 99.1137C140.541 100.83 129.338 107.568 122.826 118.16C117.906 126.162 116.311 133.887 116.311 140.535C116.311 144.84 116.978 148.694 117.843 151.877C119.16 156.721 123.799 162.541 127.128 166.263C122.517 163.629 115.39 158.76 110.72 151.731C102.206 138.922 101.595 128.473 101.595 112.791V75.6929C105.577 75.6929 123.031 76.4539 136.225 89.1546Z" fill="#EC1C24"/>
<path d="M138.272 226.882V237.693H135.284V230.607C134.801 230.976 134.332 231.271 133.88 231.5C133.428 231.726 132.862 231.945 132.181 232.154V229.732C133.185 229.409 133.967 229.019 134.523 228.564C135.079 228.109 135.513 227.55 135.829 226.882H138.272Z" fill="#005AA5"/>
<path d="M141.611 235.305L144.548 234.937C144.624 235.347 144.756 235.639 144.94 235.806C145.125 235.976 145.35 236.06 145.615 236.06C146.087 236.06 146.459 235.82 146.723 235.344C146.918 234.989 147.06 234.246 147.157 233.102C146.803 233.464 146.442 233.731 146.07 233.902C145.698 234.072 145.267 234.155 144.781 234.155C143.828 234.155 143.026 233.818 142.369 233.141C141.712 232.463 141.386 231.608 141.386 230.573C141.386 229.867 141.552 229.224 141.886 228.644C142.22 228.064 142.678 227.626 143.262 227.327C143.846 227.028 144.583 226.882 145.465 226.882C146.528 226.882 147.38 227.067 148.026 227.431C148.669 227.796 149.183 228.377 149.566 229.172C149.951 229.968 150.142 231.017 150.142 232.324C150.142 234.242 149.739 235.649 148.933 236.539C148.127 237.432 147.008 237.877 145.576 237.877C144.732 237.877 144.065 237.78 143.575 237.582C143.088 237.387 142.682 237.099 142.355 236.723C142.032 236.348 141.782 235.875 141.608 235.309L141.611 235.305ZM147.05 230.566C147.05 229.989 146.904 229.541 146.615 229.214C146.327 228.887 145.972 228.724 145.556 228.724C145.163 228.724 144.84 228.87 144.579 229.165C144.322 229.461 144.19 229.902 144.19 230.493C144.19 231.083 144.325 231.542 144.593 231.855C144.861 232.168 145.194 232.327 145.597 232.327C146 232.327 146.358 232.175 146.633 231.872C146.907 231.566 147.046 231.132 147.046 230.569L147.05 230.566Z" fill="#005AA5"/>
<path d="M156.463 235.705H151.084V233.276L156.463 226.882H159.038V233.415H160.373V235.705H159.038V237.693H156.463V235.705ZM156.463 233.415V230.069L153.621 233.415H156.463Z" fill="#005AA5"/>
<path d="M161.422 235.305L164.358 234.937C164.435 235.347 164.567 235.639 164.751 235.806C164.935 235.976 165.161 236.06 165.425 236.06C165.898 236.06 166.269 235.82 166.533 235.344C166.728 234.989 166.871 234.246 166.968 233.102C166.617 233.464 166.252 233.731 165.88 233.902C165.508 234.072 165.078 234.155 164.591 234.155C163.639 234.155 162.836 233.818 162.179 233.141C161.523 232.463 161.196 231.608 161.196 230.573C161.196 229.867 161.363 229.224 161.696 228.644C162.03 228.064 162.489 227.626 163.072 227.327C163.656 227.028 164.393 226.882 165.276 226.882C166.339 226.882 167.194 227.067 167.837 227.431C168.479 227.796 168.994 228.377 169.376 229.172C169.762 229.968 169.953 231.017 169.953 232.324C169.953 234.242 169.55 235.649 168.744 236.539C167.937 237.432 166.818 237.877 165.387 237.877C164.542 237.877 163.875 237.78 163.385 237.582C162.899 237.387 162.492 237.099 162.169 236.723C161.846 236.348 161.596 235.875 161.422 235.309V235.305ZM166.86 230.566C166.86 229.989 166.714 229.541 166.426 229.214C166.134 228.887 165.783 228.724 165.366 228.724C164.973 228.724 164.65 228.87 164.389 229.165C164.132 229.461 164 229.902 164 230.493C164 231.083 164.136 231.542 164.403 231.855C164.671 232.168 165.005 232.327 165.408 232.327C165.811 232.327 166.169 232.175 166.443 231.872C166.718 231.566 166.857 231.132 166.857 230.569L166.86 230.566Z" fill="#005AA5"/>
<path d="M137.407 32.5312C137.108 34.498 136.709 36.4509 136.371 38.4143C137.546 38.2718 138.72 38.1293 139.895 37.9764C139.075 36.159 138.314 34.3069 137.41 32.5312H137.407Z" fill="#005AA5"/>
<path d="M118.778 38.3204C119.761 37.6011 119.119 35.8637 117.948 35.8046C116.971 35.7699 116.064 36.2251 115.122 36.4058C115.327 37.3996 115.654 38.3656 115.925 39.3455C116.881 39.0328 117.937 38.9147 118.775 38.317L118.778 38.3204Z" fill="#005AA5"/>
<path d="M83.8969 60.9904C85.8602 61.4074 87.9764 59.9514 88.2996 57.9707C88.5846 56.334 87.7436 54.746 86.6525 53.5888C85.7073 52.5742 84.2166 52.0286 82.8544 52.4143C80.9467 52.8695 79.6089 54.9475 80.0988 56.8726C80.5749 58.7282 81.9405 60.5699 83.9004 60.9869L83.8969 60.9904Z" fill="#005AA5"/>
<path d="M117.649 45.3984C118.729 45.0927 119.904 44.9293 120.853 44.2865C121.899 43.6401 121.506 41.6455 120.234 41.5969C119.046 41.5448 117.941 42.066 116.804 42.3301C117.048 43.3656 117.385 44.3699 117.649 45.4019V45.3984Z" fill="#005AA5"/>
<path d="M88.8626 238.53C87.9417 239.837 87.0799 241.182 86.1869 242.506C86.9027 242.964 87.5838 243.513 88.4074 243.77C90.3116 244.379 92.129 241.752 90.9718 240.157C90.4436 239.423 89.6062 239.01 88.866 238.53H88.8626Z" fill="#005AA5"/>
<path d="M247.242 81.6626C246.557 82.0865 245.918 82.573 245.247 83.0109C245.108 83.1533 244.632 83.2958 244.868 83.5495C245.424 84.3313 245.883 85.2487 246.707 85.7873C247.718 86.3885 249.066 85.2279 248.743 84.1367C248.454 83.202 247.742 82.4861 247.242 81.6626Z" fill="#005AA5"/>
<path d="M242.203 85.1792C241.293 85.7526 240.431 86.3885 239.555 87.007C240.25 87.9035 240.754 88.9946 241.699 89.6688C242.655 90.4055 244.365 89.3838 244.003 88.1815C243.666 87.0417 242.818 86.1695 242.203 85.1792Z" fill="#005AA5"/>
<path d="M241.466 60.1183C230.076 48.5052 216.458 39.0847 201.564 32.5449C182.845 24.2781 162.114 20.692 141.706 22.0264C122.531 23.2252 103.645 28.8337 86.9376 38.3167C71.1789 47.2194 57.3453 59.5067 46.6252 74.0943C36.7704 87.4623 29.5565 102.773 25.5499 118.889C22.8673 129.637 21.5989 140.736 21.7623 151.811C22.009 172.907 27.5897 193.916 37.8928 212.329C50.3572 234.781 69.7298 253.319 92.7198 264.769C111.905 274.402 133.557 279.016 155.004 278.151C174.908 277.425 194.618 271.945 212.031 262.274C227.473 253.729 241.122 241.963 251.843 227.942C263.133 213.254 271.173 196.077 275.183 177.987C279.941 156.627 279.159 134.047 272.852 113.086C266.917 93.2202 256.012 74.8831 241.466 60.1183ZM223.626 69.3233C223.953 68.1314 224.7 67.1167 225.538 66.2306C227.723 63.9824 229.978 61.7967 232.147 59.5345C233.252 60.4727 234.207 61.5708 235.271 62.5577C233.561 64.4063 231.726 66.1368 229.975 67.9472C229.12 68.8507 228.019 69.6638 227.692 70.9287C227.358 72.0789 228.109 73.3229 229.172 73.7781C230.069 74.1326 231.052 73.7086 231.761 73.1457C232.626 72.4264 233.367 71.575 234.176 70.7932C235.691 69.2399 237.265 67.7387 238.746 66.1472C239.329 66.4843 239.736 67.0438 240.226 67.4955C240.772 68.0828 241.439 68.5727 241.877 69.2573C239.628 71.4465 237.453 73.7121 235.222 75.9187C233.905 77.2079 232.14 78.226 230.243 78.0696C228.019 77.882 226.187 76.353 224.839 74.6781C223.633 73.2187 223.029 71.1685 223.619 69.3268L223.626 69.3233ZM222.428 51.7438C220.238 54.7947 218.122 57.8943 215.95 60.9557C215.822 61.1503 215.533 61.4631 215.902 61.6055C217.09 62.4291 218.282 63.2561 219.463 64.0936C218.713 65.0631 218.136 66.2272 217.274 67.0646C214.783 65.4523 212.402 63.6557 209.939 61.9913C212.875 57.7102 215.874 53.4673 218.866 49.221C220.061 50.0515 221.277 50.8542 222.431 51.7403L222.428 51.7438ZM198.882 44.8009C200.004 43.2233 201.741 42.094 203.649 41.736C206.832 41.194 210.307 42.6812 211.975 45.475C211.301 46.8302 210.689 48.2202 209.914 49.5198C209.543 47.5252 207.77 45.7982 205.685 45.8052C203.382 45.8677 201.616 48.0499 201.401 50.2322C201.21 51.914 202.336 53.5403 203.885 54.1345C205.07 54.6696 206.412 54.5133 207.635 54.204C206.982 55.521 206.346 56.8519 205.651 58.148C201.926 58.4086 197.995 55.8858 197.13 52.1642C196.546 49.6032 197.377 46.8928 198.885 44.8009H198.882ZM168.483 29.5496C169.925 29.6573 171.343 29.9735 172.778 30.175C172.239 34.0878 171.541 37.9762 170.964 41.882C172.497 42.1218 174.036 42.3476 175.565 42.6117C175.391 43.8384 175.176 45.065 174.995 46.2916C172.014 45.8399 169.039 45.3499 166.061 44.8843C166.867 39.7727 167.691 34.6646 168.483 29.553V29.5496ZM152.919 27.9963L153.114 27.9025C154.497 27.9859 155.883 28.0901 157.266 28.1804C156.999 32.1245 156.703 36.065 156.45 40.0055C157.999 40.0924 159.546 40.214 161.095 40.3252C161.005 41.5762 160.97 42.8376 160.804 44.0781C157.819 43.8036 154.82 43.6542 151.828 43.4283C152.196 38.282 152.526 33.1322 152.923 27.9963H152.919ZM134.353 29.1256C136.1 28.9171 137.848 28.7121 139.593 28.4723C142.074 33.3928 144.545 38.3237 146.97 43.2754C145.427 43.47 143.884 43.6716 142.338 43.8314C141.966 42.9801 141.573 42.1391 141.195 41.2878C139.443 41.4685 137.702 41.7395 135.951 41.9028C135.729 42.8306 135.583 43.7723 135.385 44.7036C133.845 44.8913 132.313 45.0928 130.773 45.2631C131.934 39.877 133.168 34.5082 134.356 29.1291L134.353 29.1256ZM116.843 32.6943C118.073 32.3434 119.449 32.0028 120.682 32.5275C122.065 33.0279 122.872 34.5082 122.976 35.9121C123.056 37.097 122.329 38.1048 121.53 38.897C122.767 38.9631 124.129 39.2862 124.943 40.2974C125.978 41.6874 126.246 43.7411 125.262 45.2318C124.498 46.4237 123.177 47.1013 121.85 47.4731C119.345 48.1924 116.843 48.9256 114.334 49.6206C112.899 44.6411 111.498 39.6546 110.035 34.682C112.287 33.9696 114.577 33.3685 116.846 32.6943H116.843ZM103.252 37.3855C103.767 38.5252 104.302 39.6615 104.767 40.8221C103.721 41.2774 102.675 41.7256 101.643 42.2156C103.259 45.8052 104.858 49.3982 106.446 53.0017C105.146 53.6411 103.808 54.197 102.484 54.7843C100.827 51.1947 99.3221 47.5287 97.609 43.9704C96.6013 44.4743 95.5657 44.9225 94.5267 45.3534C94.0229 44.231 93.5399 43.0982 93.0117 41.9828C96.4032 40.4052 99.8468 38.9422 103.252 37.3889V37.3855ZM75.7727 55.4237C76.353 51.8063 79.6125 49.082 83.0804 48.3523C85.2244 47.9283 87.5248 48.5121 89.2136 49.9055C91.0136 51.4032 92.3237 53.5542 92.6225 55.8928C92.9109 57.9847 92.1881 60.1426 90.8051 61.7202C89.2518 63.4681 87.1043 64.7712 84.7623 65.0631C82.5314 65.3619 80.2379 64.5349 78.6291 62.9886C76.624 61.0635 75.3175 58.2314 75.7692 55.4202L75.7727 55.4237ZM59.4962 67.9229C60.8306 65.831 62.8912 64.0797 65.3654 63.5654C69.219 62.7036 73.1074 65.3376 74.6538 68.7882C75.6476 70.9565 75.446 73.5731 74.2298 75.6164C72.7356 78.1669 70.1017 80.2449 67.0611 80.3874C63.6105 80.5681 60.424 78.1843 58.982 75.1577C57.8839 72.8642 58.148 70.0565 59.4962 67.9299V67.9229ZM50.7673 79.1295C51.8341 79.7723 52.8696 80.4708 53.9121 81.1519C53.0294 82.5523 52.1294 83.9387 51.2086 85.3113C51.8341 85.7561 52.4943 86.1488 53.1163 86.604C54.0372 85.4017 54.7738 84.0638 55.6391 82.8233C56.6329 83.4696 57.6337 84.1125 58.624 84.7658C57.8179 86.0306 57.0047 87.292 56.1708 88.536C57.797 89.6341 59.4511 90.694 61.1121 91.7434C60.3962 93.0221 59.5484 94.2245 58.7422 95.4442C54.409 92.6017 50.0619 89.7801 45.7009 86.9793C47.3515 84.3384 49.0993 81.76 50.7603 79.126L50.7673 79.1295ZM65.9283 237.255C62.9155 237.443 60.0939 235.875 58.0472 233.766C55.5835 231.421 53.7557 228.043 54.2491 224.554C54.7912 219.345 59.2565 214.911 64.4271 214.258C67.1376 213.789 69.9522 214.644 72.0545 216.381C74.5669 218.445 76.7352 221.232 77.2391 224.523C77.6213 227.921 76.2349 231.417 73.7955 233.784C71.7244 235.862 68.875 237.178 65.9283 237.255ZM97.2823 243.635C96.7472 245.07 95.8437 246.39 94.6518 247.363C93.1298 248.538 91.0623 248.607 89.2379 248.312C89.3491 251.724 89.4916 255.133 89.582 258.549C87.5352 257.232 85.4503 255.943 83.4696 254.553C83.4314 251.982 83.4974 249.407 83.4974 246.835C83.1708 246.988 83.0387 247.346 82.8406 247.621C81.8468 249.17 80.8599 250.724 79.8349 252.253C78.1634 251.127 76.4642 250.046 74.7928 248.924C78.6013 243.086 82.3368 237.199 86.1766 231.386C88.6368 232.901 91.0345 234.524 93.4669 236.091C94.6623 236.98 96.0383 237.787 96.7437 239.159C97.4352 240.518 97.8453 242.162 97.2789 243.638L97.2823 243.635ZM121.224 258.827C120.47 262.048 118.333 264.946 115.394 266.496C113.138 267.633 110.466 267.393 108.114 266.705C105.313 265.801 102.55 264.776 99.7634 263.824C101.605 258.49 103.464 253.163 105.316 247.833C105.789 246.543 106.168 245.216 106.706 243.951C109.382 244.928 112.103 245.789 114.775 246.773C116.926 247.61 119.136 248.806 120.272 250.915C121.739 253.25 122.024 256.211 121.224 258.831V258.827ZM143.016 274.051C142.769 272.8 142.463 271.563 142.178 270.322C139.846 270.124 137.518 269.891 135.187 269.728C134.731 270.871 134.241 272.004 133.817 273.161C131.635 273.04 129.453 272.831 127.271 272.678C130.374 265.909 133.494 259.15 136.584 252.374C139.019 252.527 141.455 252.753 143.888 252.955C145.743 260.189 147.623 267.417 149.455 274.655C147.311 274.443 145.16 274.301 143.019 274.054L143.016 274.051ZM176.899 269.168C175.899 271.038 173.755 271.837 171.777 272.157C168.216 272.765 164.664 273.436 161.095 273.971C159.872 267.084 158.656 260.196 157.409 253.316C160.453 252.711 163.517 252.214 166.568 251.638C168.414 251.301 170.495 250.859 172.212 251.884C174.623 253.177 175.707 256.742 173.984 258.987C173.553 259.626 172.921 260.082 172.358 260.592C174.095 260.7 175.822 261.513 176.847 262.948C178.018 264.797 178.084 267.302 176.903 269.168H176.899ZM202.871 262.365C201.915 261.482 201.085 260.474 200.181 259.54C198.055 260.516 195.959 261.551 193.826 262.507C193.954 263.765 194.222 265.006 194.302 266.267C192.321 267.139 190.424 268.195 188.419 269.009C187.765 261.6 187.018 254.195 186.33 246.79C188.537 245.748 190.736 244.691 192.946 243.656C196.581 247.357 200.219 251.054 203.858 254.755C205.432 256.402 207.103 257.962 208.615 259.665C206.686 260.537 204.761 261.416 202.867 262.361L202.871 262.365ZM226.062 248.1C224.676 250.081 222.584 251.579 220.238 252.183C218.612 252.59 216.916 252.593 215.252 252.517C215.134 250.689 214.991 248.861 214.89 247.033C217.003 247.242 219.495 247.513 221.208 245.98C222.4 244.945 221.309 242.721 219.79 242.895C217.82 243.093 216.089 244.302 214.091 244.358C212.931 244.368 211.697 244.274 210.689 243.649C209.539 242.912 208.65 241.807 208.048 240.594C207.061 238.523 207.433 235.914 208.931 234.18C211.051 231.674 214.261 229.888 217.611 230.069C217.893 231.685 218.188 233.301 218.504 234.913C216.819 234.895 214.838 234.746 213.601 236.129C212.646 237.085 213.41 238.965 214.772 238.951C215.978 238.878 217.024 238.186 218.164 237.849C220.211 237.116 222.74 237.029 224.505 238.475C225.913 239.68 227.077 241.303 227.404 243.155C227.72 244.914 227.039 246.672 226.066 248.111L226.062 248.1ZM242.547 232.772C242.377 232.918 242.161 233.353 241.908 233.096C240.177 231.64 238.482 230.135 236.768 228.658C236.365 228.328 236.007 227.873 235.458 227.81C230.819 226.841 226.187 225.84 221.545 224.898C222.928 223.001 224.613 221.326 226.111 219.512C228.728 220.193 231.302 221.041 233.929 221.691C232.845 219.276 231.765 216.854 230.611 214.47C231.987 212.694 233.537 211.058 234.968 209.327C236.654 213.928 238.211 218.57 239.892 223.171C241.866 225.089 244.055 226.809 246.116 228.648C244.948 230.041 243.725 231.382 242.554 232.772H242.547ZM243.968 180.548C238.353 197.916 227.761 213.619 213.824 225.402C200.862 236.414 185.006 244 168.278 247.099C156.488 249.302 144.298 249.348 132.49 247.235C122.385 245.424 112.565 242.023 103.513 237.175C89.7939 229.857 77.8542 219.248 68.9619 206.495C63.336 198.454 58.9229 189.565 55.9275 180.221C49.1271 159.139 49.697 135.757 57.5816 115.05C62.3387 102.443 69.7437 90.8434 79.1399 81.1901C88.6194 71.4152 100.142 63.621 112.76 58.492C123.653 54.0372 135.364 51.5943 147.13 51.2608C157.85 50.9584 168.626 52.3588 178.883 55.5071C195.32 60.5005 210.366 69.9245 222.09 82.4689C230.402 91.3299 237.067 101.734 241.619 112.999C250.289 134.311 251.113 158.684 243.968 180.551V180.548ZM252.406 87.0036C251.735 88.1851 250.505 89.1789 249.087 89.1441C248.312 89.1615 247.607 88.8245 246.943 88.47C247.346 89.7175 247.471 91.2256 246.672 92.3445C245.727 93.6025 244.118 94.4399 242.526 94.1793C241.032 93.9465 239.844 92.8623 239.013 91.66C237.557 89.5611 236.07 87.4797 234.635 85.3635C234.409 85.0959 234.892 84.9673 235.031 84.8144C238.259 82.594 241.46 80.3422 244.674 78.1009C245.56 77.538 246.359 76.8291 247.294 76.3461C248.833 78.4519 250.3 80.6098 251.783 82.7538C252.631 83.9631 253.094 85.6067 252.409 86.9967L252.406 87.0036Z" fill="#005AA5"/>
<path d="M282.071 138.199C280.288 117.652 273.578 97.5534 262.656 80.0573C248.632 57.4357 227.643 39.1994 203.249 28.5349C183.793 19.9519 162.242 16.272 141.038 17.7106C126.065 18.7044 111.265 22.2627 97.4943 28.2222C83.4174 34.2928 70.4213 42.8411 59.2529 53.3422C46.0657 65.7094 35.4255 80.794 28.2568 97.3971C22.1931 111.37 18.6035 126.409 17.6688 141.608C16.3309 162.583 20.0143 183.88 28.4827 203.124C39.1194 227.525 57.3279 248.531 79.9321 262.573C97.3865 273.505 117.447 280.222 137.96 282.05C158.903 283.958 180.305 280.865 199.788 272.925C215.502 266.562 229.958 257.124 242.137 245.338C254.633 233.266 264.741 218.727 271.656 202.784C280.476 182.581 284.027 160.143 282.064 138.199H282.071ZM275.753 181.392C271.295 199.379 262.868 216.36 251.283 230.826C240.299 244.594 226.49 256.099 210.946 264.384C193.766 273.595 174.467 278.784 154.993 279.492C133.317 280.354 111.432 275.687 92.0491 265.93C68.868 254.369 49.3321 235.663 36.7495 213.024C27.402 196.314 21.8734 177.494 20.6815 158.385C19.851 145.462 20.9387 132.414 23.9479 119.817C27.7008 104.069 34.4699 89.0469 43.7653 75.7901C53.8147 61.4249 66.797 49.1168 81.6973 39.8735C99.8329 28.5627 120.821 21.8944 142.161 20.6573C163.413 19.3612 184.989 23.3399 204.309 32.3191C217.771 38.5357 230.145 47.0978 240.719 57.4878C256.502 72.9268 268.255 92.4557 274.415 113.663C280.83 135.597 281.282 159.229 275.753 181.399V181.392Z" fill="#005AA5"/>
<path d="M192.87 257.5C192.87 257.851 193.297 257.674 193.478 257.569C194.726 256.965 196.004 256.43 197.241 255.804C195.428 253.799 193.624 251.784 191.834 249.758C192.099 252.347 192.543 254.915 192.87 257.496V257.5Z" fill="#005AA5"/>
<path d="M136.781 265.197C138.359 265.325 139.93 265.502 141.507 265.638C140.972 262.987 140.406 260.349 139.874 257.698C138.766 260.161 137.81 262.695 136.785 265.193L136.781 265.197Z" fill="#005AA5"/>
<path d="M110.741 250.682C109.58 254.161 108.319 257.604 107.193 261.093C108.339 261.413 109.5 261.861 110.716 261.715C112.409 261.572 113.865 260.398 114.615 258.911C115.453 257.271 115.845 255.189 114.911 253.507C114.056 251.961 112.37 251.151 110.744 250.686L110.741 250.682Z" fill="#005AA5"/>
<path d="M69.5561 221.114C68.3156 220.28 66.7171 219.912 65.2507 220.277C62.9225 220.965 60.8341 222.81 60.1982 225.201C59.7221 226.952 60.2364 228.988 61.6333 230.184C62.8426 231.258 64.5974 231.567 66.1437 231.164C68.4198 230.576 70.4109 228.829 71.1823 226.594C71.8426 224.676 71.2623 222.299 69.5596 221.114H69.5561Z" fill="#005AA5"/>
<path d="M167.969 255.932C166.666 255.72 165.387 256.207 164.105 256.374C164.327 257.708 164.619 259.032 164.793 260.373C166.058 260.161 167.423 260.12 168.57 259.494C170.005 258.716 169.564 256.21 167.969 255.932Z" fill="#005AA5"/>
<path d="M170.231 264.119C168.685 263.741 167.135 264.376 165.602 264.554C165.811 265.989 166.099 267.414 166.353 268.842C167.851 268.498 169.508 268.512 170.822 267.622C172.083 266.781 171.732 264.474 170.234 264.119H170.231Z" fill="#005AA5"/>
<path d="M67.287 76.1829C69.3545 76.2524 71.2171 74.3273 71.0781 72.2632C71.0016 70.6648 69.8966 69.327 68.6457 68.4339C67.5789 67.6625 66.1229 67.3671 64.8858 67.8849C62.9607 68.6042 61.9148 71.0192 62.8078 72.8957C63.6348 74.6088 65.3167 76.11 67.2904 76.1829H67.287Z" fill="#005AA5"/>
<path d="M266.047 160.051C271.598 158.652 274.964 153.018 273.566 147.467C272.167 141.916 266.533 138.549 260.982 139.948C255.431 141.346 252.064 146.98 253.463 152.532C254.861 158.083 260.495 161.449 266.047 160.051Z" fill="white"/>
<path d="M263.515 139.395C257.666 139.395 252.909 144.152 252.909 150C252.909 155.848 257.666 160.605 263.515 160.605C269.363 160.605 274.12 155.848 274.12 150C274.12 144.152 269.363 139.395 263.515 139.395ZM254.859 153.499C253.715 151.713 253.549 149.771 253.535 149.562C254.164 147.342 255.262 146.212 255.481 146.004C256.645 146.167 258.104 146.219 258.535 146.233C258.487 146.803 258.566 148.579 259.922 150.681C259.685 150.994 258.692 152.373 257.993 154.18C255.992 154.392 254.97 153.593 254.855 153.499H254.859ZM266.326 144.093C266.653 145.159 267.591 147.568 267.751 147.971C266.479 149.833 264.891 151.126 264.599 151.352C264.231 151.244 262.201 150.678 260.134 150.573C258.664 148.301 258.754 146.431 258.775 146.167L261.729 142.901C262.153 142.942 264.835 143.248 266.326 144.089V144.093ZM260.036 140.607C259.157 140.951 258.271 141.41 257.59 141.792C258.469 141.156 259.453 140.659 260.509 140.329C260.245 140.468 260.081 140.576 260.036 140.607ZM255.321 145.827C255.098 146.035 254.094 147.053 253.431 149.09C253.629 146.879 254.539 144.871 255.932 143.297C255.349 144.541 255.321 145.573 255.324 145.827H255.321ZM265.405 155.768C265.398 155.383 265.343 153.166 264.766 151.522C265.106 151.251 266.67 149.965 267.931 148.123C269.356 148.579 271.024 148.878 271.375 148.937C271.497 149.256 272.053 150.834 272.056 153.134C270.378 155.574 269.245 156.331 269.078 156.432C266.701 156.578 265.617 155.918 265.402 155.768H265.405ZM273.032 153.468L272.296 153.1C272.285 150.709 271.705 149.124 271.59 148.836C272.059 147.686 272.251 146.396 272.306 145.973C272.438 146.018 272.661 146.098 272.907 146.209C273.383 147.38 273.644 148.662 273.644 150C273.644 151.216 273.429 152.387 273.032 153.468ZM272.772 145.889C272.539 145.795 272.355 145.736 272.278 145.712C270.927 143.686 269.339 142.525 269.116 142.369C268.849 141.813 268.411 141.313 268.001 140.923C270.114 141.969 271.809 143.735 272.772 145.893V145.889ZM267.236 140.579C267.698 140.941 268.456 141.615 268.856 142.383C267.594 142.894 266.656 143.651 266.406 143.863C264.859 143.005 262.219 142.71 261.756 142.664C261.273 141.667 260.571 140.979 260.287 140.722C260.547 140.562 261.183 140.211 262.066 139.971C262.538 139.902 263.021 139.867 263.511 139.867C264.825 139.867 266.079 140.117 267.233 140.576L267.236 140.579ZM255.112 155.643H255.158L255.085 155.487C254.807 154.893 254.827 154.149 254.859 153.798C255.189 154.024 255.992 154.455 257.315 154.455C257.534 154.455 257.767 154.441 258.014 154.417C258.122 154.594 258.438 155.098 258.89 155.674C259.397 156.321 260.182 157.183 261.075 157.693C260.968 158.597 261.037 159.208 261.082 159.455C260.888 159.486 260.45 159.528 259.849 159.438C257.91 158.68 256.256 157.346 255.109 155.64L255.112 155.643ZM262.34 160.06C262.038 159.966 261.645 159.792 261.332 159.493C261.301 159.351 261.193 158.725 261.312 157.735C261.736 157.648 263.629 157.21 265.283 155.98C265.544 156.161 266.472 156.696 268.397 156.696C268.588 156.696 268.79 156.689 268.998 156.679C269.036 157.884 268.567 158.52 268.56 158.527L268.432 158.698L268.661 158.722C267.153 159.615 265.391 160.129 263.515 160.129C263.119 160.129 262.726 160.105 262.34 160.06Z" fill="#005AA5"/>
<path d="M39.0527 160.051C44.604 158.653 47.9706 153.019 46.572 147.468C45.1735 141.916 39.5396 138.55 33.9882 139.948C28.4369 141.347 25.0704 146.981 26.4689 152.532C27.8674 158.083 33.5014 161.45 39.0527 160.051Z" fill="white"/>
<path d="M36.5201 139.395C30.6718 139.395 25.9147 144.152 25.9147 150C25.9147 155.848 30.6718 160.605 36.5201 160.605C42.3683 160.605 47.1255 155.848 47.1255 150C47.1255 144.152 42.3683 139.395 36.5201 139.395ZM27.8606 153.499C26.7174 151.713 26.5506 149.771 26.5367 149.562C27.1656 147.342 28.2637 146.212 28.4826 146.004C29.6467 146.167 31.1062 146.219 31.5371 146.233C31.4884 146.803 31.5683 148.579 32.9236 150.681C32.6873 150.994 31.6934 152.373 30.995 154.18C28.9934 154.392 27.9718 153.593 27.8571 153.499H27.8606ZM39.3313 144.093C39.6579 145.159 40.5961 147.568 40.756 147.971C39.4842 149.833 37.8961 151.126 37.6042 151.352C37.2359 151.244 35.2066 150.678 33.139 150.573C31.6691 148.301 31.7595 146.431 31.7803 146.167L34.734 142.901C35.1579 142.942 37.8405 143.248 39.3313 144.089V144.093ZM33.0417 140.607C32.1625 140.951 31.2764 141.41 30.5954 141.792C31.4745 141.156 32.4579 140.659 33.5143 140.329C33.2502 140.468 33.0869 140.576 33.0417 140.607ZM28.3263 145.827C28.1039 146.035 27.0996 147.053 26.4359 149.09C26.634 146.879 27.5444 144.871 28.9378 143.297C28.3541 144.541 28.3263 145.573 28.3297 145.827H28.3263ZM38.4104 155.768C38.4035 155.383 38.3479 153.166 37.771 151.522C38.1116 151.251 39.6753 149.965 40.9367 148.123C42.3614 148.579 44.0293 148.878 44.3803 148.937C44.5019 149.256 45.0579 150.834 45.0614 153.134C43.383 155.574 42.2502 156.331 42.0834 156.432C39.7066 156.578 38.6224 155.918 38.407 155.768H38.4104ZM46.0378 153.468L45.3012 153.1C45.2907 150.709 44.7104 149.124 44.5958 148.836C45.0649 147.686 45.256 146.396 45.3116 145.973C45.4436 146.018 45.666 146.098 45.9127 146.209C46.3888 147.38 46.6494 148.662 46.6494 150C46.6494 151.216 46.434 152.387 46.0378 153.468ZM45.7772 145.889C45.5444 145.795 45.3602 145.736 45.2838 145.712C43.932 143.686 42.344 142.525 42.1216 142.369C41.8541 141.813 41.4162 141.313 41.0062 140.923C43.1189 141.969 44.8147 143.735 45.7772 145.893V145.889ZM40.2417 140.579C40.7039 140.941 41.4614 141.615 41.861 142.383C40.5996 142.894 39.6614 143.651 39.4112 143.863C37.8649 143.005 35.2239 142.71 34.7618 142.664C34.2788 141.667 33.5768 140.979 33.2919 140.722C33.5525 140.562 34.1884 140.211 35.071 139.971C35.5436 139.902 36.0266 139.867 36.5166 139.867C37.8301 139.867 39.0846 140.117 40.2382 140.576L40.2417 140.579ZM28.1143 155.643H28.1595L28.0865 155.487C27.8085 154.893 27.8293 154.149 27.8606 153.798C28.1907 154.024 28.9934 154.455 30.3174 154.455C30.5363 154.455 30.7691 154.441 31.0158 154.417C31.1236 154.594 31.4398 155.098 31.8915 155.674C32.3988 156.321 33.1842 157.183 34.0772 157.693C33.9695 158.597 34.039 159.208 34.0842 159.455C33.8896 159.486 33.4517 159.528 32.8506 159.438C30.9116 158.68 29.2575 157.346 28.1108 155.64L28.1143 155.643ZM35.3456 160.06C35.0432 159.966 34.6506 159.792 34.3378 159.493C34.3066 159.351 34.1988 158.725 34.317 157.735C34.7409 157.648 36.6347 157.21 38.2888 155.98C38.5494 156.161 39.4772 156.696 41.4023 156.696C41.5934 156.696 41.795 156.689 42.0035 156.679C42.0417 157.884 41.5726 158.52 41.5656 158.527L41.4371 158.698L41.6664 158.722C40.1583 159.615 38.3965 160.129 36.5201 160.129C36.1239 160.129 35.7313 160.105 35.3456 160.06Z" fill="#005AA5"/>
<path d="M124.227 190.229C120.38 187.369 114.966 185.538 107.095 183.425C103.593 182.32 102.38 180.815 103.193 178.602C103.669 177.382 104.441 176.941 104.955 176.59C105.146 176.461 105.396 176.461 105.591 176.583L114.264 182.393C114.264 182.393 119.504 185.645 122.736 184.718C124.908 184.096 124.918 181.142 122.924 178.755C121.068 176.534 116.224 173.872 111.974 173.497C107.7 173.118 105.858 174.053 105.149 174.255C105.021 174.289 104.892 174.282 104.771 174.23C103.818 173.81 99.7633 171.857 96.1424 171.857C92.0594 171.857 87.0695 173.476 84.9532 177.253C82.5347 181.569 86.5725 182.841 86.5725 182.841C88.1258 183.282 90.6625 183.116 91.9899 181.806C92.3235 181.475 92.1289 180.902 91.6668 180.826C90.1448 180.572 89.4254 180.297 89.3698 178.942C89.5158 176.969 90.5166 175.314 92.9594 174.255C96.7853 172.979 100.173 173.469 102.905 175.026C103.141 175.162 103.165 175.495 102.943 175.652C101.313 176.795 99.7598 178.153 99.4088 179.283C98.4602 182.341 99.4575 184.384 102.283 185.475C104.83 186.458 108.76 187.014 112.061 187.452C117.166 188.227 121.572 190.469 123.883 192.484C126.416 194.694 124.737 198.256 123.236 199.653C118.597 203.965 113.024 205.008 106.456 203.896C102.081 202.905 97.1675 201.616 98.6235 197.255C98.9919 196.15 99.6938 195.177 100.622 194.475C102.884 192.765 107.339 191.08 113.388 192.376C113.958 192.498 113.983 191.56 113.416 191.417C106.71 189.742 101.073 190.663 97.5185 192.467C95.6733 193.401 94.0992 194.843 93.2096 196.713C91.6737 199.934 92.4834 202.982 96.681 205.793C100.868 208.076 105.452 208.778 110.473 208.601C119.094 208.17 124.689 205.689 127 200.063C128.146 195.681 126.927 192.046 124.234 190.225L124.227 190.229ZM116.988 176.739C120.543 178.254 122.93 179.707 123.177 181.656C123.236 182.125 123.08 182.598 122.746 182.931C122.34 183.338 121.575 183.741 119.956 183.401C117.899 182.97 111.797 178.88 107.429 175.846C107.252 175.721 107.318 175.443 107.533 175.412C110.066 175.043 113.649 175.314 116.992 176.736L116.988 176.739Z" fill="#005AA5"/>
<path d="M148.217 202.843L149.447 212.625C149.447 212.642 149.465 212.628 149.447 212.625C141.024 210.807 135.023 210.234 131.43 211.186C130.461 211.443 130.412 212.447 130.655 212.885C134.474 219.811 140.194 223.088 148.096 223.678C149.969 223.817 150.799 223.407 151.459 221.899C152.12 220.391 152.78 219.012 152.474 214.529C152.474 214.508 152.491 214.491 152.509 214.494C157.624 215.262 161.116 216.04 165.171 215.304C166.176 215.123 167.124 214.647 167.798 213.879C168.306 213.302 168.636 212.621 168.691 211.923C168.73 211.44 168.274 211.068 167.805 211.196C162.548 212.635 157.231 213.302 151.817 212.607L152.179 212.652C151.751 210.435 150.837 205.512 152.102 200.428C152.293 199.656 152.085 198.836 151.522 198.273L151.261 198.103C150.552 197.762 149.698 198.047 149.34 198.746C148.016 201.321 146.741 203.607 145.073 203.913C144.69 203.983 144.336 203.694 144.294 203.312C144.11 201.561 144.645 200.567 145.455 199.01C145.604 198.722 145.417 198.367 145.093 198.339C144.506 198.291 143.919 198.308 143.401 198.593C142.713 198.975 142.119 199.84 141.945 200.608L141.601 203.628V203.635C141.549 203.937 141.25 204.212 140.976 204.34L140.962 204.347C140.183 204.716 139.266 204.368 138.974 203.559C138.526 202.322 138.873 201.14 138.939 198.649C138.946 198.378 138.745 198.138 138.474 198.103C136.597 197.856 134.571 199.681 132.89 201.533C132.723 201.717 132.605 201.654 132.587 201.408L132.615 198.961C132.612 198.881 132.636 198.808 132.691 198.753C137.793 193.461 142.55 177.424 137.702 177.271C132.403 177.5 128.699 195.33 130.613 205.407C130.648 205.581 130.801 205.706 130.978 205.71L132.302 205.73C132.528 205.734 132.719 205.567 132.754 205.345C133.119 202.961 133.852 201.025 134.811 200.341C135.367 199.945 136.139 200.407 136.104 201.091C136.017 202.874 135.777 204.115 137.105 205.282C137.584 205.706 138.498 206.092 139.137 206.085C140.385 206.071 141.288 205.418 141.726 205.011C141.848 204.896 142.042 204.931 142.126 205.077C142.765 206.14 146.296 205.512 148.068 203.044L148.221 202.836L148.217 202.843ZM134.971 181.198C135.471 180.6 136.232 180.638 136.653 181.291C138.717 184.495 134.95 194.917 132.914 197.029C132.737 197.213 132.577 197.074 132.57 196.821C132.525 194.357 132.507 184.137 134.971 181.194V181.198ZM145.948 221.833C140.166 220.777 135.638 218.007 134.571 213.921C134.366 213.139 134.943 212.347 135.749 212.288C139.311 212.041 148.113 213.848 149.468 214.108C149.583 214.129 149.67 214.216 149.698 214.331C149.993 215.662 149.993 222.57 145.945 221.83L145.948 221.833Z" fill="#005AA5"/>
<path d="M207.961 185.159C207.874 185.729 207.742 186.198 206.874 186.667C206.078 187.094 205.505 187.046 204.962 187.199C204.667 187.282 204.542 187.654 204.73 187.897C205.651 189.099 207.294 189.249 208.02 189.176C208.747 189.103 209.323 188.95 210.189 187.963C210.984 187.244 211.756 185.214 210.776 183.47C209.8 181.729 207.871 181.02 206.054 181.489C204.883 181.792 203.913 182.612 203.291 183.651C202.051 185.729 201.164 188.116 200.462 190.524C192.234 188.776 187.807 190.809 187.981 191.375C188.154 191.942 189.944 189.103 200.115 191.5C198.784 197.474 201.064 203.305 198.673 204.323C198.461 204.451 198.225 204.49 198.002 204.448C197.554 204.368 197.241 203.944 197.203 203.489C197.019 201.428 196.63 199.951 196.015 199.093C195.559 198.457 194.739 198.204 193.989 198.429C192.637 198.833 191.727 200.236 190.757 201.678C190.66 201.821 190.437 201.738 190.458 201.567L190.757 199.104C190.851 198.318 190.274 197.613 189.485 197.55C188.69 197.488 188.005 198.103 187.984 198.899C187.949 200.24 187.897 202.137 187.876 202.943C187.869 203.2 187.741 203.44 187.536 203.597C185.868 204.868 184.513 204.771 183.366 202.877C183.251 202.69 183.314 202.443 183.512 202.342C185.235 201.47 186.66 200.601 186.719 198.954C186.778 197.307 185.698 196.817 184.388 196.796C182.56 196.765 180.59 198.141 180.617 202.46C180.617 202.752 180.461 203.02 180.2 203.148C179.05 203.711 177.681 204.111 176.475 203.315C175.944 202.964 175.85 202.217 176.288 201.751C178.15 199.767 179.79 197.658 178.97 196.223C178.525 195.445 177.486 195.264 176.718 195.729C175.464 196.497 173.595 199.086 171.614 201.359C171.558 201.421 171.454 201.383 171.454 201.296V199.719C171.454 199.159 171.617 198.61 171.927 198.144C172.601 197.13 173.379 195.782 174.147 194.499C176.447 190.673 177.806 184.599 177.841 180.697C177.862 178.483 175.561 176.551 173.323 179.363C173.303 179.39 173.268 179.408 173.247 179.436C169.498 185.162 168.403 198.767 168.823 202.321C169.133 204.931 165.995 205.497 165.988 203.77C165.981 202.043 167.718 198.092 165.446 198.249C163.903 198.37 162.788 199.302 162.35 199.733C162.294 199.788 162.204 199.733 162.221 199.66C162.398 198.919 162.781 197.019 161.967 197.005C160.272 196.779 158.767 198.961 156.918 200.601C156.852 200.66 156.748 200.594 156.769 200.507C157.45 197.807 155.626 198.53 155.007 198.767C154.361 199.013 153.944 199.649 153.888 200.341L153.725 205.226C153.708 205.706 154.111 206.095 154.59 206.06C154.917 206.036 155.195 205.817 155.299 205.508C156.192 202.884 157.426 200.74 159.146 199.983C159.33 199.903 159.525 200.073 159.469 200.268C158.868 202.408 158.739 203.982 159.056 204.813C159.34 205.567 160.456 205.477 160.664 204.698C161.217 202.655 161.985 201.182 163.25 200.483C163.573 200.306 163.959 200.601 163.882 200.963C163.663 202.029 163.458 203.068 163.375 203.986C163.26 205.223 164.184 206.321 165.418 206.463C166.944 206.641 168.57 206.707 170.022 206.019C170.644 205.723 171.228 205.202 171.464 204.517C172.42 201.745 174.223 199.809 175.766 199.027C175.94 198.937 176.652 198.923 176.381 199.621C175.902 200.858 172.82 201.835 172.83 203.562C172.84 205.261 177.806 206.637 180.753 204.052C180.829 203.986 180.944 204.007 180.986 204.097C181.743 205.706 183.484 206.686 185.225 206.345C185.34 206.321 185.454 206.297 185.569 206.262C186.309 206.053 187.369 205.157 187.831 204.747C187.953 204.639 188.14 204.656 188.238 204.789C188.45 205.07 188.815 205.515 189.124 205.706C189.746 206.085 190.545 205.751 190.736 205.049C191.132 203.607 191.574 201.633 192.258 200.817C192.727 200.254 193.645 200.504 193.777 201.223C194.291 204.045 194.11 206.516 196.616 206.672C199.114 206.672 199.135 205.411 200.122 204.021C200.285 203.788 200.633 203.784 200.807 204.01C201.105 204.403 201.422 204.848 201.731 205.07C203.524 206.373 205.956 205.894 207.148 204.024C207.506 203.461 207.722 202.662 207.878 201.908C207.923 201.682 207.635 201.553 207.492 201.734C206.985 202.38 206.516 202.929 206.092 203.364C205.567 203.902 204.733 204.059 204.09 203.673C201.988 202.415 201.453 198.683 202.044 191.907C206.933 192.956 210.818 193.405 213.375 193.127C215.13 192.936 216.694 191.869 217.444 190.267C217.708 189.707 217.889 189.138 217.955 188.627C218.052 187.883 217.163 187.424 216.576 187.894C212.566 191.987 207.808 191.831 202.19 190.851C202.534 186.18 204.587 183.745 206.352 183.675C208.121 183.606 208.034 184.596 207.947 185.166L207.961 185.159ZM174.825 181.246C177.274 182.024 173.407 192.734 171.808 196.369C171.739 196.529 171.503 196.477 171.506 196.303C171.6 192.453 172.114 180.384 174.825 181.246ZM184.6 198.343C185.017 198.509 184.926 199.058 184.846 199.316C184.534 200.306 183.338 201.95 182.949 201.508C182.629 201.387 183.408 197.873 184.6 198.346V198.343Z" fill="#005AA5"/>
</g>
<defs>
<clipPath id="clip0_1444_13730">
<rect width="270" height="270" fill="white" transform="translate(15 15)"/>
</clipPath>
</defs>
</svg>
