<svg width="300" height="300" viewBox="0 0 300 300" fill="none" xmlns="http://www.w3.org/2000/svg">
<g clip-path="url(#clip0_1444_13666)">
<path d="M152.065 284.26C151.06 284.26 150.489 284.239 150.434 284.237C150.432 284.239 149.863 284.26 148.854 284.26C144.042 284.26 131.232 283.774 116.251 279.28C108.411 276.928 99.5902 272.085 91.8074 267.808L89.2586 266.41C49.2035 244.526 47.7483 198.747 47.74 198.288V15.7402H253.181V198.271C253.169 198.747 251.715 244.528 211.662 266.415L209.056 267.841C201.292 272.105 192.492 276.936 184.67 279.285C169.691 283.779 156.883 284.264 152.067 284.264" fill="white"/>
<path d="M252.441 16.478V198.269C252.441 198.269 251.449 243.829 211.305 265.763C202.875 270.365 193.079 275.987 184.453 278.573C169.402 283.09 156.464 283.52 152.065 283.52C151.023 283.52 150.461 283.497 150.461 283.497C150.461 283.497 149.898 283.52 148.856 283.52C144.453 283.52 131.519 283.09 116.468 278.573C107.842 275.987 98.0399 270.363 89.6162 265.763C49.4702 243.829 48.478 198.269 48.478 198.269V16.478H252.441ZM253.919 15H47V198.269C47.0103 198.765 48.478 244.972 88.9051 267.057L91.4539 268.455C99.2677 272.748 108.123 277.614 116.043 279.987C131.114 284.51 144.011 284.998 148.856 284.998C149.832 284.998 150.403 284.977 150.508 284.975C150.521 284.979 151.091 284.998 152.067 284.998C156.91 284.998 169.809 284.51 184.881 279.987C192.781 277.62 201.614 272.769 209.411 268.488L212.016 267.059C252.441 244.974 253.911 198.767 253.921 198.302V15H253.919Z" fill="#1A1A18"/>
<path d="M151.963 279.737C151.068 279.737 150.531 279.716 150.411 279.714C150.394 279.716 149.857 279.737 148.962 279.737C144.42 279.737 132.332 279.278 118.211 275.041C110.761 272.806 102.459 268.246 95.1356 264.221L92.7976 262.94C54.8325 242.198 53.4537 198.808 53.4434 198.374V64.8823H247.478V198.333C247.468 198.808 246.087 242.198 208.128 262.94L205.744 264.244C198.435 268.258 190.156 272.81 182.72 275.041C168.6 279.278 156.509 279.737 151.963 279.737Z" fill="#FAE91F"/>
<path d="M245.63 66.7302V198.333C245.63 198.333 244.7 240.85 207.243 261.317C199.379 265.612 190.234 270.857 182.187 273.271C168.141 277.486 156.075 277.889 151.961 277.889C150.988 277.889 150.461 277.866 150.461 277.866C150.461 277.866 149.935 277.889 148.96 277.889C144.848 277.889 132.78 277.484 118.74 273.271C110.691 270.859 101.542 265.612 93.6802 261.317C56.2174 240.85 55.2913 198.333 55.2913 198.333V66.7302H245.632H245.63ZM249.326 63.0342H51.5952V198.333C51.6366 200.239 53.0174 243.314 91.9087 264.56L94.2425 265.842C101.649 269.91 110.042 274.522 117.68 276.812C132.034 281.122 144.338 281.587 148.962 281.587C149.712 281.587 150.223 281.575 150.463 281.566C150.704 281.575 151.213 281.587 151.963 281.587C156.59 281.587 168.893 281.122 183.252 276.812C190.873 274.526 199.249 269.926 206.633 265.866L209.016 264.562C247.906 243.316 249.287 200.241 249.326 198.418V63.0342Z" fill="#25A638"/>
<path d="M75.1794 58.1082H62.1233V33.3521H54.4873V20.79H82.5674V33.474H75.0554L75.1794 58.1082Z" fill="#0AA537"/>
<path d="M105.539 19.5562C94.6228 19.5562 85.7712 28.4077 85.7712 39.3242C85.7712 50.2408 94.6228 59.0924 105.539 59.0924C116.456 59.0924 125.307 50.2429 125.307 39.3242C125.307 28.4056 116.456 19.5562 105.539 19.5562ZM105.353 46.4683C101.477 46.4683 98.3333 43.3242 98.3333 39.4483C98.3333 35.5724 101.477 32.4283 105.353 32.4283C109.229 32.4283 112.373 35.5724 112.373 39.4483C112.373 43.3242 109.229 46.4683 105.353 46.4683Z" fill="#0AA537"/>
<path d="M183.258 19.6904C172.341 19.6904 163.49 28.5399 163.49 39.4585C163.49 50.3772 172.341 59.2266 183.258 59.2266C194.174 59.2266 203.026 50.3751 203.026 39.4585C203.026 28.5419 194.174 19.6904 183.258 19.6904ZM183.074 46.6026C179.194 46.6026 176.054 43.4585 176.054 39.5826C176.054 35.7067 179.194 32.5625 183.074 32.5625C186.954 32.5625 190.094 35.7067 190.094 39.5826C190.094 43.4585 186.948 46.6026 183.074 46.6026Z" fill="#0AA537"/>
<path d="M147.722 34.4601H141.196V31.38H154.006V20.79H128.388V58.1082H147.724C147.724 58.1082 160.288 59.0921 160.288 46.4082C160.288 35.2001 147.724 34.4621 147.724 34.4621M145.26 50.1021H141.196V42.5901H145.26C145.26 42.5901 148.338 43.6981 148.338 46.3461C148.338 49.6102 145.26 50.1021 145.26 50.1021Z" fill="#0AA537"/>
<path d="M243.174 58.1247V20.79H210.168V42.4661C210.168 42.4661 210.904 44.9322 209.55 45.9162C208.715 46.5218 205.364 46.4082 205.364 46.4082V58.6022H214.478C214.478 58.6022 219.406 57.2462 221.13 54.9062C223.255 52.0246 223.222 45.0521 223.222 45.0521V31.2581H229.996V58.1268H243.174V58.1247Z" fill="#0AA537"/>
<path d="M123.952 99.7983H71.6672V118.642H123.952V99.7983Z" fill="#0AA537"/>
<path d="M233.508 99.7983H183.626V118.642H233.508V99.7983Z" fill="#1A1A18"/>
<path d="M123.952 129.729H71.6672V148.019H123.952V129.729Z" fill="#1A1A18"/>
<path d="M92.7273 143.398H71.6672V177.393H92.7273V143.398Z" fill="#1A1A18"/>
<path d="M127.832 129.729L153.326 99.7983H178.268L147.784 136.565L181.224 177.393H153.142L127.832 146.541V129.729Z" fill="#1A1A18"/>
<path d="M208.566 129.729H187.32V155.963C187.32 155.963 187.963 165.174 193.416 171.851C197.943 177.393 206.718 177.393 206.718 177.393H231.104V159.287H218.172C218.172 159.287 211.706 160.395 209.211 156.885C208.068 155.274 208.564 148.941 208.564 148.941V129.727L208.566 129.729Z" fill="#1A1A18"/>
<path d="M69.3251 182.011C69.3044 182.79 69.2651 183.563 69.2651 184.349C69.2651 229.04 105.494 265.267 150.183 265.267C194.873 265.267 231.104 229.038 231.104 184.349C231.104 183.563 231.067 182.79 231.046 182.011H69.3251Z" fill="#1A1A18"/>
<path d="M224.638 206.953L214.848 203.997L208.196 185.337H227.78L224.638 206.953Z" fill="white"/>
<path d="M210.598 203.997L188.798 235.219H169.77L163.488 216.005L184.364 186.445L204.132 185.337L210.598 203.997Z" fill="white"/>
<path d="M195.264 247.597C195.264 247.597 184.934 255.256 175.866 257.943C165.89 260.899 152.218 262.191 152.218 262.191V251.661L169.214 238.729H189.352L195.264 247.597Z" fill="white"/>
<path d="M165.704 235.219L151.294 247.965L115.267 236.327L109.171 216.929L123.951 206.029L160.348 217.669L165.704 235.219Z" fill="white"/>
<path d="M122.104 202.333L107.326 213.603L90.3274 202.333V185.337H122.104V202.333Z" fill="white"/>
<path d="M111.757 237.621L104.183 246.859C104.183 246.859 94.5774 238.731 88.4793 230.601C82.5735 222.729 77.3953 210.279 77.3953 210.279L89.2193 206.029L105.293 218.037L111.759 237.621H111.757Z" fill="white"/>
<path d="M224.791 69.1982C224.791 69.5311 224.929 69.7584 225.204 69.8804C225.479 70.0003 225.969 70.0602 226.67 70.0602C227.371 70.0602 227.859 70.0003 228.133 69.8804C228.408 69.7626 228.547 69.5352 228.547 69.1982H230.285C230.285 69.7522 230.147 70.1719 229.866 70.4571C229.587 70.7424 229.192 70.9346 228.685 71.0256C228.177 71.1186 227.505 71.1662 226.672 71.1662C225.839 71.1662 225.161 71.1186 224.65 71.0256C224.144 70.9326 223.751 70.7424 223.472 70.4571C223.197 70.1698 223.054 69.7502 223.054 69.1982H224.789H224.791ZM219.855 71.8814H223.78V78.2482H223.925L228.756 71.8814H234.188V81.5515H230.263V75.1847H230.122L225.475 81.5515H219.857V71.8814H219.855ZM217.331 71.8814V81.5515H213.198V71.8814H217.331ZM202.253 77.5288H205.124C205.734 77.5288 206.153 77.595 206.387 77.7273C206.621 77.8575 206.738 78.118 206.738 78.5087C206.738 78.8766 206.621 79.1205 206.387 79.2487C206.153 79.3748 205.734 79.4368 205.124 79.4368H202.253V77.5288ZM202.253 71.8814H198.125V81.5515H206.094C207.14 81.5515 208.018 81.444 208.727 81.2311C209.436 81.0182 209.969 80.6854 210.327 80.2327C210.685 79.78 210.865 79.197 210.865 78.4838C210.865 77.7707 210.685 77.1857 210.325 76.733C209.967 76.2782 209.43 75.9433 208.715 75.7325C207.999 75.5216 207.111 75.4162 206.05 75.4162H202.253V71.8835V71.8814ZM195.621 71.8814V81.5515H191.491V77.7603H186.096V81.5515H181.964V71.8814H186.096V75.5175H191.491V71.8814H195.621ZM171.285 77.5288H174.156C174.766 77.5288 175.186 77.595 175.419 77.7273C175.653 77.8575 175.771 78.118 175.771 78.5087C175.771 78.8766 175.653 79.1205 175.419 79.2487C175.186 79.3748 174.766 79.4368 174.156 79.4368H171.285V77.5288ZM171.285 71.8814H167.157V81.5515H175.13C176.176 81.5515 177.05 81.444 177.763 81.2311C178.472 81.0182 179.006 80.6854 179.363 80.2327C179.721 79.78 179.901 79.197 179.901 78.4838C179.901 77.7707 179.719 77.1857 179.361 76.733C178.999 76.2782 178.462 75.9433 177.747 75.7325C177.032 75.5216 176.143 75.4162 175.082 75.4162H171.285V71.8835V71.8814ZM152.032 71.8814H164.589V81.5515H160.437V74.1242H155.955V78.1862C155.955 78.9014 155.785 79.5154 155.453 80.0321C155.116 80.5448 154.603 80.9417 153.915 81.2166C153.222 81.4936 152.368 81.6321 151.349 81.6321C150.605 81.6321 149.9 81.5928 149.243 81.5164V79.4285C149.532 79.4885 149.952 79.5195 150.504 79.5195C151.056 79.5195 151.465 79.4244 151.693 79.2342C151.92 79.042 152.034 78.7071 152.034 78.2275V71.8835L152.032 71.8814ZM141.183 79.3872C141.975 79.3872 142.566 79.3521 142.963 79.2838C143.356 79.2177 143.645 79.0689 143.827 78.8456C144.009 78.6203 144.1 78.2709 144.1 77.7996V75.6209C144.1 75.257 144.048 74.9718 143.945 74.7651C143.846 74.5583 143.68 74.4012 143.459 74.2979C143.236 74.1945 142.949 74.1263 142.599 74.0932C142.248 74.0602 141.776 74.0436 141.185 74.0436C140.404 74.0436 139.819 74.0788 139.43 74.1449C139.044 74.2111 138.763 74.3558 138.581 74.5769C138.399 74.7961 138.297 75.1433 138.277 75.6188V77.7976C138.297 78.2751 138.397 78.6244 138.576 78.8456C138.756 79.0689 139.042 79.2156 139.43 79.2818C139.819 79.35 140.404 79.3851 141.185 79.3851L141.183 79.3872ZM141.183 81.63C140.036 81.63 139.037 81.5804 138.192 81.4812C137.344 81.382 136.609 81.2063 135.982 80.95C135.36 80.6957 134.874 80.3339 134.529 79.8647C134.188 79.3955 134.016 78.8001 134.016 78.0808V75.348C134.016 74.6286 134.188 74.0333 134.533 73.562C134.878 73.0886 135.362 72.7289 135.986 72.4747C136.609 72.2225 137.347 72.0468 138.194 71.9475C139.042 71.8483 140.04 71.7987 141.185 71.7987C142.33 71.7987 143.337 71.8483 144.185 71.9475C145.034 72.0468 145.772 72.2225 146.394 72.4747C147.017 72.7289 147.502 73.0886 147.848 73.562C148.189 74.0333 148.36 74.6286 148.36 75.348V78.0808C148.36 78.8001 148.189 79.3955 147.848 79.8647C147.507 80.3339 147.025 80.6957 146.399 80.95C145.772 81.2063 145.034 81.382 144.185 81.4812C143.337 81.5804 142.337 81.63 141.185 81.63H141.183ZM124.001 77.6322H126.852C127.461 77.6322 127.881 77.6983 128.115 77.8306C128.348 77.9609 128.466 78.2213 128.466 78.612C128.466 78.98 128.348 79.2239 128.115 79.3521C127.881 79.4781 127.461 79.5402 126.852 79.5402H124.001V77.6322ZM131.147 71.8814H119.852V81.5515H127.825C128.886 81.5515 129.77 81.4523 130.473 81.258C131.176 81.0616 131.705 80.7453 132.061 80.3071C132.418 79.8709 132.598 79.2962 132.598 78.5851C132.598 77.874 132.423 77.2994 132.071 76.8632C131.716 76.4291 131.193 76.1128 130.492 75.9165C129.789 75.718 128.902 75.6209 127.827 75.6209H124.003V73.9051H131.149V71.8814H131.147ZM114.482 74.1242V81.5515H110.35V74.1242H106.381V71.8814H118.651V74.1242H114.482ZM91.1128 71.8814H95.8052L98.5318 76.0322H98.7178L101.382 71.8814H106.153L100.287 79.3479C99.832 79.9081 99.3814 80.3546 98.9266 80.6874C98.476 81.0182 97.9633 81.26 97.3949 81.4068C96.8243 81.5556 96.1277 81.63 95.3091 81.63C94.72 81.63 94.0316 81.5908 93.2399 81.5143V79.4265C93.5293 79.4864 93.9841 79.5174 94.6042 79.5174C95.059 79.5174 95.3959 79.503 95.6192 79.4719C95.8424 79.443 96.0119 79.3893 96.1256 79.3107C96.2435 79.2322 96.3468 79.1019 96.446 78.9221L91.1128 71.8814ZM77.0542 78.3784L78.4784 78.366V75.0235H77.0542C76.5229 75.0235 76.1033 75.0751 75.8015 75.1806C75.4955 75.2839 75.2785 75.4576 75.1441 75.7015C75.0098 75.9433 74.9436 76.2803 74.9436 76.702C74.9436 77.1237 75.0118 77.4813 75.1503 77.7252C75.2888 77.9712 75.5079 78.1407 75.8118 78.2337C76.1115 78.3309 76.527 78.3784 77.0542 78.3784ZM82.6106 78.366H84.0122C84.5393 78.366 84.9548 78.3185 85.2545 78.2213C85.5543 78.1262 85.7734 77.9567 85.9119 77.7149C86.0504 77.4689 86.1186 77.1299 86.1186 76.6896C86.1186 76.0591 85.9635 75.6229 85.6535 75.379C85.3475 75.133 84.7956 75.011 84.0122 75.011L82.6106 75.0235V78.366ZM82.6106 81.5515H78.4784V80.6109H76.3741C75.3178 80.6109 74.4289 80.5448 73.7157 80.4125C73.0005 80.2823 72.4176 80.0693 71.9731 79.7696C71.5245 79.474 71.1979 79.073 70.9912 78.5727C70.7845 78.0704 70.6812 77.4461 70.6812 76.702C70.6812 75.7159 70.8672 74.9408 71.2413 74.3723C71.6176 73.8059 72.215 73.3987 73.0418 73.1527C73.8646 72.9046 74.9725 72.7827 76.3699 72.7827H78.4743V71.8793H82.6065V72.7827H84.6902C86.0855 72.7827 87.1935 72.9046 88.0121 73.1527C88.8348 73.4007 89.4343 73.8059 89.8084 74.3723C90.1847 74.9387 90.3728 75.7159 90.3728 76.702C90.3728 77.4606 90.2694 78.089 90.0586 78.5851C89.8518 79.0813 89.5211 79.4761 89.0767 79.7738C88.6302 80.0694 88.0472 80.2823 87.3382 80.4146C86.625 80.5448 85.7444 80.613 84.6881 80.613H82.6044V81.5536L82.6106 81.5515Z" fill="#1A1A18"/>
<path d="M169.454 87.354H174.146L176.872 91.5048H177.059L179.723 87.354H184.494L178.627 94.8205C178.173 95.3807 177.722 95.8272 177.267 96.16C176.817 96.4908 176.304 96.7326 175.736 96.8794C175.165 97.0282 174.468 97.1027 173.65 97.1027C173.061 97.1027 172.372 97.0634 171.581 96.9869V94.8991C171.87 94.959 172.325 94.99 172.945 94.99C173.4 94.99 173.737 94.9756 173.96 94.9446C174.183 94.9156 174.353 94.8619 174.466 94.7833C174.584 94.7048 174.688 94.5745 174.787 94.3947L169.454 87.354ZM118.294 87.354H130.852V97.0241H126.701V89.5969H122.219V93.6588C122.219 94.374 122.05 94.988 121.717 95.5048C121.38 96.0174 120.867 96.4143 120.179 96.6892C119.487 96.9662 118.633 97.1047 117.614 97.1047C116.87 97.1047 116.165 97.0654 115.507 96.989V94.9011C115.797 94.9611 116.216 94.9921 116.768 94.9921C117.32 94.9921 117.729 94.897 117.957 94.7068C118.184 94.5146 118.298 94.1797 118.298 93.7001V87.3561L118.294 87.354ZM75.4605 87.354V90.9901H76.7008L80.6903 87.354H85.6866L80.2376 92.096L86.1414 97.0241H81.019L76.7028 93.233H75.4625V97.0241H71.3303V87.354H75.4625H75.4605Z" fill="#1A1A18"/>
<path d="M225.38 93.1027H228.231C228.84 93.1027 229.26 93.1689 229.494 93.3012C229.727 93.4314 229.845 93.6919 229.845 94.0826C229.845 94.4505 229.727 94.6944 229.494 94.8226C229.26 94.9487 228.84 95.0107 228.231 95.0107H225.38V93.1027ZM232.526 87.354H221.231V97.0241H229.204C230.265 97.0241 231.149 96.9249 231.852 96.7306C232.555 96.5342 233.084 96.2179 233.44 95.7797C233.797 95.3435 233.977 94.7689 233.977 94.0578C233.977 93.3467 233.802 92.772 233.45 92.3358C233.095 91.9017 232.572 91.5855 231.871 91.3891C231.168 91.1906 230.281 91.0935 229.206 91.0935H225.382V89.3777H232.528V87.354H232.526Z" fill="#1A1A18"/>
</g>
<defs>
<clipPath id="clip0_1444_13666">
<rect width="206.919" height="270" fill="white" transform="translate(47 15)"/>
</clipPath>
</defs>
</svg>
