<svg width="300" height="300" viewBox="0 0 300 300" fill="none" xmlns="http://www.w3.org/2000/svg">
<g clip-path="url(#clip0_1444_13722)">
<path fill-rule="evenodd" clip-rule="evenodd" d="M249.099 76.2408C256.039 60.6652 253.372 48.5822 241.933 40.1821C218.138 22.7107 181 15 149.994 15C118.988 15 81.8594 22.7107 58.0561 40.1821C46.6171 48.5822 43.9592 60.6652 50.8897 76.2408C34.4797 113.715 43.0702 143.006 58.1015 163.798C39.8408 229.084 89.8512 284.991 149.994 284.991C210.138 284.991 260.148 229.084 241.887 163.798C256.919 143.006 265.509 113.715 249.099 76.2408Z" fill="#ECCC3C"/>
<path fill-rule="evenodd" clip-rule="evenodd" d="M239.946 162.41C259.041 136.012 259.794 106.63 246.904 77.1932L246.487 76.2317L246.913 75.2701C252.564 62.5883 252.32 50.7593 240.518 42.0961C216.515 24.4795 179.322 17.3857 149.995 17.3857C120.667 17.3857 83.4834 24.4795 59.4805 42.1052C47.6787 50.7683 47.4338 62.5974 53.0852 75.2792L53.5116 76.2407L53.0943 77.2023C40.2039 106.63 40.9568 136.003 60.052 162.41L60.7233 163.344L60.4149 164.451C55.7341 181.187 55.3077 198.577 60.0158 215.359C64.3065 230.653 72.6068 244.487 83.9551 255.618C101.554 272.89 125.302 282.614 149.995 282.614C174.687 282.614 198.445 272.881 216.043 255.618C227.391 244.487 235.692 230.653 239.983 215.359C244.691 198.577 244.264 181.187 239.583 164.451L239.275 163.344L239.946 162.41Z" fill="#F2D869"/>
<path fill-rule="evenodd" clip-rule="evenodd" d="M238.014 161.013C246.187 149.71 251.449 137.082 252.846 123.167C254.397 107.673 250.932 92.3152 244.727 78.1457L243.883 76.2226L244.736 74.3085C249.87 62.7788 250.033 52.0474 239.103 44.0192C215.526 26.7111 178.823 19.7715 149.995 19.7715C121.166 19.7715 84.4721 26.7111 60.8956 44.0192C49.9646 52.0383 50.1279 62.7788 55.2623 74.3085L56.115 76.2226L55.2714 78.1457C49.0666 92.3152 45.6013 107.673 47.1525 123.167C48.5404 137.082 53.8018 149.71 61.9842 161.013L63.3268 162.872L62.7099 165.077C58.147 181.378 57.7297 198.359 62.3108 214.706C66.4836 229.601 74.5843 243.072 85.6242 253.912C102.778 270.74 125.919 280.228 149.995 280.228C174.07 280.228 197.211 270.74 214.365 253.912C225.414 243.072 233.505 229.601 237.678 214.706C242.259 198.359 241.842 181.378 237.279 165.077L236.662 162.872L238.005 161.013H238.014Z" fill="#F2E3C2"/>
<path fill-rule="evenodd" clip-rule="evenodd" d="M241.833 76.2138L243.529 72.2587L244.028 71.0068L244.464 69.7913L244.854 68.6029L245.189 67.4508L245.48 66.326L245.716 65.2374L245.906 64.1852L246.042 63.1601L246.142 62.1713L246.196 61.2097L246.205 60.2845L246.169 59.3864L246.106 58.5156L245.997 57.6719L245.852 56.8555L245.661 56.0663L245.443 55.2861L245.189 54.5242L244.899 53.7894L244.564 53.0546L244.192 52.338L243.783 51.6304L243.33 50.9319L242.831 50.2425L242.287 49.553L241.688 48.8727L241.053 48.1923L240.354 47.5301L239.611 46.8679L238.812 46.2057L237.96 45.5526L235.873 44.0739L233.705 42.6407L231.455 41.2437L229.142 39.9011L226.747 38.6039L224.298 37.3521L221.785 36.1456L219.209 34.9935L216.587 33.8868L213.911 32.8345L211.19 31.8185L208.423 30.857L205.62 29.9498L202.781 29.0881L199.905 28.2716L197.011 27.5006L194.09 26.7839L191.142 26.1217L188.185 25.4958L185.219 24.9243L182.234 24.3982L179.25 23.9174L176.265 23.491L173.29 23.101L170.314 22.7653L167.348 22.475L164.4 22.2301L161.47 22.0305L158.558 21.8763L155.673 21.7584L152.816 21.6949L149.995 21.6768L147.182 21.6949L144.325 21.7584L141.44 21.8763L138.528 22.0305L135.598 22.2301L132.65 22.475L129.684 22.7653L126.708 23.101L123.733 23.491L120.748 23.9174L117.764 24.3982L114.78 24.9243L111.813 25.4958L108.856 26.1217L105.908 26.7839L102.987 27.5006L100.093 28.2716L97.2174 29.0881L94.378 29.9498L91.575 30.857L88.8082 31.8185L86.0868 32.8345L83.4108 33.8868L80.7891 34.9935L78.2129 36.1456L75.7001 37.3521L73.2508 38.6039L70.856 39.9011L68.5428 41.2437L66.2931 42.6407L64.125 44.0739L62.0386 45.5526L61.1859 46.2057L60.3876 46.8679L59.6438 47.5301L58.9453 48.1923L58.3103 48.8727L57.7207 49.553L57.1673 50.2425L56.6684 50.9319L56.2148 51.6304L55.8066 52.338L55.4347 53.0546L55.099 53.7894L54.8088 54.5242L54.5548 55.2861L54.3371 56.0663L54.1466 56.8555L54.0014 57.6719L53.8926 58.5156L53.8291 59.3864L53.7928 60.2845L53.8018 61.2097L53.8563 62.1713L53.9561 63.1601L54.0921 64.1852L54.2826 65.2374L54.5185 66.326L54.8088 67.4508L55.1444 68.6029L55.5345 69.7913L55.9699 71.0068L56.4688 72.2587L58.1652 76.2138L55.6433 82.219L54.4006 85.4666L53.2848 88.6597L52.3051 91.7984L51.4524 94.8826L50.7176 97.9125L50.1098 100.888L49.6109 103.809L49.2208 106.684L48.9487 109.506L48.7763 112.272L48.7037 114.994L48.7219 117.661L48.8398 120.282L49.0484 122.859L49.3478 125.39L49.7288 127.875L50.1914 130.306L50.7266 132.701L51.3435 135.051L52.0329 137.355L52.7858 139.623L53.6113 141.836L54.4913 144.013L55.4438 146.154L56.4507 148.24L57.512 150.29L58.6278 152.295L59.7889 154.264L60.9954 156.187L62.2473 158.065L65.3406 162.455L63.1363 171.309L62.0931 176.951L61.3946 182.512L61.0408 187.982L61.0226 193.361L61.322 198.65L61.9389 203.83L62.8551 208.901L64.0616 213.863L65.5583 218.698L67.3182 223.397L69.3411 227.969L71.6271 232.386L74.1489 236.659L76.9066 240.777L79.882 244.714L83.0842 248.488L86.486 252.071L90.0782 255.464L93.861 258.657L97.8252 261.632L101.944 264.399L106.216 266.939L110.643 269.243L115.197 271.302L119.878 273.126L124.667 274.677L129.566 275.965L134.555 276.99L139.626 277.725L144.779 278.169L149.995 278.324L155.22 278.169L160.372 277.725L165.443 276.99L170.432 275.965L175.331 274.677L180.13 273.126L184.801 271.302L189.355 269.243L193.782 266.939L198.055 264.399L202.182 261.632L206.137 258.657L209.92 255.464L213.512 252.071L216.914 248.488L220.116 244.714L223.092 240.777L225.849 236.659L228.371 232.386L230.657 227.969L232.68 223.397L234.44 218.698L235.937 213.863L237.143 208.901L238.059 203.83L238.676 198.65L238.976 193.361L238.957 187.982L238.604 182.512L237.914 176.951L236.862 171.309L234.658 162.455L237.751 158.065L239.003 156.187L240.209 154.264L241.379 152.295L242.486 150.29L243.548 148.24L244.554 146.154L245.507 144.013L246.387 141.836L247.212 139.623L247.965 137.355L248.655 135.051L249.272 132.701L249.807 130.306L250.269 127.875L250.65 125.39L250.95 122.859L251.158 120.282L251.276 117.661L251.294 114.994L251.222 112.272L251.05 109.506L250.777 106.684L250.387 103.809L249.897 100.888L249.281 97.9125L248.546 94.8826L247.693 91.7984L246.713 88.6597L245.598 85.4666L244.355 82.219L241.833 76.2138Z" fill="#1A1A18"/>
<path fill-rule="evenodd" clip-rule="evenodd" d="M58.1652 56.4833C119.388 21.74 180.61 21.74 241.833 56.4833L223.999 82.001C222.674 81.2934 221.341 80.6131 220.016 79.9509C220.833 78.1729 221.695 76.404 222.565 74.5988C224.788 70.1719 226.267 56.1476 225.532 50.7411C216.987 59.6038 212.424 66.1987 211.507 75.9504C170.523 57.9256 129.53 58.0708 88.5452 76.3858C87.7287 66.3892 83.1568 59.7399 74.4845 50.7411C73.7407 56.1567 75.2284 70.1719 77.4418 74.5988C78.3852 76.5491 79.3105 78.4541 80.1814 80.3682C79.1291 80.9034 78.0859 81.4386 77.0336 81.9919L58.1652 56.4742V56.4833Z" fill="#E3000F"/>
<path fill-rule="evenodd" clip-rule="evenodd" d="M203.452 51.0497L201.665 55.6579L202.563 55.9664C203.234 56.1932 203.833 56.2022 204.368 55.9664C204.894 55.7396 205.321 55.2225 205.638 54.397C205.965 53.5443 206.001 52.8821 205.747 52.4104C205.493 51.9387 205.021 51.5849 204.35 51.3581L203.452 51.0497ZM192.131 62.8243L199.27 44.4095L206.273 46.8043C207.525 47.2306 208.577 47.784 209.439 48.4644C210.292 49.1447 210.954 49.9067 211.408 50.7594C211.861 51.6121 212.106 52.5193 212.142 53.4899C212.179 54.4605 211.997 55.4493 211.607 56.4472C211.235 57.3996 210.745 58.2524 210.138 59.0053C209.53 59.7491 208.795 60.3297 207.924 60.7379C207.053 61.1461 206.056 61.3548 204.913 61.3729C203.779 61.391 202.481 61.1461 201.03 60.6563L199.887 60.2662L198.1 64.8744L192.131 62.8334V62.8243ZM176.147 59.0597L180.837 39.9645L194.508 42.9308L193.12 47.6479L185.854 46.0786L185.291 48.3555L191.169 49.6255L189.89 54.1158L184.175 52.8821L183.504 55.6126L190.988 57.2364L189.6 61.9535L176.147 59.0416V59.0597ZM169.307 58.0256L162.921 57.2908L164.826 42.704L160.145 42.1325L161.089 37.3066L176.828 39.1571L175.984 43.9831L171.212 43.4388L169.307 58.0256ZM146.683 46.8406L140.506 37.3882L147.201 37.2794L149.741 42.7403L152.072 37.1977L158.767 37.0889L152.943 46.7408L159.646 56.6739L153.124 56.7828L149.886 51.1223L146.865 56.8916L140.37 57.0005L146.674 46.8497L146.683 46.8406ZM127.135 58.7694L120.603 59.7401L121.374 39.7831L131.625 38.2591L138.927 57.0186L132.396 57.9893L130.836 53.2631L127.053 53.8255L127.126 58.7785L127.135 58.7694ZM126.953 43.9196L127.017 49.3624L129.421 49.0086L127.697 43.8107L126.953 43.9196ZM106.452 42.9218L112.403 41.1075L118.853 59.7491L94.2057 67.2693L87.7559 48.6276L93.7067 46.8134L98.5418 60.7923L102.016 59.731L97.1811 45.752L102.969 43.9831L107.804 57.9621L111.278 56.9007L106.443 42.9218H106.452Z" fill="white"/>
<path d="M95.2308 93.8665C89.8787 102.82 87.8467 110.893 86.0415 120.681C84.6989 127.948 83.2203 134.896 81.279 139.994M98.6416 133.635C95.3215 139.985 93.3076 150.626 92.0195 154.617C89.9875 160.922 89.0078 167.617 89.0622 170.302M64.3428 137.228C67.6357 139.949 70.3299 143.124 72.8064 146.589C78.0224 153.883 82.3222 164.006 88.5815 170.247M61.4399 106.031C65.6128 109.714 72.634 117.488 74.92 122.94C75.428 124.165 76.4621 125.598 76.707 126.796C76.7615 127.086 80.3537 135.586 80.6531 135.586M83.5559 73.9911C84.4812 76.8939 85.0436 80.3229 85.3793 83.8063C85.8601 88.7865 85.7966 93.422 85.2886 98.3659C84.7533 102.929 82.9572 109.678 81.4967 115.91C80.2086 121.407 80.9071 127.821 80.6531 132.882C80.1542 142.689 84.0186 164.333 90.1417 172.225M80.8254 118.377C80.644 117.652 79.9818 106.984 79.9818 106.92C79.9818 100.969 76.0448 92.3153 71.9446 88.2331M85.7693 122.124C84.8259 118.64 85.089 105.315 87.0212 99.7538C89.6519 92.2064 94.1694 86.2284 96.4282 79.0257C98.2515 83.008 99.0589 87.3986 99.2312 91.4444C99.6213 100.489 96.9543 105.151 92.337 112.472C90.3867 115.556 88.019 118.404 85.7603 122.124H85.7693ZM89.0622 163.172C88.8899 160.985 88.7538 156.132 88.7175 151.261C88.645 141.364 90.2143 135.45 94.7137 126.478C96.0563 123.793 97.3172 121.09 98.0973 118.196C100.066 121.924 101.154 126.079 101.635 129.998C102.778 139.305 100.528 145.582 95.902 153.411C94.0152 156.595 91.702 160.042 89.0622 163.172ZM82.7032 162.863C81.3153 155.026 80.4172 147.251 75.3554 139.804C72.7338 135.949 69.3774 132.556 64.6603 128.61C61.9026 126.306 59.2447 123.947 57.1492 121.144C56.0062 126.823 56.5505 132.601 57.8386 137.554C59.2356 142.933 61.4127 146.934 64.4244 150.426C69.4137 156.205 75.5459 160.287 82.6941 162.854L82.7032 162.863ZM78.3308 130.742C77.5235 121.253 73.2509 106.712 65.7851 100.035C61.7756 96.4518 57.7751 94.2928 53.3574 93.0319C54.074 96.9144 54.1919 104.208 56.7228 109.642C57.9384 112.263 60.56 115.538 63.2361 117.661C66.91 120.582 77.0155 125.807 78.3308 130.742ZM80.5714 115.946C80.5714 111.773 81.9775 104.934 81.7054 99.2095C81.1157 87.0992 72.5614 76.4494 60.1609 75.0978C65.8668 84.4595 68.4521 102.403 80.5714 115.946ZM85.3339 97.9758C86.0687 94.8462 87.9465 89.3489 88.2912 86.1649C90.0419 70.0813 85.6696 62.3707 74.4664 50.7412C73.7226 56.1568 75.2103 70.1721 77.4237 74.5989C81.1248 82.2279 84.581 89.358 85.3248 97.9667L85.3339 97.9758Z" stroke="#ECCC3C" stroke-width="2.63" stroke-linecap="round" stroke-linejoin="round"/>
<path d="M204.767 93.8665C210.12 102.82 212.152 110.893 213.957 120.681C215.299 127.948 216.778 134.896 218.719 139.994M201.357 133.635C204.677 139.985 206.691 150.626 207.979 154.617C210.011 160.922 210.99 167.617 210.936 170.302M235.655 137.228C232.363 139.949 229.668 143.124 227.192 146.589C221.976 153.883 217.676 164.006 211.417 170.247M238.549 106.031C234.376 109.714 227.355 117.488 225.069 122.94C224.561 124.165 223.527 125.598 223.282 126.795C223.228 127.086 219.635 135.586 219.336 135.586M216.442 73.9911C215.526 76.8939 214.955 80.3229 214.619 83.8063C214.138 88.7865 214.193 93.422 214.71 98.3659C215.245 102.929 217.041 109.678 218.502 115.91C219.79 121.407 219.091 127.821 219.345 132.882C219.844 142.689 216.225 164.006 210.101 171.898M219.173 118.377C219.354 117.652 220.016 106.984 220.016 106.92C220.016 100.969 223.953 92.3153 228.054 88.2331M214.229 122.124C215.172 118.64 214.909 105.315 212.977 99.7538C210.346 92.2064 205.829 86.2284 203.57 79.0257C201.747 83.008 200.939 87.3986 200.767 91.4444C200.377 100.489 203.044 105.151 207.661 112.472C209.612 115.556 211.979 118.404 214.238 122.124H214.229ZM210.936 163.172C211.108 160.985 211.244 156.132 211.281 151.261C211.353 141.364 209.784 135.45 205.285 126.478C203.942 123.793 202.672 121.09 201.892 118.196C199.923 121.924 198.835 126.079 198.363 129.998C197.22 139.305 199.47 145.582 204.096 153.411C205.983 156.595 208.296 160.042 210.936 163.172ZM217.295 162.863C218.683 155.026 219.581 147.251 224.643 139.804C227.264 135.949 230.621 132.556 235.338 128.61C238.096 126.306 240.754 123.947 242.849 121.144C243.992 126.823 243.448 132.601 242.16 137.554C240.763 142.933 238.585 146.934 235.574 150.426C230.585 156.205 224.452 160.287 217.304 162.854L217.295 162.863ZM221.667 130.742C222.475 121.253 226.747 106.712 234.213 100.035C238.223 96.4518 242.223 94.2928 246.641 93.0319C245.924 96.9144 245.806 104.208 243.275 109.642C242.06 112.263 239.438 115.538 236.762 117.661C233.088 120.582 222.983 125.807 221.667 130.742ZM219.427 115.946C219.427 111.773 218.021 104.934 218.293 99.2095C218.882 87.0992 227.437 76.4494 239.837 75.0978C234.131 84.4595 231.546 102.403 219.427 115.946ZM214.664 97.9758C213.93 94.8462 212.052 89.3489 211.707 86.1649C209.956 70.0813 214.329 62.3707 225.532 50.7412C226.276 56.1568 224.788 70.1721 222.565 74.5989C218.864 82.2279 215.408 89.358 214.664 97.9667V97.9758Z" stroke="#ECCC3C" stroke-width="2.63" stroke-linecap="round" stroke-linejoin="round"/>
<path fill-rule="evenodd" clip-rule="evenodd" d="M160.753 140.765V70.1358L182.234 72.5397V93.2587L194.734 74.7169L218.447 81.3299L196.603 109.832L220.243 150.499L193.138 146.063L182.225 125.253V144.276L160.744 140.756L160.753 140.765ZM136.805 107.637L136.877 107.347L136.941 107.038L137.004 106.721L137.059 106.394L137.113 106.058L137.159 105.714L137.195 105.36L137.231 104.997L137.258 104.616L137.276 104.226L137.295 103.827V103.419L137.304 103.001V102.584L137.295 102.176L137.276 101.786L137.258 101.405L137.231 101.033L137.195 100.679L137.159 100.334L137.113 100.008L137.059 99.6903L137.004 99.391L136.941 99.1007L136.877 98.8285L136.805 98.5655L136.732 98.3205L136.66 98.0847L136.578 97.867L136.496 97.6583L136.415 97.4678L136.333 97.2864L136.242 97.1231L136.152 96.9689L136.061 96.8238L135.97 96.6968L135.879 96.5698L135.789 96.4609L135.698 96.3611L135.607 96.2704L135.517 96.1797L135.417 96.0981L135.326 96.0255L135.226 95.962L135.117 95.8985L134.773 95.6989L134.419 95.5175L134.065 95.3542L133.711 95.2091L133.358 95.0821L133.004 94.9732L132.641 94.8734L132.278 94.7918L131.906 94.7283L131.725 94.7011V113.497L131.943 113.388L132.333 113.17L132.723 112.935L133.113 112.681L133.503 112.408L133.893 112.118L134.283 111.81L134.664 111.483L134.809 111.347L134.945 111.211L135.081 111.066L135.217 110.912L135.344 110.757L135.471 110.594L135.598 110.422L135.716 110.24L135.834 110.05L135.943 109.859L136.052 109.651L136.161 109.433L136.26 109.206L136.36 108.97L136.451 108.725L136.542 108.471L136.632 108.208L136.714 107.936L136.787 107.655L136.805 107.637ZM107.967 102.548L107.785 103.038L107.622 103.528L107.477 104.008L107.35 104.489L107.232 104.961L107.132 105.432L107.051 105.904L106.978 106.376L106.924 106.839L106.887 107.301L106.869 107.764V108.226V108.68L106.887 109.125L106.924 109.569L106.978 110.004L107.042 110.44L107.123 110.866L107.223 111.293L107.332 111.719L107.459 112.136L107.604 112.554L107.758 112.971L107.931 113.379L108.121 113.787L108.321 114.195L108.538 114.604L108.747 114.966L108.928 115.239L109.092 115.447L109.273 115.629L109.473 115.792L109.69 115.946L109.944 116.091L110.235 116.218L110.57 116.336L110.951 116.436L111.387 116.518L111.868 116.581L112.403 116.617H112.43V97.486L112.113 97.613L111.632 97.8398L111.196 98.0847L110.797 98.3387L110.434 98.6108L110.108 98.892L109.808 99.1823L109.536 99.4907L109.291 99.8173L109.065 100.162L108.847 100.561L108.611 101.033L108.384 101.532L108.166 102.031L107.967 102.521V102.548ZM96.7184 133.345L96.3374 133.136L95.9655 132.919L95.5936 132.692L95.2307 132.456L94.8679 132.211L94.505 131.957L94.1512 131.694L93.8065 131.422L93.4618 131.141L93.1171 130.85L92.7814 130.551L92.4458 130.243L92.1192 129.925L91.7927 129.608L91.4752 129.281L91.1577 128.945L90.8492 128.601L90.5408 128.247L90.2415 127.884L89.933 127.494L89.6246 127.086L89.3253 126.669L89.035 126.233L88.7628 125.789L88.4998 125.335L88.2458 124.872L88.0099 124.401L87.7831 123.92L87.5654 123.43L87.3568 122.931L87.1572 122.423L86.9758 121.906L86.8034 121.38L86.6401 120.845L86.4859 120.3L86.3408 119.747L86.2047 119.185L86.0777 118.613L85.9598 118.033L85.86 117.443L85.7602 116.844L85.6786 116.246L85.606 115.629L85.5425 115.003L85.4881 114.377L85.4427 113.742L85.4064 113.089L85.3792 112.436L85.352 111.773V111.102L85.3339 110.413V109.75L85.352 109.097L85.3701 108.444L85.3974 107.8L85.4336 107.165L85.479 106.53L85.5334 105.904L85.5969 105.287L85.6695 104.67L85.7511 104.063L85.8419 103.464L85.9416 102.865L86.0505 102.276L86.1684 101.695L86.2954 101.124L86.4315 100.552L86.5766 99.9897L86.7309 99.4363L86.8941 98.892L87.0665 98.3478L87.2479 97.8125L87.4384 97.2864L87.638 96.7693L87.8466 96.2523L88.0643 95.7443L88.2911 95.2453L88.527 94.7555L88.7719 94.2656L89.0259 93.7849L89.289 93.3132L89.5611 92.8505L89.8423 92.3969L90.1235 91.9615L90.4048 91.5352L90.695 91.1179L90.9853 90.7097L91.2847 90.3105L91.584 89.9114L91.8925 89.5213L92.2009 89.1403L92.5184 88.7593L92.8359 88.3874L93.1534 88.0245L93.4799 87.6708L93.8156 87.317L94.1512 86.9723L94.4869 86.6366L94.8316 86.301L95.1854 85.9744L95.5391 85.6569L95.8929 85.3485L96.2558 85.0491L96.6186 84.7498L96.9906 84.4595L97.3625 84.1783L97.7435 83.9061L98.1245 83.6431L98.5055 83.3891L98.8955 83.1351L99.2947 82.8902L99.6938 82.6543L100.093 82.4275L100.501 82.2098L100.909 81.9921L101.309 81.7925L101.699 81.602L102.089 81.4115L102.488 81.2301L102.887 81.0487L103.286 80.8763L103.685 80.704L104.084 80.5316L104.484 80.3683L104.883 80.205L105.282 80.0508L105.681 79.8966L106.089 79.7515L106.488 79.6063L106.896 79.4703L107.305 79.3342L107.713 79.2072L108.121 79.0802L108.529 78.9623L108.938 78.8443L109.355 78.7355L109.763 78.6266L110.171 78.5268L110.589 78.427L111.006 78.3363L111.314 78.2728V71.9864L132.832 67.7954V75.2611H133.058L133.675 75.2249L134.292 75.2067H134.909H135.526H136.133L136.741 75.243L137.349 75.2793L137.957 75.3246L138.565 75.3791L139.181 75.4426L139.807 75.5242L140.433 75.6149L141.059 75.7238L141.676 75.8508L142.293 75.9959L142.901 76.1501L143.509 76.3225L144.107 76.513L144.706 76.7216L145.296 76.9484L145.876 77.1843L146.457 77.4383L147.028 77.7104L147.591 77.9916L148.144 78.291L148.715 78.6175L149.296 78.9804L149.858 79.3614L150.412 79.7696L150.947 80.196L151.464 80.6495L151.963 81.1212L152.453 81.6202L152.925 82.1372L153.378 82.6724L153.814 83.2258L154.24 83.8064L154.648 84.4051L155.038 85.0219L155.41 85.6569L155.773 86.3101L156.109 86.9723L156.281 87.3351L156.444 87.698L156.608 88.0608L156.762 88.4328L156.907 88.8138L157.052 89.1948L157.188 89.5757L157.315 89.9658L157.442 90.365L157.56 90.7641L157.678 91.1723L157.787 91.5805L157.887 91.9978L157.986 92.4151L158.077 92.8414L158.159 93.2678L158.24 93.7032L158.313 94.1386L158.386 94.5831L158.449 95.0276L158.513 95.4812L158.567 95.9438L158.612 96.4065L158.658 96.8691L158.694 97.3408L158.73 97.8216L158.757 98.3024L158.776 98.7923L158.794 99.2821V99.781L158.812 100.28V100.788V101.468V102.149L158.776 102.82L158.748 103.482L158.712 104.135L158.667 104.788L158.612 105.432L158.549 106.067L158.476 106.693L158.395 107.319L158.304 107.936L158.204 108.544L158.095 109.143L157.977 109.741L157.85 110.331L157.714 110.912L157.569 111.483L157.415 112.055L157.243 112.617L157.061 113.17L156.88 113.715L156.68 114.25L156.471 114.785L156.254 115.311L156.027 115.828L155.791 116.336L155.546 116.835L155.292 117.325L155.029 117.806L154.757 118.287L154.476 118.758L154.185 119.212L153.895 119.647L153.605 120.074L153.315 120.491L153.015 120.899L152.716 121.298L152.408 121.697L152.099 122.088L151.782 122.469L151.464 122.84L151.138 123.212L150.811 123.575L150.484 123.929L150.149 124.274L149.813 124.609L149.468 124.945L149.124 125.272L148.77 125.589L148.416 125.897L148.053 126.206L147.69 126.505L147.318 126.796L146.947 127.077L146.566 127.349L146.185 127.612L145.804 127.875L145.413 128.129L145.023 128.374L144.624 128.61L144.225 128.837L143.817 129.054L143.409 129.263L143.01 129.463L142.62 129.653L142.229 129.834L141.839 130.007L141.449 130.179L141.059 130.352L140.669 130.515L140.279 130.678L139.889 130.832L139.499 130.987L139.109 131.132L138.71 131.277L138.32 131.413L137.921 131.549L137.521 131.685L137.122 131.812L136.723 131.939L136.324 132.057L135.925 132.175L135.526 132.284L135.127 132.393L134.718 132.501L134.319 132.601L133.911 132.701L133.512 132.792L133.104 132.882L132.859 132.937V142.072L111.341 145.147V135.939H111.187L110.788 135.967H110.389L109.99 135.985H109.591H109.192H108.792L108.393 135.976H107.994L107.595 135.949L107.196 135.93L106.797 135.903L106.398 135.876L105.998 135.84L105.599 135.803L105.2 135.758L104.801 135.713L104.402 135.658L104.003 135.604L103.604 135.549L103.204 135.486L102.805 135.422L102.415 135.35L102.007 135.277L101.581 135.187L101.154 135.087L100.737 134.978L100.32 134.86L99.9025 134.733L99.4943 134.597L99.086 134.452L98.6869 134.298L98.2878 134.134L97.8886 133.962L97.4986 133.78L97.1085 133.59L96.7275 133.39L96.7184 133.345Z" fill="#E3000F"/>
<path fill-rule="evenodd" clip-rule="evenodd" d="M163.801 138.189V73.5286L179.195 75.2521V103.201L196.041 78.2275L213.313 83.0444L192.966 109.596L214.401 146.462L195.152 143.315L179.204 112.898V140.702L163.81 138.18L163.801 138.189ZM128.704 91.7166V117.579C131.616 117.162 134.283 115.874 136.714 113.724C139.145 111.574 140.361 108 140.361 102.992C140.361 97.985 139.136 94.7283 136.714 93.2769C134.283 91.8255 131.625 91.2994 128.704 91.7076V91.7166ZM115.469 119.475V93.6126C110.797 94.2838 107.677 96.1435 106.135 99.1824C104.583 102.239 103.812 105.242 103.812 108.227C103.812 111.211 104.583 113.969 106.144 116.572C107.704 119.167 110.815 120.137 115.46 119.475H115.469ZM114.38 141.618V132.565C110.389 133.136 106.47 133.037 102.606 132.275C98.7505 131.504 95.4122 129.408 92.6092 125.961C89.788 122.532 88.3819 117.343 88.3819 110.413C88.3819 103.482 89.7335 98.2571 92.4368 94.0208C95.1401 89.7844 98.433 86.682 102.316 84.6954C106.198 82.7088 110.226 81.4207 114.38 80.831V74.4992L129.811 71.4966V78.6267C132.868 78.1912 135.889 78.1277 138.855 78.4543C141.821 78.7809 144.588 79.7152 147.164 81.2211C149.741 82.7451 151.809 85.0946 153.396 88.3058C154.984 91.508 155.782 95.6627 155.782 100.77C155.782 107.7 154.394 113.288 151.609 117.534C148.824 121.779 145.522 124.836 141.658 126.696C137.812 128.555 133.866 129.762 129.811 130.343V139.396L114.38 141.6V141.618Z" fill="white"/>
<path fill-rule="evenodd" clip-rule="evenodd" d="M150.004 140.729C177.109 140.729 199.089 162.636 199.089 189.651C199.089 216.665 177.109 238.573 150.004 238.573C122.898 238.573 100.918 216.665 100.918 189.651C100.918 162.636 122.898 140.729 150.004 140.729Z" fill="#ECCC3C"/>
<path fill-rule="evenodd" clip-rule="evenodd" d="M150.004 143.006C175.848 143.006 196.803 163.897 196.803 189.651C196.803 215.404 175.848 236.296 150.004 236.296C124.159 236.296 103.204 215.404 103.204 189.651C103.204 163.897 124.159 143.006 150.004 143.006Z" fill="#080200"/>
<path fill-rule="evenodd" clip-rule="evenodd" d="M150.004 144.82C174.841 144.82 194.979 164.895 194.979 189.651C194.979 214.407 174.841 234.482 150.004 234.482C125.166 234.482 105.028 214.407 105.028 189.651C105.028 164.895 125.166 144.82 150.004 144.82Z" fill="white"/>
<path fill-rule="evenodd" clip-rule="evenodd" d="M183.395 158.482C190.589 166.555 194.979 177.269 194.979 189.025C194.979 214.125 174.986 234.482 150.33 234.482C129.747 234.482 112.412 220.285 107.25 200.99L107.296 201.045C107.631 201.543 107.994 202.024 108.375 202.478C120.631 221.174 155.156 221.655 170.069 206.46C180.502 195.838 185.527 182.666 185.527 167.626C185.527 164.333 184.756 161.221 183.386 158.473" fill="#E3E3E3"/>
<path fill-rule="evenodd" clip-rule="evenodd" d="M161.524 174.194H139.073L132.033 195.275L150.376 208.619L168.409 195.094L161.524 174.203V174.194ZM180.656 211.395L180.302 210.842L179.912 211.041L179.576 198.986L186.951 188.998L187.695 189.198L180.302 199.185L180.656 211.395ZM179.712 198.641L179.576 198.977V199.385L168.219 195.266L168.609 195.085L168.409 194.931L179.712 198.641ZM180.656 167.363L180.111 167.717L168.4 164.396L161.515 154.563L161.923 154.019L168.763 163.798L180.656 167.354V167.363ZM168.219 164.006L161.18 174.194H161.515L161.715 174.375L168.754 164.542L168.4 164.387L168.219 163.997V164.006ZM112.693 189.551L120.141 198.977L119.732 211.577L120.476 210.833L120.885 198.777L113.437 189.551H112.693ZM120.885 199.185V198.777L120.685 198.441L132.187 194.731L132.033 195.266V195.466L120.885 199.176V199.185ZM139.073 154.563L132.033 164.551L120.476 168.261L120.34 168.796L132.369 165.285L139.608 154.563H139.064H139.073ZM132.033 165.285L138.873 174.575L139.073 173.985L139.272 174.184L132.777 164.941L132.578 165.276H132.033V165.285ZM138.864 224.921L150.013 220.82L161.923 224.921L161.724 224.531L162.059 224.331L150.013 220.086L138.864 224.186L139.064 224.34L138.864 224.93V224.921ZM150.376 220.285L150.022 220.086L149.831 220.285L150.022 208.429L150.376 208.61H150.575L150.376 220.285ZM136.297 146.952C140.56 145.401 145.214 144.594 150.276 144.494C155.338 144.394 159.955 145.22 164.146 146.952L161.524 154.554H139.073L136.297 146.952ZM105.064 189.742C104.865 185.306 105.536 180.652 107.042 175.799C108.566 170.946 110.815 166.692 113.791 163.063L120.476 168.261L113.437 189.56L105.064 189.742ZM136.632 232.287C132.178 231.107 127.888 229.084 123.769 226.245C119.66 223.415 116.394 220.004 113.99 216.022L120.467 211.032L139.064 224.322L136.623 232.287H136.632ZM186.951 216.031L180.302 211.041L161.724 224.531L164.146 232.287C168.582 231.289 172.845 229.284 176.936 226.245C181.028 223.224 184.384 219.822 186.951 216.022V216.031ZM186.797 162.519C189.573 166.247 191.786 170.474 193.41 175.237C195.052 180.008 195.696 184.662 195.324 189.198L186.951 188.998L180.302 167.717L186.797 162.519ZM136.297 146.952V147.152C132.559 148.268 128.414 150.454 123.824 153.692C119.252 156.949 116.04 160.133 114.181 163.253L113.791 163.054C115.632 159.834 118.898 156.559 123.552 153.221C128.205 149.9 132.451 147.805 136.297 146.943V146.952ZM105.064 189.742C104.865 193.643 105.654 198.296 107.414 203.721C109.192 209.164 111.369 213.264 113.999 216.031L114.389 215.831C111.786 212.965 109.618 208.882 107.922 203.558C106.216 198.242 105.472 193.643 105.654 189.742H105.064ZM136.632 232.287C140.234 233.702 144.851 234.446 150.493 234.527C156.127 234.609 160.681 233.874 164.146 232.287L163.955 231.933C160.49 233.52 155.982 234.264 150.466 234.155C144.951 234.055 140.334 233.312 136.623 231.933V232.287H136.632ZM186.951 216.031L186.207 215.641C188.729 212.602 190.843 208.438 192.585 203.131C194.308 197.834 195.052 193.18 194.78 189.198H195.324C195.596 193.18 194.871 197.879 193.138 203.313C191.433 208.728 189.364 212.955 186.942 216.031H186.951ZM186.797 162.519L186.207 162.927C184.157 159.688 180.892 156.523 176.41 153.384C171.947 150.263 167.847 148.186 164.146 147.161V146.961C168.228 148.023 172.492 150.064 176.973 153.121C181.436 156.178 184.72 159.307 186.806 162.528L186.797 162.519Z" fill="#080200"/>
<path d="M186.951 188.998L179.576 198.986L179.912 211.041L180.302 210.842L180.656 211.395L180.302 199.185L187.695 189.198L186.951 188.998ZM186.951 188.998L195.324 189.198C195.696 184.662 195.052 180.008 193.41 175.237C191.786 170.474 189.573 166.247 186.797 162.519M186.951 188.998L180.302 167.717L186.797 162.519M120.885 198.777L120.476 210.833L119.732 211.577L120.141 198.977L112.693 189.551H113.437L120.885 198.777ZM120.885 198.777V199.185V199.176L132.033 195.466V195.266L132.187 194.731L120.685 198.441L120.885 198.777ZM120.476 168.261L132.033 164.551L139.073 154.563H139.064H139.608L132.369 165.285L120.34 168.796L120.476 168.261ZM120.476 168.261L113.791 163.063C110.815 166.692 108.566 170.946 107.042 175.799C105.536 180.652 104.865 185.306 105.064 189.742M120.476 168.261L113.437 189.56L105.064 189.742M161.724 224.531L161.923 224.921L150.013 220.82L138.864 224.921V224.93L139.064 224.34L138.864 224.186L150.013 220.086L162.059 224.331L161.724 224.531ZM161.724 224.531L180.302 211.041L186.951 216.031M161.724 224.531L164.146 232.287M136.297 146.952C140.56 145.401 145.214 144.594 150.276 144.494C155.338 144.394 159.955 145.22 164.146 146.952L161.524 154.554H139.073L136.297 146.952ZM136.297 146.952V147.152C132.559 148.268 128.414 150.454 123.824 153.692C119.252 156.949 116.04 160.133 114.181 163.253L113.791 163.054C115.632 159.834 118.898 156.559 123.552 153.221C128.205 149.9 132.451 147.805 136.288 146.943L136.297 146.952ZM105.064 189.742C104.865 193.633 105.654 198.296 107.414 203.721C109.192 209.164 111.369 213.264 113.99 216.031L114.38 215.831C111.777 212.965 109.609 208.882 107.912 203.558C106.207 198.242 105.463 193.643 105.645 189.742H105.055H105.064ZM136.632 232.287C132.178 231.107 127.888 229.084 123.769 226.245C119.66 223.415 116.394 220.004 113.99 216.022L120.467 211.032L139.064 224.322L136.623 232.287H136.632ZM136.632 232.287C140.234 233.702 144.851 234.446 150.493 234.527C156.127 234.609 160.681 233.874 164.146 232.287M136.632 232.287V231.933C140.343 233.312 144.96 234.055 150.475 234.155C155.991 234.264 160.49 233.52 163.955 231.933L164.146 232.287M186.951 216.031V216.022C184.384 219.822 181.028 223.224 176.936 226.245C172.845 229.284 168.582 231.289 164.146 232.287M186.951 216.031L186.207 215.641C188.729 212.602 190.843 208.438 192.585 203.131C194.308 197.834 195.052 193.18 194.789 189.198H195.333C195.605 193.18 194.88 197.879 193.147 203.313C191.442 208.728 189.373 212.955 186.951 216.031ZM186.797 162.519L186.207 162.927C184.157 159.688 180.892 156.523 176.41 153.384C171.947 150.263 167.847 148.186 164.146 147.161V146.961C168.228 148.023 172.492 150.064 176.973 153.121C181.436 156.178 184.72 159.307 186.806 162.528L186.797 162.519ZM161.524 174.194H139.073L132.033 195.275L150.376 208.619L168.409 195.094L161.524 174.203V174.194ZM179.712 198.641L179.576 198.977V199.385L168.228 195.266L168.618 195.085L168.418 194.931L179.721 198.641H179.712ZM180.656 167.363L180.111 167.717L168.4 164.396L161.515 154.563L161.923 154.019L168.763 163.798L180.656 167.354V167.363ZM168.219 164.006L161.18 174.194H161.515L161.715 174.375L168.754 164.542L168.4 164.387L168.219 163.997V164.006ZM132.033 165.285L138.873 174.575L139.073 173.985L139.272 174.184L132.777 164.941L132.578 165.276H132.033V165.285ZM150.376 220.285L150.022 220.086L149.831 220.285L150.022 208.429L150.376 208.61H150.575L150.376 220.285Z" stroke="#1A1A18" stroke-width="0.15" stroke-miterlimit="22.93"/>
<path d="M176.891 147.542C177.68 147.542 178.288 147.279 178.724 146.744C179.159 146.208 179.386 145.573 179.386 144.829C179.386 143.913 179.123 143.242 178.588 142.825C178.052 142.398 177.49 142.19 176.891 142.19C176.447 142.19 176.038 142.299 175.657 142.516C175.276 142.734 174.977 143.051 174.75 143.451C174.524 143.859 174.406 144.321 174.406 144.839C174.406 145.582 174.623 146.217 175.077 146.744C175.53 147.279 176.129 147.542 176.882 147.542H176.891ZM176.882 138.398C177.435 138.398 177.916 138.207 178.334 137.835C178.742 137.464 178.95 136.892 178.95 136.139C178.95 135.314 178.733 134.724 178.288 134.379C177.853 134.035 177.381 133.862 176.882 133.862C176.383 133.862 175.921 134.035 175.485 134.37C175.059 134.706 174.841 135.295 174.841 136.139C174.841 136.901 175.05 137.473 175.467 137.845C175.884 138.216 176.356 138.398 176.882 138.398ZM180.774 140.167V140.23C181.336 140.403 181.899 140.675 182.461 141.065C183.023 141.455 183.513 142.017 183.921 142.761C184.33 143.514 184.538 144.458 184.538 145.591C184.538 146.49 184.348 147.424 183.967 148.376C183.586 149.329 182.833 150.163 181.69 150.889C180.547 151.606 178.941 151.969 176.873 151.969C174.805 151.969 173.19 151.606 172.047 150.889C170.904 150.163 170.151 149.329 169.77 148.376C169.389 147.415 169.199 146.49 169.199 145.591C169.199 144.458 169.407 143.514 169.816 142.761C170.233 142.017 170.723 141.446 171.276 141.065C171.838 140.675 172.401 140.403 172.963 140.23V140.167C172.129 139.84 171.439 139.278 170.904 138.489C170.369 137.708 170.097 136.711 170.097 135.504C170.097 134.443 170.351 133.472 170.841 132.592C171.34 131.712 172.101 131.005 173.117 130.488C174.143 129.971 175.385 129.708 176.846 129.708C178.306 129.708 179.549 129.971 180.574 130.488C181.59 131.005 182.352 131.703 182.851 132.583C183.35 133.463 183.604 134.434 183.604 135.504C183.604 136.711 183.332 137.708 182.797 138.498C182.261 139.287 181.572 139.84 180.737 140.167H180.774ZM165.833 134.942H158.485L158.023 137.672C158.748 137.518 159.51 137.436 160.3 137.436C161.606 137.436 162.731 137.708 163.683 138.262C164.636 138.815 165.371 139.577 165.869 140.566C166.377 141.546 166.622 142.671 166.622 143.931C166.622 145.192 166.396 146.308 165.942 147.315C165.498 148.322 164.872 149.166 164.073 149.855C163.275 150.544 162.359 151.071 161.316 151.424C160.272 151.778 159.184 151.96 158.041 151.96C155.809 151.96 153.759 151.334 151.872 150.091L152.299 145.038H152.897C153.487 145.718 154.049 146.226 154.585 146.598C155.12 146.961 155.637 147.206 156.127 147.342C156.626 147.469 157.152 147.542 157.723 147.542C158.912 147.542 159.864 147.224 160.581 146.589C161.288 145.954 161.642 145.029 161.642 143.813C161.642 143.015 161.434 142.371 161.007 141.89C160.59 141.401 160.046 141.065 159.393 140.865C158.739 140.666 158.023 140.566 157.243 140.566C156.172 140.566 155.038 140.865 153.832 141.464H152.897L155.084 130.315H165.815V134.942H165.833ZM136.896 151.361H142.783L147.319 144.358C148.081 143.178 148.643 142.045 148.988 140.947C149.332 139.858 149.505 138.652 149.505 137.346C149.505 136.194 149.323 135.141 148.97 134.207C148.607 133.263 148.09 132.456 147.418 131.794C146.747 131.123 145.949 130.606 145.014 130.252C144.08 129.898 143.046 129.717 141.894 129.717C140.261 129.717 138.855 130.061 137.685 130.751C136.515 131.449 135.635 132.375 135.045 133.536C134.455 134.706 134.156 135.976 134.156 137.346C134.156 138.715 134.401 139.858 134.9 140.911C135.39 141.972 136.088 142.788 136.995 143.378C137.902 143.968 138.528 144.331 139.68 144.331L141.939 140.412C141.068 140.412 140.379 140.103 139.88 139.496C139.372 138.888 139.127 138.153 139.127 137.282C139.127 136.411 139.39 135.622 139.907 135.023C140.424 134.425 141.105 134.125 141.948 134.125C142.792 134.125 143.481 134.416 143.98 135.014C144.479 135.613 144.797 136.638 144.797 137.554C144.797 138.135 144.688 138.652 144.461 139.133C142.429 143.578 139.553 147.288 136.877 151.352L136.896 151.361ZM122.871 151.361V135.15H119.823V130.315H128.006V151.361H122.871Z" stroke="#E3000F" stroke-width="5.68" stroke-linecap="round" stroke-linejoin="round"/>
<path fill-rule="evenodd" clip-rule="evenodd" d="M176.891 147.542C177.68 147.542 178.288 147.278 178.724 146.743C179.168 146.208 179.386 145.573 179.386 144.829C179.386 143.913 179.123 143.242 178.588 142.824C178.052 142.398 177.49 142.189 176.891 142.189C176.447 142.189 176.038 142.298 175.657 142.516C175.276 142.734 174.977 143.051 174.75 143.45C174.524 143.859 174.406 144.321 174.406 144.829C174.406 145.573 174.632 146.208 175.077 146.734C175.53 147.269 176.129 147.532 176.882 147.532M176.891 138.398C177.445 138.398 177.925 138.207 178.343 137.835C178.751 137.463 178.959 136.892 178.959 136.139C178.959 135.313 178.742 134.724 178.297 134.379C177.853 134.034 177.39 133.862 176.891 133.862C176.392 133.862 175.93 134.034 175.494 134.37C175.068 134.715 174.85 135.295 174.85 136.139C174.85 136.91 175.059 137.481 175.476 137.844C175.893 138.216 176.365 138.398 176.891 138.398ZM180.774 140.167V140.23C181.336 140.402 181.899 140.675 182.461 141.065C183.023 141.455 183.513 142.017 183.921 142.761C184.33 143.514 184.538 144.457 184.538 145.591C184.538 146.489 184.348 147.424 183.967 148.376C183.586 149.329 182.833 150.163 181.69 150.889C180.547 151.606 178.941 151.968 176.873 151.968C174.805 151.968 173.19 151.606 172.047 150.889C170.904 150.163 170.151 149.329 169.77 148.376C169.389 147.415 169.199 146.489 169.199 145.591C169.199 144.457 169.407 143.514 169.816 142.761C170.233 142.017 170.723 141.446 171.276 141.065C171.838 140.675 172.401 140.402 172.963 140.23V140.167C172.129 139.84 171.439 139.278 170.904 138.497C170.369 137.717 170.097 136.719 170.097 135.513C170.097 134.452 170.351 133.481 170.841 132.601C171.34 131.721 172.101 131.014 173.117 130.496C174.143 129.979 175.385 129.716 176.846 129.716C178.306 129.716 179.549 129.979 180.574 130.496C181.59 131.014 182.352 131.712 182.851 132.601C183.35 133.481 183.604 134.452 183.604 135.522C183.604 136.728 183.332 137.726 182.797 138.516C182.261 139.305 181.572 139.858 180.737 140.185L180.774 140.167ZM165.842 134.941H158.494L158.032 137.672C158.758 137.518 159.52 137.436 160.309 137.436C161.606 137.436 162.74 137.708 163.692 138.262C164.645 138.815 165.38 139.577 165.879 140.566C166.387 141.545 166.631 142.67 166.631 143.931C166.631 145.192 166.405 146.308 165.951 147.315C165.498 148.322 164.881 149.165 164.082 149.855C163.284 150.544 162.368 151.07 161.325 151.424C160.282 151.778 159.193 151.959 158.05 151.959C155.818 151.959 153.768 151.342 151.881 150.1L152.308 145.047H152.906C153.496 145.727 154.059 146.244 154.594 146.607C155.129 146.97 155.646 147.215 156.136 147.351C156.635 147.478 157.161 147.551 157.732 147.551C158.921 147.551 159.873 147.233 160.59 146.598C161.298 145.963 161.651 145.038 161.651 143.822C161.651 143.024 161.443 142.38 161.016 141.899C160.599 141.409 160.055 141.074 159.402 140.874C158.758 140.675 158.032 140.575 157.252 140.575C156.181 140.575 155.047 140.874 153.841 141.473H152.906L155.093 130.324H165.824V134.95L165.842 134.941ZM136.896 151.361H142.783L147.319 144.357C148.081 143.178 148.643 142.044 148.988 140.947C149.332 139.858 149.505 138.652 149.505 137.345C149.505 136.193 149.323 135.141 148.97 134.207C148.607 133.263 148.09 132.456 147.418 131.794C146.747 131.122 145.949 130.605 145.005 130.252C144.071 129.898 143.037 129.716 141.885 129.716C140.243 129.716 138.846 130.061 137.676 130.75C136.505 131.449 135.626 132.374 135.036 133.535C134.446 134.706 134.147 135.976 134.147 137.345C134.147 138.715 134.392 139.858 134.891 140.91C135.381 141.972 136.088 142.788 136.986 143.378C137.893 143.967 138.519 144.33 139.671 144.33L141.93 140.411C141.059 140.411 140.37 140.103 139.871 139.495C139.363 138.887 139.118 138.153 139.118 137.282C139.118 136.411 139.381 135.622 139.898 135.023C140.415 134.424 141.096 134.125 141.939 134.125C142.783 134.125 143.472 134.415 143.971 135.014C144.47 135.613 144.788 136.638 144.788 137.554C144.788 138.135 144.679 138.652 144.452 139.132C142.42 143.577 139.544 147.288 136.868 151.352L136.896 151.361ZM122.871 151.361V135.15H119.823V130.315H128.006V151.361H122.871Z" fill="white"/>
<path fill-rule="evenodd" clip-rule="evenodd" d="M197.184 165.086C201.057 172.433 203.253 180.797 203.253 189.651C203.253 218.888 179.331 242.736 149.995 242.736C120.658 242.736 96.7366 218.888 96.7366 189.651C96.7366 180.797 98.9319 172.442 102.805 165.086L80.6803 179.01L65.3315 162.446C63.8801 168.279 62.1293 176.543 61.3855 182.494C58.9181 220.865 78.358 252.397 110.634 269.225C133.621 279.639 156.372 280.083 180.121 273.098C199.551 265.569 214.256 253.921 225.849 236.64C233.769 223.224 238.087 208.819 238.976 193.343C238.939 183.673 237.089 172.225 234.766 162.881L219.835 179.001L197.184 165.077V165.086Z" fill="#E3000F"/>
<path d="M197.184 165.095C201.057 172.443 203.253 180.806 203.253 189.66C203.253 218.897 179.331 242.746 149.995 242.746C120.658 242.746 96.7366 218.897 96.7366 189.66C96.7366 180.806 98.9319 172.452 102.805 165.095L80.6803 179.019L65.3315 162.455C63.8801 168.288 62.1293 176.552 61.3855 182.503C58.9181 220.875 78.358 252.407 110.634 269.234C133.621 279.648 156.372 280.092 180.121 273.108C199.551 265.578 214.256 253.931 225.849 236.65C233.769 223.233 238.087 208.828 238.976 193.352C238.939 183.682 237.089 172.234 234.766 162.89L219.835 179.001L197.184 165.077V165.095Z" stroke="#ECCC3C" stroke-width="2.75" stroke-miterlimit="22.93"/>
<path fill-rule="evenodd" clip-rule="evenodd" d="M231.891 197.298L211.172 193.661L212.197 187.873L232.916 191.511L231.891 197.298ZM225.55 208.964L225.985 206.487C226.149 205.535 226.112 204.791 225.867 204.247C225.623 203.693 225.096 203.349 224.307 203.213C223.536 203.077 222.937 203.213 222.52 203.648C222.103 204.065 221.813 204.764 221.64 205.725L221.205 208.202L225.559 208.964H225.55ZM228.67 215.477L207.952 211.83L208.977 206.043L217.059 207.467L217.594 204.428C217.758 203.503 217.984 202.605 218.284 201.743C218.583 200.89 219.019 200.083 219.59 199.339C220.162 198.586 220.924 198.024 221.885 197.643C222.847 197.262 223.99 197.189 225.323 197.425C227.845 197.87 229.387 198.985 229.95 200.773C230.512 202.569 230.603 204.528 230.231 206.651L228.67 215.477ZM204.405 227.134L208.641 229.774C209.929 230.572 210.891 231.343 211.544 232.087C212.197 232.822 212.514 233.729 212.505 234.799L215.916 229.356L206.636 223.578L204.405 227.143V227.134ZM197.628 228.567L205.475 215.913L219.037 224.358L220.37 222.226L227.618 226.689L224.616 230.726L221.985 229.157L215.553 239.426L218.003 240.995L215.345 245.404L208.596 241.031C208.931 240.442 209.104 239.798 209.122 239.099C209.14 238.401 208.958 237.693 208.568 236.976C208.187 236.251 207.58 235.57 206.718 234.962L197.619 228.567H197.628ZM189.945 261.768L177.581 244.805L182.343 241.358L186.797 247.463L192.594 243.272L188.14 237.167L192.902 233.711L205.266 250.683L200.504 254.13L195.56 247.345L189.763 251.536L194.707 258.321L189.945 261.768ZM166.55 253.45L166.087 261.532L170.75 260.371L166.541 253.441L166.55 253.45ZM159.692 271.62L161.86 249.468L168.8 247.744L181.127 266.295L175.004 267.819L173.018 264.58L166.078 266.304L165.815 270.096L159.692 271.62ZM124.758 250.629L119.615 256.897L124.078 258.693L124.758 250.629ZM108.502 261.297L123.325 244.642L129.956 247.309L128.985 269.543L123.134 267.184L123.434 263.401L116.802 260.734L114.353 263.655L108.502 261.297ZM105.536 237.947L102.361 241.585L103.631 242.682C105.082 243.943 106.343 243.961 107.414 242.737C108.466 241.53 108.266 240.306 106.806 239.045L105.536 237.947ZM90.3232 246.438L104.13 230.608L110.815 236.405C111.886 237.339 112.657 238.292 113.129 239.271C113.609 240.251 113.827 241.204 113.809 242.12C113.791 243.036 113.609 243.871 113.283 244.642C112.947 245.413 112.521 246.102 111.995 246.71C111.469 247.318 110.843 247.844 110.117 248.279C109.391 248.715 108.575 249.005 107.668 249.15C106.751 249.295 105.772 249.205 104.728 248.878C103.685 248.551 102.633 247.925 101.563 247L99.3219 245.059L94.7681 250.284L90.3232 246.429V246.438ZM92.2735 221.755L84.3179 223.406L86.6493 227.597L92.2735 221.755ZM72.8971 219.85L94.9314 216.203L98.3967 222.444L83.6103 239.108L80.5533 233.602L83.1749 230.853L79.7097 224.612L75.9632 225.347L72.9061 219.841L72.8971 219.85ZM138.801 259.21L139.807 259.31L140.633 249.939L153.206 251.037L152.761 256.053L146.058 255.473L145.767 259.573L150.267 259.945L149.895 263.909L145.35 263.555L144.67 271.348L138.801 270.84L139.463 263.256L138.401 263.147L138.791 259.21H138.801ZM67.5903 193.443L88.4726 190.885L89.1892 196.718L80.4172 197.788L89.9603 202.986L90.8039 209.826L79.7187 203.158L73.3144 209.336L73.7407 212.239L67.4543 213.155L66.6197 207.476L69.2685 207.095L69.0508 205.317L77.2876 198.178L68.307 199.276L67.5903 193.443Z" fill="white"/>
</g>
<defs>
<clipPath id="clip0_1444_13722">
<rect width="215.998" height="270" fill="white" transform="translate(42 15)"/>
</clipPath>
</defs>
</svg>
